<?xml version="1.0" encoding="UTF-8"?>
<svg version="1.1" xmlns="http://www.w3.org/2000/svg" width="469" height="532">
<path d="M0 0 C3.86768751 0.59232902 6.7308583 1.74430558 10.1328125 3.66015625 C11.09840088 4.20236816 12.06398926 4.74458008 13.05883789 5.30322266 C14.07067139 5.88378418 15.08250488 6.4643457 16.125 7.0625 C17.68432251 7.95267822 17.68432251 7.95267822 19.27514648 8.86083984 C26.21914345 12.8689457 32.71591874 17.01403881 39 22 C40.01964844 22.74636719 41.03929687 23.49273438 42.08984375 24.26171875 C56.73138394 35.1043037 70.00818082 48.47935384 81 63 C82.35367347 64.72955279 83.70781458 66.45873971 85.0625 68.1875 C86.04312995 69.45720454 87.02290302 70.72757467 88 72 C88.89460937 71.79503906 89.78921875 71.59007813 90.7109375 71.37890625 C91.92007813 71.10949219 93.12921875 70.84007813 94.375 70.5625 C95.55835938 70.29566406 96.74171875 70.02882813 97.9609375 69.75390625 C106.32113215 68.07410308 114.74555855 67.805348 123.25 67.8125 C124.75953247 67.8137085 124.75953247 67.8137085 126.29956055 67.81494141 C136.76439925 67.90065678 146.69881692 69.36663174 156.9140625 71.6328125 C159.30357033 72.11557631 159.30357033 72.11557631 163 72 C164.88818024 69.69418488 166.50918739 67.48365261 168.125 65 C169.70191628 62.61853459 171.31110537 60.30678291 173 58 C173.66 58 174.32 58 175 58 C175.27312012 57.40614502 175.54624023 56.81229004 175.82763672 56.20043945 C176.96394951 54.06766412 178.12158648 52.55713575 179.7578125 50.79296875 C180.29752686 50.20918457 180.83724121 49.62540039 181.39331055 49.02392578 C181.96476807 48.41790527 182.53622559 47.81188477 183.125 47.1875 C183.70741455 46.56601074 184.2898291 45.94452148 184.88989258 45.30419922 C193.67325697 36.02077073 193.67325697 36.02077073 198 33 C198.66 33 199.32 33 200 33 C200 32.34 200 31.68 200 31 C201.80016682 29.49542707 203.66761422 28.07088287 205.5625 26.6875 C206.11317139 26.28378174 206.66384277 25.88006348 207.23120117 25.46411133 C208.81684473 24.30398106 210.40828867 23.15179111 212 22 C212.69609375 21.484375 213.3921875 20.96875 214.109375 20.4375 C217.28887983 18.10391847 220.55112871 16.06544661 224 14.15625 C226.47210054 12.72706688 228.85338634 11.17735203 231.25 9.625 C235.08746698 7.18297556 238.9392162 4.78084506 242.875 2.5 C243.73867188 1.9946875 244.60234375 1.489375 245.4921875 0.96875 C248 0 248 0 250.5703125 -0.2421875 C254.75339586 1.89643068 255.51770668 6.11401329 257 10.375 C257.34248779 11.32238037 257.68497559 12.26976074 258.0378418 13.24584961 C265.69266053 34.88671643 269.55539273 56.5559686 269.39111328 79.51928711 C269.37493891 82.19761527 269.39113191 84.87444937 269.41015625 87.55273438 C269.43096772 105.54528318 266.25156306 122.60078315 260.5625 139.6875 C260.17191406 140.86699219 259.78132813 142.04648438 259.37890625 143.26171875 C258 146 258 146 255.83984375 146.89453125 C255.23269531 146.92933594 254.62554687 146.96414062 254 147 C253.34 145.68 252.68 144.36 252 143 C251.34 143 250.68 143 250 143 C248.4921875 141.5390625 248.4921875 141.5390625 246.875 139.625 C246.33617187 138.99851563 245.79734375 138.37203125 245.2421875 137.7265625 C244 136 244 136 244 134 C243.34 134 242.68 134 242 134 C240.45703125 132.64453125 240.45703125 132.64453125 238.8125 130.8125 C238.26207031 130.22082031 237.71164062 129.62914062 237.14453125 129.01953125 C236 127 236 127 236.171875 124.61328125 C237.07705816 121.75683061 238.19837555 119.10327994 239.4375 116.375 C241.89110145 110.6263603 243.16886801 105.17025165 244 99 C244.17660156 97.97003906 244.35320312 96.94007812 244.53515625 95.87890625 C246.99818452 75.32607368 245.08016276 53.7457713 239 34 C224.72729982 42.82297845 224.72729982 42.82297845 214 55 C213.34 55 212.68 55 212 55 C211.67 55.99 211.34 56.98 211 58 C210.34 58 209.68 58 209 58 C208.62101562 58.82371094 208.62101562 58.82371094 208.234375 59.6640625 C206.78292243 62.41079869 205.04328347 64.83799044 203.25 67.375 C197.50364993 75.91094183 193.69303779 85.07099618 191 95 C191.556875 95.0825 192.11375 95.165 192.6875 95.25 C195.73677919 96.23895541 197.65189963 97.84757466 200 100 C200 100.66 200 101.32 200 102 C200.58265625 102.2578125 201.1653125 102.515625 201.765625 102.78125 C204.1802903 104.09834017 205.81740177 105.55088384 207.75 107.5 C208.36359375 108.1084375 208.9771875 108.716875 209.609375 109.34375 C211 111 211 111 211 113 C211.99 113.33 212.98 113.66 214 114 C215.47265625 115.4609375 215.47265625 115.4609375 217.0625 117.375 C220.92042367 121.944901 224.97630229 126.31145312 229.05859375 130.6796875 C231 133 231 133 231 135 C231.66 135 232.32 135 233 135 C234.76654364 137.06851691 236.4236475 139.14600466 238.0625 141.3125 C239.04834776 142.59592196 240.03534401 143.87846246 241.0234375 145.16015625 C241.5194043 145.80484863 242.01537109 146.44954102 242.52636719 147.11376953 C245.39443482 150.78485809 248.41210542 154.33201973 251.41796875 157.890625 C253 160 253 160 253 162 C253.66 162 254.32 162 255 162 C256.62890625 164.1328125 256.62890625 164.1328125 258.5625 167.125 C259.27535156 168.22457031 259.98820312 169.32414063 260.72265625 170.45703125 C261.09664551 171.04049316 261.47063477 171.62395508 261.85595703 172.22509766 C262.97145945 173.95572135 264.10570751 175.67241588 265.24609375 177.38671875 C284.17450253 205.99293376 290.52552681 232.94182043 290 267 C288.35 266.67 286.7 266.34 285 266 C285 265.34 285 264.68 285 264 C284.34 264 283.68 264 283 264 C281.5625 262.28515625 281.5625 262.28515625 280 260.0625 C277.95183196 257.01367363 277.95183196 257.01367363 275 255 C275 254.34 275 253.68 275 253 C274.47019531 252.75636719 273.94039063 252.51273438 273.39453125 252.26171875 C270.96239498 250.98018528 268.71354543 249.51176914 266.43359375 247.97924805 C254.42523506 239.95520636 242.11641841 234.3131972 228 231 C227.26152832 230.82339844 226.52305664 230.64679688 225.76220703 230.46484375 C219.31147298 229.03163166 213.09877921 228.61426067 206.5 228.625 C204.9365686 228.62741699 204.9365686 228.62741699 203.34155273 228.62988281 C190.74640355 228.82657656 178.18751595 230.94009553 167 237 C165.700625 237.64582031 165.700625 237.64582031 164.375 238.3046875 C150.73217879 245.31558173 139.44807224 256.32638102 128.8125 267.25 C126 270 126 270 124 270 C124 270.66 124 271.32 124 272 C120.53846154 275 120.53846154 275 118 275 C118 275.66 118 276.32 118 277 C102.15259496 288.5895534 85.2658214 293.39955286 65.76953125 290.5234375 C56.19504617 288.2817386 46.97524614 282.90127726 41 275 C36.20779242 267.20354046 34.38313562 259.79324363 36.5234375 250.80078125 C39.46962532 242.91024853 45.73979792 236.44460508 51 230 C63.30711678 214.68796086 69.64274727 198.66372954 68 179 C66.39143847 171.56384985 62.41937775 165.20698208 56.234375 160.71875 C47.54616514 155.43027443 37.68615598 156.56501393 28 158 C28 158.66 28 159.32 28 160 C28.74378906 160.24492187 29.48757812 160.48984375 30.25390625 160.7421875 C33.32310277 162.14799302 34.76036191 163.56942277 36.9375 166.125 C37.63101563 166.92808594 38.32453125 167.73117188 39.0390625 168.55859375 C40.7658986 170.7085391 42.28479787 172.8959468 43.8125 175.1875 C46.92974836 179.52567064 50.96854498 181.48412834 55.70703125 183.7734375 C58 185 58 185 59 187 C59.85940743 200.10072304 53.70695352 212.67559057 46 223 C45.34 223 44.68 223 44 223 C43.71125 223.78375 43.4225 224.5675 43.125 225.375 C42 228 42 228 40 230 C37.79199219 230.17944336 37.79199219 230.17944336 35.046875 230.08984375 C34.04180908 230.06752686 33.03674316 230.04520996 32.0012207 230.0222168 C30.92831787 229.99426025 29.85541504 229.96630371 28.75 229.9375 C19.34318445 229.82433217 11.03730264 230.17083175 2 233 C0.93136719 233.32871094 -0.13726562 233.65742188 -1.23828125 233.99609375 C-10.18545692 237.0927809 -19.98755723 241.98755723 -26.7734375 248.7734375 C-27.17820312 249.17820313 -27.58296875 249.58296875 -28 250 C-28.66 250 -29.32 250 -30 250 C-30.33 250.99 -30.66 251.98 -31 253 C-31.66 253 -32.32 253 -33 253 C-33.24878906 253.56203125 -33.49757813 254.1240625 -33.75390625 254.703125 C-35.20459325 257.37711859 -36.9318185 259.46419538 -38.9375 261.75 C-39.62714844 262.54921875 -40.31679687 263.3484375 -41.02734375 264.171875 C-43 266 -43 266 -46 266 C-46.69567613 228.62673211 -37.10562442 198.74560337 -14.27734375 168.9765625 C-12.65907755 166.86143584 -11.07015229 164.73869011 -9.50390625 162.5859375 C-9.09527344 162.02793457 -8.68664062 161.46993164 -8.265625 160.89501953 C-7.12335475 159.33320603 -5.98538283 157.76825151 -4.84765625 156.203125 C-4.23792969 155.47609375 -3.62820312 154.7490625 -3 154 C-2.34 154 -1.68 154 -1 154 C-0.7525 153.44828125 -0.505 152.8965625 -0.25 152.328125 C1.24234474 149.54863293 3.03672523 147.2185293 5 144.75 C5.70125 143.85796875 6.4025 142.9659375 7.125 142.046875 C8.053125 141.03367188 8.053125 141.03367188 9 140 C9.66 140 10.32 140 11 140 C11.33451172 139.18789063 11.33451172 139.18789063 11.67578125 138.359375 C13.4207717 135.25030647 15.75293357 132.82122524 18.1875 130.25 C19.19218338 129.17390211 20.19609096 128.09707939 21.19921875 127.01953125 C21.9269751 126.23956787 21.9269751 126.23956787 22.66943359 125.44384766 C24.32564632 123.64662893 25.91625541 121.7986889 27.5 119.9375 C34.37533821 112.02344163 41.9882313 104.74964075 50 98 C50.9075 97.175 51.815 96.35 52.75 95.5 C55 94 55 94 57.140625 94.40625 C57.75421875 94.6021875 58.3678125 94.798125 59 95 C55.69957395 82.47478065 50.67363872 71.64415664 42.28515625 61.70703125 C41 60 41 60 41 58 C40.34 58 39.68 58 39 58 C37.51953125 56.49609375 37.51953125 56.49609375 35.8125 54.4375 C29.50276466 47.05017612 22.68383952 40.95227005 15 35 C5.77834001 55.07067173 8.56502201 89.81934546 16 110 C16.33 110.66 16.66 111.32 17 112 C17.47918551 116.30247412 17.55798926 118.27111366 14.8828125 121.765625 C13.97273438 122.58546875 13.06265625 123.4053125 12.125 124.25 C8.22183589 127.82782425 8.22183589 127.82782425 5 132 C4.34 132 3.68 132 3 132 C2.34 133.32 1.68 134.64 1 136 C-0.32 136 -1.64 136 -3 136 C-6.35431633 127.77993628 -9.27022319 119.71729331 -11 111 C-11.13680176 110.32130859 -11.27360352 109.64261719 -11.41455078 108.94335938 C-18.37869131 72.9214014 -14.24838656 33.77170772 0 0 Z M128.78125 171.6171875 C123.70546875 178.40715803 119.38773108 185.5020962 118 194 C118.33 194.99 118.66 195.98 119 197 C119.94359375 196.31164062 119.94359375 196.31164062 120.90625 195.609375 C122.19015625 194.68898438 122.19015625 194.68898438 123.5 193.75 C124.3353125 193.14671875 125.170625 192.5434375 126.03125 191.921875 C133.51767019 187.07540298 141.06604759 184.64548081 149.66601562 182.46484375 C157.73656974 180.23295636 162.51956523 176.07125037 167.8125 169.6875 C170.79771615 166.10114192 170.79771615 166.10114192 173 165 C173 164.34 173 163.68 173 163 C174.98 162.34 176.96 161.68 179 161 C179 160.01 179 159.02 179 158 C159.77523998 151.75288262 141.99112132 155.64623652 128.78125 171.6171875 Z M45.375 246.8125 C43.38177589 249.98353836 42.61942471 252.1011296 43.37109375 255.8515625 C45.42508112 262.46004361 49.67019405 266.80933819 55.375 270.5625 C60.29837362 271.38306227 64.84962483 270.41428521 69.03125 267.6640625 C70.79663395 266.19041573 72.40532004 264.65518272 74 263 C74.9590625 262.1028125 74.9590625 262.1028125 75.9375 261.1875 C77.70236381 257.55395685 77.77623946 253.93923388 77 250 C72.84125868 245.36597396 67.41957957 243.67291231 61.3203125 243.03515625 C55.7094209 242.95014274 50.04344988 243.58904651 45.375 246.8125 Z " fill="#FAFBF9" transform="translate(115,5)"/>
<path d="M0 0 C-0.43579996 4.03114964 -1.52045689 7.44575693 -3 11.1875 C-5.10880565 16.83390354 -5.80405113 22.00226053 -6 28 C-6.03996094 28.9075 -6.07992187 29.815 -6.12109375 30.75 C-6.64429183 52.41655572 3.08185409 71.93490605 17 88 C15.99070302 85.43971912 14.95609569 82.89979663 13.8515625 80.37890625 C8.36992155 67.79208102 4.82212095 55.4694705 4.8125 41.75 C4.80025391 40.84636719 4.78800781 39.94273437 4.77539062 39.01171875 C4.76249696 33.03765415 5.50618998 27.78629968 7 22 C8.32 21.67 9.64 21.34 11 21 C11.29390625 22.2375 11.29390625 22.2375 11.59375 23.5 C15.68849542 39.31418921 22.96411707 54.1680298 34.76953125 65.70703125 C37 68 37 68 37 70 C37.57621094 70.25136719 38.15242188 70.50273437 38.74609375 70.76171875 C41.29209137 72.16047308 42.98574635 73.78097511 45.0625 75.8125 C55.07539341 85.00831754 66.98005324 92.20027255 78.46875 99.3984375 C82.35983946 101.86039225 86.1787535 104.42747525 90 106.99609375 C91.88474373 108.25504366 93.77931304 109.4995306 95.6875 110.72265625 C106.23128627 117.53717721 116.09808279 125.2956168 126 133 C126.94842773 133.72960937 127.89685547 134.45921875 128.87402344 135.2109375 C129.78958008 135.92507813 130.70513672 136.63921875 131.6484375 137.375 C132.48294434 138.02210938 133.31745117 138.66921875 134.17724609 139.3359375 C135.07950928 140.15964844 135.07950928 140.15964844 136 141 C136 141.66 136 142.32 136 143 C136.59474121 143.27255615 137.18948242 143.5451123 137.80224609 143.82592773 C139.94009989 144.96800049 141.41611757 146.12292732 143.1640625 147.78515625 C143.72867188 148.31560547 144.29328125 148.84605469 144.875 149.39257812 C145.74125 150.21918945 145.74125 150.21918945 146.625 151.0625 C150.49326309 154.96570729 150.49326309 154.96570729 155 158 C155 158.66 155 159.32 155 160 C155.99 160.33 156.98 160.66 158 161 C158 161.66 158 162.32 158 163 C158.54269531 163.22300781 159.08539063 163.44601562 159.64453125 163.67578125 C162.74056044 165.41633498 165.13535817 167.75403399 167.6875 170.1875 C172.59161777 174.76294543 177.58398702 179.03225632 183 183 C183.51820313 183.3801123 184.03640625 183.76022461 184.5703125 184.15185547 C192.20270125 189.73020809 199.94508816 195.04481033 208 200 C209.12778925 200.71585433 210.25538284 201.43201697 211.3828125 202.1484375 C239.11123251 219.54086925 267.62806765 225.20958859 300 226 C299 229 299 229 296.6640625 230.28125 C270.51272291 240.76867667 242.1830821 240.4000408 215 234 C213.3012773 233.63181841 211.60205366 233.26594065 209.90234375 232.90234375 C187.26731477 227.92345429 164.85601424 220.72898236 143.421875 211.91796875 C140.64772298 210.86647564 137.84563618 210.02632559 135 209.1875 C128.91113353 207.3644008 123.06017466 205.1268628 117.15966797 202.7824707 C111.36386791 200.49369504 105.51709251 198.40170677 99.625 196.375 C92.29090693 193.83891823 85.10713569 191.12499685 78 188 C76.58873047 187.39799469 75.17725573 186.79647034 73.765625 186.1953125 C50.1681358 176.05015128 28.11387214 162.34535932 10 144 C9.18917969 143.21238281 8.37835938 142.42476562 7.54296875 141.61328125 C6.76566406 140.85402344 5.98835938 140.09476563 5.1875 139.3125 C4.39730469 138.54550781 3.60710937 137.77851563 2.79296875 136.98828125 C1 135 1 135 1 133 C0.34 133 -0.32 133 -1 133 C-20.94394775 108.09075406 -29.42927157 80.13649985 -26.69140625 48.42578125 C-24.31506689 32.67464689 -18.4839533 17.87127596 -8.25 5.625 C-7.77812256 5.05910156 -7.30624512 4.49320312 -6.82006836 3.91015625 C-3.39071923 0 -3.39071923 0 0 0 Z " fill="#E2E1E1" transform="translate(100,259)"/>
<path d="M0 0 C3 1 3 1 4.75 3.75 C6.13433451 7.34926973 6.20872573 8.42282519 5 12 C2.9609375 14.17578125 2.9609375 14.17578125 0.375 16.3125 C-24.62318242 37.92109836 -39.2563958 69.07585448 -49 100 C-49.26087402 100.82790039 -49.52174805 101.65580078 -49.79052734 102.50878906 C-54.46373376 118.41770591 -55.5119978 134.06972066 -55.44604492 150.56665039 C-55.43753728 153.7983387 -55.46641584 157.02825038 -55.49804688 160.25976562 C-55.59123181 187.81665082 -48.86827178 213.2350305 -37 238 C-36.55720703 238.94697754 -36.55720703 238.94697754 -36.10546875 239.91308594 C-26.77647379 259.85966991 -7.50375868 294.74812066 13 305 C13 305.66 13 306.32 13 307 C13.53753906 307.22558594 14.07507813 307.45117188 14.62890625 307.68359375 C17.75025944 309.41653613 20.27424887 311.71440758 22.9375 314.0625 C29.30156366 319.5460353 35.96216527 324.40738179 43 329 C43.61746094 329.40605469 44.23492187 329.81210937 44.87109375 330.23046875 C75.36247681 350.16950194 110.69875338 364.37228026 146 373 C147.19028809 373.29148926 148.38057617 373.58297852 149.60693359 373.88330078 C170.21869889 378.88890295 190.51529007 382.90363588 211.64697266 384.99902344 C213.3956665 385.17353027 213.3956665 385.17353027 215.1796875 385.3515625 C216.22882324 385.45291504 217.27795898 385.55426758 218.35888672 385.65869141 C221 386 221 386 224 387 C223.67 387.99 223.34 388.98 223 390 C215.31192423 393.18127273 207.16569116 394.59850508 199 396 C197.86884766 396.20955322 197.86884766 396.20955322 196.71484375 396.42333984 C167.07718908 401.75450334 133.34623942 401.84597765 104 395 C102.67790527 394.71116943 102.67790527 394.71116943 101.32910156 394.41650391 C80.76351681 389.90624283 59.67220152 382.78530197 41 373 C40.31494385 372.64139893 39.6298877 372.28279785 38.92407227 371.91333008 C19.70865584 361.77135532 0.97413336 349.85965894 -15 335 C-15 334.34 -15 333.68 -15 333 C-15.82757813 332.6596875 -15.82757813 332.6596875 -16.671875 332.3125 C-19.68692417 330.61274074 -21.81230369 328.45195184 -24.25 326 C-25.14203125 325.113125 -26.0340625 324.22625 -26.953125 323.3125 C-29 321 -29 321 -29 319 C-29.99 318.67 -30.98 318.34 -32 318 C-33.82131143 315.9109352 -35.51499055 313.82778927 -37.1875 311.625 C-37.92323242 310.66835449 -37.92323242 310.66835449 -38.67382812 309.69238281 C-40.12332372 307.80045947 -41.56191555 305.9006021 -43 304 C-44.04607422 302.64261719 -44.04607422 302.64261719 -45.11328125 301.2578125 C-70.89524898 266.98861315 -86.84700719 223.9297657 -88 181 C-88.02191406 180.26201172 -88.04382813 179.52402344 -88.06640625 178.76367188 C-88.97021463 143.60552594 -82.19508055 108.38954971 -66 77 C-65.44699219 75.89785156 -64.89398438 74.79570312 -64.32421875 73.66015625 C-58.35164761 62.11318538 -50.6917583 51.78139628 -42.84765625 41.4609375 C-41.51069359 39.68020499 -40.23518637 37.85277955 -39 36 C-38.34 36 -37.68 36 -37 36 C-36.731875 35.41734375 -36.46375 34.8346875 -36.1875 34.234375 C-34.98519009 31.97213399 -33.66174087 30.19423682 -32 28.25 C-31.484375 27.63640625 -30.96875 27.0228125 -30.4375 26.390625 C-29 25 -29 25 -27 25 C-26.505 23.515 -26.505 23.515 -26 22 C-25.34 22 -24.68 22 -24 22 C-23.505 20.515 -23.505 20.515 -23 19 C-22.34 19 -21.68 19 -21 19 C-21 18.34 -21 17.68 -21 17 C-18.57141298 14.41733344 -15.73924307 12.24341569 -13 10 C-12.46987305 9.56429687 -11.93974609 9.12859375 -11.39355469 8.6796875 C-9.66894246 7.27248254 -7.93082225 5.88393716 -6.1875 4.5 C-5.62458252 4.04238281 -5.06166504 3.58476562 -4.48168945 3.11328125 C-2.85546875 1.84375 -2.85546875 1.84375 0 0 Z " fill="#F7F7F7" transform="translate(89,131)"/>
<path d="M0 0 C2.49471329 0.94448075 3.11358757 1.81931294 4.51049805 4.06542969 C5.16646973 5.11597534 5.16646973 5.11597534 5.83569336 6.18774414 C6.29169922 6.95691162 6.74770508 7.7260791 7.2175293 8.51855469 C7.93827637 9.72161255 7.93827637 9.72161255 8.67358398 10.94897461 C19.75277013 29.95311066 28.06012798 52.12135692 32.0300293 73.76855469 C32.16393066 74.39810059 32.29783203 75.02764648 32.43579102 75.67626953 C38.13225024 102.87702251 37.42877615 134.8142959 31.0300293 161.76855469 C30.79928711 162.76983398 30.56854492 163.77111328 30.33081055 164.80273438 C22.58395511 197.48093806 7.58924181 227.25595025 -12.7277832 253.82714844 C-14.33083334 255.93010445 -15.90682921 258.04118936 -17.4621582 260.17871094 C-17.87135498 260.73727783 -18.28055176 261.29584473 -18.70214844 261.87133789 C-19.84538746 263.43371052 -20.98398621 264.9994755 -22.12231445 266.56542969 C-22.73204102 267.29246094 -23.34176758 268.01949219 -23.9699707 268.76855469 C-24.6299707 268.76855469 -25.2899707 268.76855469 -25.9699707 268.76855469 C-26.2793457 269.38730469 -26.5887207 270.00605469 -26.9074707 270.64355469 C-27.5949707 272.01855469 -28.2824707 273.39355469 -28.9699707 274.76855469 C-29.6299707 274.76855469 -30.2899707 274.76855469 -30.9699707 274.76855469 C-31.2174707 275.40792969 -31.4649707 276.04730469 -31.7199707 276.70605469 C-32.9699707 278.76855469 -32.9699707 278.76855469 -35.0949707 279.51855469 C-35.7137207 279.60105469 -36.3324707 279.68355469 -36.9699707 279.76855469 C-47.39421379 267.85513402 -50.61899677 251.7417077 -49.8215332 236.27636719 C-48.87985725 224.79615377 -45.17570474 215.01307502 -39.9699707 204.76855469 C-44.92622495 207.58075529 -49.69543012 210.34797954 -53.9699707 214.14355469 C-56.9699707 216.76855469 -56.9699707 216.76855469 -58.9699707 216.76855469 C-59.2999707 217.75855469 -59.6299707 218.74855469 -59.9699707 219.76855469 C-60.6299707 219.76855469 -61.2899707 219.76855469 -61.9699707 219.76855469 C-62.36249023 220.62126953 -62.36249023 220.62126953 -62.76293945 221.49121094 C-64.06349549 223.94501084 -65.60195122 225.99641377 -67.2824707 228.20605469 C-75.96580305 240.40622728 -78.33227197 254.12300715 -76.9699707 268.76855469 C-76.16562592 271.9367599 -75.18487213 274.72924214 -73.8449707 277.70214844 C-72.9699707 279.76855469 -72.9699707 279.76855469 -72.9699707 282.76855469 C-86.39895214 284.13885892 -100.57166805 276.63193977 -110.79418945 268.53027344 C-117.71069781 262.52250341 -124.17101041 255.61933631 -125.27587891 246.14550781 C-125.40972346 243.11749863 -125.43732528 240.11188189 -125.4074707 237.08105469 C-125.39502319 235.46976685 -125.39502319 235.46976685 -125.38232422 233.82592773 C-125.2188324 226.16741219 -124.43581186 219.69007324 -120.9699707 212.76855469 C-120.17139648 211.12693359 -120.17139648 211.12693359 -119.35668945 209.45214844 C-116.19900044 203.29780555 -112.84752484 196.76691512 -107.9699707 191.76855469 C-107.3099707 191.76855469 -106.6499707 191.76855469 -105.9699707 191.76855469 C-105.69540039 191.17171875 -105.42083008 190.57488281 -105.13793945 189.95996094 C-97.06639594 174.81569368 -73.25702787 163.78230824 -58.73168945 156.69042969 C-54.39492908 154.5203069 -50.2124743 152.09932955 -46.0324707 149.64355469 C-45.33476562 149.23572754 -44.63706055 148.82790039 -43.91821289 148.40771484 C-40.52548813 146.39435135 -37.2721211 144.2993265 -34.09106445 141.96386719 C-30.9699707 139.76855469 -30.9699707 139.76855469 -28.9699707 139.76855469 C-28.9699707 139.10855469 -28.9699707 138.44855469 -28.9699707 137.76855469 C-27.46606445 136.28808594 -27.46606445 136.28808594 -25.4074707 134.58105469 C-7.01957787 118.80617821 6.08959907 96.11328715 8.31225586 71.6640625 C9.55173957 50.65512511 6.61874079 30.84792514 -2.46606445 11.79199219 C-5.0013127 6.39374498 -5.0013127 6.39374498 -4.8215332 2.80761719 C-3.70390742 0.13146738 -2.87769968 -0.33809137 0 0 Z " fill="#FAFAF9" transform="translate(431.969970703125,186.2314453125)"/>
<path d="M0 0 C0.99 0 1.98 0 3 0 C3.1959375 0.825 3.391875 1.65 3.59375 2.5 C7.68849542 18.31418921 14.96411707 33.1680298 26.76953125 44.70703125 C29 47 29 47 29 49 C29.86431641 49.37705078 29.86431641 49.37705078 30.74609375 49.76171875 C33.29209137 51.16047308 34.98574635 52.78097511 37.0625 54.8125 C47.07539341 64.00831754 58.98005324 71.20027255 70.46875 78.3984375 C74.35983946 80.86039225 78.1787535 83.42747525 82 85.99609375 C83.88474373 87.25504366 85.77931304 88.4995306 87.6875 89.72265625 C98.23128627 96.53717721 108.09808279 104.2956168 118 112 C118.94842773 112.72960937 119.89685547 113.45921875 120.87402344 114.2109375 C121.78958008 114.92507813 122.70513672 115.63921875 123.6484375 116.375 C124.48294434 117.02210938 125.31745117 117.66921875 126.17724609 118.3359375 C126.77875488 118.88507813 127.38026367 119.43421875 128 120 C128 120.66 128 121.32 128 122 C128.59474121 122.27255615 129.18948242 122.5451123 129.80224609 122.82592773 C131.94009989 123.96800049 133.41611757 125.12292732 135.1640625 126.78515625 C135.72867188 127.31560547 136.29328125 127.84605469 136.875 128.39257812 C137.74125 129.21918945 137.74125 129.21918945 138.625 130.0625 C142.49326309 133.96570729 142.49326309 133.96570729 147 137 C147 137.66 147 138.32 147 139 C147.99 139.33 148.98 139.66 150 140 C150 140.66 150 141.32 150 142 C150.54269531 142.22300781 151.08539063 142.44601562 151.64453125 142.67578125 C154.74056044 144.41633498 157.13535817 146.75403399 159.6875 149.1875 C164.59161777 153.76294543 169.58398702 158.03225632 175 162 C175.51820313 162.3801123 176.03640625 162.76022461 176.5703125 163.15185547 C184.20270125 168.73020809 191.94508816 174.04481033 200 179 C201.12778925 179.71585433 202.25538284 180.43201697 203.3828125 181.1484375 C231.11123251 198.54086925 259.62806765 204.20958859 292 205 C291 208 291 208 288.9453125 209.31640625 C274.99058553 215.48199891 259.9395993 215.20241288 244.94024658 215.40438843 C243.46106799 215.42612986 241.98197684 215.4553702 240.50311279 215.49282837 C229.84087009 215.73828767 221.93455182 214.13272919 212 210 C210.0028039 209.32497987 208.00313917 208.65717418 206 208 C200.86453276 205.90777261 195.93853325 203.5087398 191 201 C189.16719138 200.08228467 187.33385035 199.16563191 185.5 198.25 C184 197.5 182.5 196.75 181 196 C181 195.34 181 194.68 181 194 C180.154375 193.7525 179.30875 193.505 178.4375 193.25 C174.61572526 191.86026373 171.48131937 190.08879162 168 188 C168 187.34 168 186.68 168 186 C167.175 185.95875 166.35 185.9175 165.5 185.875 C161.46661903 184.86665476 159.47094401 183.23747641 156.27734375 180.6875 C151.10185351 176.85248837 145.19998111 174.02412914 139.375 171.3125 C137 170 137 170 136 167 C133.3700553 165.14356845 130.81116438 163.92594682 127.8125 162.75 C123.55868614 161.00556318 120.02433139 158.32490409 116.33203125 155.62109375 C114.27190897 154.18901545 112.27259205 153.05009426 110 152 C110 151.34 110 150.68 110 150 C109.1646875 149.8453125 109.1646875 149.8453125 108.3125 149.6875 C105.5230899 148.85821592 103.3860936 147.65700944 101 146 C101 145.34 101 144.68 101 144 C100.1646875 143.8453125 100.1646875 143.8453125 99.3125 143.6875 C96.52870742 142.85988599 94.40148127 141.62262248 92 140 C91.67 139.34 91.34 138.68 91 138 C89.35636866 137.27840576 87.68949614 136.60648579 86 136 C86 135.34 86 134.68 86 134 C85.28585938 133.73832031 84.57171875 133.47664062 83.8359375 133.20703125 C77.37811816 130.45845525 65.23227211 124.46454422 62 118 C61.0925 117.566875 60.185 117.13375 59.25 116.6875 C55.72920043 114.85939253 53.76162007 112.82737293 51 110 C48.88803529 108.39727538 46.74556952 106.85318087 44.57421875 105.33203125 C44.05472656 104.89246094 43.53523438 104.45289063 43 104 C43 103.34 43 102.68 43 102 C42.443125 101.938125 41.88625 101.87625 41.3125 101.8125 C38.01958329 100.65552926 36.35780446 98.5346398 34 96 C33.236875 95.278125 32.47375 94.55625 31.6875 93.8125 C30 92 30 92 30 90 C29.34 90 28.68 90 28 90 C28 89.34 28 88.68 28 88 C27.4225 87.79375 26.845 87.5875 26.25 87.375 C23.16285848 85.48841352 21.91128323 83.04610765 20 80 C19.278125 79.13375 18.55625 78.2675 17.8125 77.375 C16.09513684 75.12466206 15.40863658 73.75829694 15 71 C14.41089844 70.96132813 13.82179688 70.92265625 13.21484375 70.8828125 C8.5049756 69.00551056 6.82368693 62.48280108 4.85058594 58.02441406 C-0.26831158 45.84132042 -3.36674579 33.67841819 -3.25 20.4375 C-3.25773437 19.55642578 -3.26546875 18.67535156 -3.2734375 17.76757812 C-3.23052369 3.23052369 -3.23052369 3.23052369 0 0 Z " fill="#F9F9F8" transform="translate(108,280)"/>
<path d="M0 0 C-1.45566369 4.678919 -4.18642135 7.76963221 -7.5 11.25 C-8.03826416 11.82137695 -8.57652832 12.39275391 -9.13110352 12.98144531 C-20.85415242 25.29453992 -34.02109389 34.2535635 -48.5 43 C-75.49610894 59.31470991 -96.51955783 76.96139671 -104.4375 108.5 C-107.40912584 121.66628758 -106.39363475 133.98813618 -103 147 C-102.66666667 148.33333333 -102.33333333 149.66666667 -102 151 C-103.765625 151.67578125 -103.765625 151.67578125 -106 152 C-107.921875 150.85546875 -107.921875 150.85546875 -109.75 149.1875 C-110.67039062 148.37345703 -110.67039062 148.37345703 -111.609375 147.54296875 C-113 146 -113 146 -113 144 C-113.66 144 -114.32 144 -115 144 C-116.84446641 141.93552371 -118.55806912 139.87237114 -120.25 137.6875 C-120.74580566 137.0473999 -121.24161133 136.4072998 -121.75244141 135.74780273 C-136.04959237 116.94969684 -140.81604184 95.03583099 -138.3125 71.8125 C-135.51290833 52.46635616 -126.44578099 37.58480679 -113 24 C-112.34386719 23.28328125 -111.68773437 22.5665625 -111.01171875 21.828125 C-86.47006146 -4.44773933 -32.42383831 -21.61589221 0 0 Z " fill="#F9F9F8" transform="translate(387,275)"/>
<path d="M0 0 C-0.66666667 1.33333333 -1.33333333 2.66666667 -2 4 C-2.433125 4.99 -2.433125 4.99 -2.875 6 C-4 8 -4 8 -5.8671875 9.734375 C-8.35468977 12.37677668 -9.68711557 14.98215074 -11.25 18.25 C-11.77078125 19.32765625 -12.2915625 20.4053125 -12.828125 21.515625 C-13.21484375 22.33546875 -13.6015625 23.1553125 -14 24 C-14.66 24 -15.32 24 -16 24 C-16.12375 24.680625 -16.2475 25.36125 -16.375 26.0625 C-17.09100877 29.4277412 -18.02945125 32.70013425 -19 36 C-19.66 36 -20.32 36 -21 36 C-20.979375 36.969375 -20.95875 37.93875 -20.9375 38.9375 C-21 42 -21 42 -22 43 C-23.68161809 54.52219803 -23.10157934 66.39338852 -23 78 C-22.34 78 -21.68 78 -21 78 C-21 75.36 -21 72.72 -21 70 C-20.34 70 -19.68 70 -19 70 C-19.05542969 69.26265625 -19.11085938 68.5253125 -19.16796875 67.765625 C-18.97198842 64.53878603 -18.20716412 63.327125 -16.3125 60.75 C-13.61357769 56.94350109 -11.33225337 53.08040337 -9.17578125 48.9453125 C-7.96783999 46.94679175 -6.78744568 45.49975653 -5 44 C-4.34 44 -3.68 44 -3 44 C-3 43.34 -3 42.68 -3 42 C-2.34 42 -1.68 42 -1 42 C-1 41.01 -1 40.02 -1 39 C0.98 38.505 0.98 38.505 3 38 C3 37.34 3 36.68 3 36 C3.66 36 4.32 36 5 36 C5 35.34 5 34.68 5 34 C9.35294118 30 9.35294118 30 13 30 C13 29.01 13 28.02 13 27 C13.98742187 26.52949219 14.97484375 26.05898438 15.9921875 25.57421875 C17.286666 24.94574006 18.58092553 24.31681019 19.875 23.6875 C20.52597656 23.37876953 21.17695313 23.07003906 21.84765625 22.75195312 C25.19676398 21.11192615 26.89005879 20.16491182 29 17 C31.34765625 15.68359375 31.34765625 15.68359375 34.0625 14.4375 C37.73596566 12.96693632 37.73596566 12.96693632 40 10 C42.00390625 9.2890625 42.00390625 9.2890625 44.5625 8.625 C48.74873143 7.44687487 52.41055033 5.93832432 56.25 3.91796875 C59.60170295 2.159821 62.20085102 1 66 1 C64.43068387 4.85195777 61.94959682 7.11743947 59 10 C57.42010539 11.86326637 55.86746202 13.74448632 54.33203125 15.64453125 C53.89246094 16.09183594 53.45289063 16.53914063 53 17 C52.34 17 51.68 17 51 17 C50.91492188 17.55171875 50.82984375 18.1034375 50.7421875 18.671875 C49.76712994 21.7304766 48.09643674 23.722517 46.125 26.25 C43.57986552 29.63443908 41.53110299 32.60145374 40.1875 36.625 C39.795625 37.73875 39.40375 38.8525 39 40 C37.515 40.495 37.515 40.495 36 41 C36.33 39.68 36.66 38.36 37 37 C32.04374575 39.8122006 27.27454058 42.57942486 23 46.375 C20 49 20 49 18 49 C17.67 49.99 17.34 50.98 17 52 C16.34 52 15.68 52 15 52 C14.73832031 52.56847656 14.47664063 53.13695312 14.20703125 53.72265625 C12.90647521 56.17645615 11.36801948 58.22785908 9.6875 60.4375 C1.00416765 72.63767259 -1.36230126 86.35445246 0 101 C0.80434478 104.16820521 1.78509857 106.96068745 3.125 109.93359375 C4 112 4 112 4 115 C-9.42898143 116.37030423 -23.60169735 108.86338509 -33.82421875 100.76171875 C-40.7407271 94.75394872 -47.20103971 87.85078162 -48.3059082 78.37695312 C-48.43975276 75.34894394 -48.46735458 72.3433272 -48.4375 69.3125 C-48.42505249 67.70121216 -48.42505249 67.70121216 -48.41235352 66.05737305 C-48.24886169 58.3988575 -47.46584115 51.92151855 -44 45 C-43.46761719 43.90558594 -42.93523437 42.81117188 -42.38671875 41.68359375 C-39.22902974 35.52925087 -35.87755414 28.99836044 -31 24 C-30.34 24 -29.68 24 -29 24 C-28.72542969 23.40316406 -28.45085937 22.80632812 -28.16796875 22.19140625 C-24.49775541 15.30515312 -8.1373778 0 0 0 Z " fill="#E1E0E0" transform="translate(355,354)"/>
<path d="M0 0 C2.18163379 -0.0096245 4.36229167 -0.04061875 6.54370117 -0.07226562 C14.33554248 -0.13109912 21.32511915 0.31001442 28.65112305 3.24023438 C29.86799805 3.71460938 31.08487305 4.18898437 32.33862305 4.67773438 C34.73691335 5.80900338 36.94105491 6.9630108 39.21362305 8.30273438 C42.34208449 10.06604901 45.217216 11.23518841 48.65112305 12.24023438 C48.65112305 12.90023437 48.65112305 13.56023437 48.65112305 14.24023438 C49.20799805 14.34335938 49.76487305 14.44648438 50.33862305 14.55273438 C55.62466169 16.12425938 58.87176459 19.37089119 62.65112305 23.24023438 C64.48384657 24.75320613 66.3284257 26.24568277 68.19799805 27.71289062 C69.90378641 29.50580258 70.25682056 30.82772572 70.65112305 33.24023438 C71.64112305 33.24023438 72.63112305 33.24023438 73.65112305 33.24023438 C73.75424805 33.87960938 73.85737305 34.51898438 73.96362305 35.17773438 C74.19049805 35.85835937 74.41737305 36.53898437 74.65112305 37.24023438 C75.64112305 37.57023437 76.63112305 37.90023437 77.65112305 38.24023438 C77.96049805 39.20960938 78.26987305 40.17898437 78.58862305 41.17773438 C79.31293197 44.34540484 79.31293197 44.34540484 81.71362305 45.42773438 C82.35299805 45.69585937 82.99237305 45.96398437 83.65112305 46.24023438 C83.98112305 47.23023438 84.31112305 48.22023438 84.65112305 49.24023438 C84.98112305 42.31023437 85.31112305 35.38023437 85.65112305 28.24023438 C85.98112305 28.24023438 86.31112305 28.24023438 86.65112305 28.24023438 C87.74378548 35.26080558 87.76645187 42.14491741 87.71362305 49.24023438 C87.70911133 50.39652344 87.70459961 51.5528125 87.69995117 52.74414062 C87.68824834 55.57622663 87.67185301 58.40820248 87.65112305 61.24023438 C86.00112305 60.91023438 84.35112305 60.58023438 82.65112305 60.24023438 C82.65112305 59.58023438 82.65112305 58.92023438 82.65112305 58.24023438 C81.99112305 58.24023438 81.33112305 58.24023438 80.65112305 58.24023438 C79.21362305 56.52539062 79.21362305 56.52539062 77.65112305 54.30273438 C75.60295501 51.25390801 75.60295501 51.25390801 72.65112305 49.24023438 C72.65112305 48.58023438 72.65112305 47.92023438 72.65112305 47.24023438 C72.12131836 46.99660156 71.59151367 46.75296875 71.0456543 46.50195312 C68.61351803 45.22041966 66.36466847 43.75200351 64.0847168 42.21948242 C52.07635811 34.19544073 39.76754146 28.55343158 25.65112305 25.24023438 C24.91265137 25.06363281 24.17417969 24.88703125 23.41333008 24.70507812 C16.96259603 23.27186604 10.74990226 22.85449505 4.15112305 22.86523438 C2.58769165 22.86765137 2.58769165 22.86765137 0.99267578 22.87011719 C-11.6024734 23.06681094 -24.16136101 25.1803299 -35.34887695 31.24023438 C-36.21512695 31.67078125 -37.08137695 32.10132813 -37.97387695 32.54492188 C-51.61669816 39.55581611 -62.90080472 50.56661539 -73.53637695 61.49023438 C-76.34887695 64.24023438 -76.34887695 64.24023438 -78.34887695 64.24023438 C-78.34887695 64.90023437 -78.34887695 65.56023437 -78.34887695 66.24023438 C-81.81041541 69.24023438 -81.81041541 69.24023438 -84.34887695 69.24023438 C-84.34887695 69.90023437 -84.34887695 70.56023437 -84.34887695 71.24023438 C-99.21262142 82.11041532 -114.9451495 87.10216633 -133.34887695 85.24023438 C-134.33887695 84.58023438 -135.32887695 83.92023438 -136.34887695 83.24023438 C-135.43392456 83.21050537 -135.43392456 83.21050537 -134.50048828 83.18017578 C-131.72037163 83.08455562 -128.94096849 82.97502733 -126.16137695 82.86523438 C-125.20166992 82.83429688 -124.24196289 82.80335938 -123.25317383 82.77148438 C-122.32182617 82.7328125 -121.39047852 82.69414062 -120.4309082 82.65429688 C-119.57730713 82.62287598 -118.72370605 82.59145508 -117.84423828 82.55908203 C-115.08673273 82.2067386 -112.87887726 81.3695219 -110.34887695 80.24023438 C-110.84387695 79.25023437 -110.84387695 79.25023437 -111.34887695 78.24023438 C-113.93493027 77.77190788 -113.93493027 77.77190788 -116.91137695 77.61523438 C-117.92329102 77.54046875 -118.93520508 77.46570313 -119.9777832 77.38867188 C-121.15147461 77.31519531 -121.15147461 77.31519531 -122.34887695 77.24023438 C-122.34887695 76.58023438 -122.34887695 75.92023438 -122.34887695 75.24023438 C-124.33455404 75.27278646 -126.32023112 75.30533854 -128.3059082 75.33789062 C-130.34887695 75.24023438 -130.34887695 75.24023438 -133.34887695 74.24023438 C-133.67887695 73.25023437 -134.00887695 72.26023437 -134.34887695 71.24023438 C-132.81166992 71.16675781 -132.81166992 71.16675781 -131.2434082 71.09179688 C-129.88270635 71.01672367 -128.52203051 70.94117783 -127.16137695 70.86523438 C-126.4878418 70.83429688 -125.81430664 70.80335938 -125.12036133 70.77148438 C-121.12265922 70.53747254 -117.99605538 69.85541339 -114.34887695 68.24023438 C-111.53637695 68.11523438 -111.53637695 68.11523438 -109.34887695 68.24023438 C-109.34887695 67.58023438 -109.34887695 66.92023438 -109.34887695 66.24023438 C-108.46844727 65.79292969 -107.58801758 65.345625 -106.6809082 64.88476562 C-105.51946289 64.28019531 -104.35801758 63.675625 -103.16137695 63.05273438 C-102.01282227 62.46105469 -100.86426758 61.869375 -99.6809082 61.25976562 C-96.33307378 59.23065613 -93.98865621 57.11036086 -91.34887695 54.24023438 C-86.68221029 49.35134549 -86.68221029 49.35134549 -83.34887695 48.24023438 C-83.34887695 47.58023438 -83.34887695 46.92023438 -83.34887695 46.24023438 C-82.68887695 46.24023438 -82.02887695 46.24023438 -81.34887695 46.24023438 C-81.34887695 45.25023437 -81.34887695 44.26023438 -81.34887695 43.24023438 C-79.68221029 41.90690104 -78.01554362 40.57356771 -76.34887695 39.24023438 C-75.54566048 38.15939611 -74.77635929 37.05280957 -74.03637695 35.92773438 C-71.14940114 31.68001836 -67.50044212 28.25538877 -63.34887695 25.24023438 C-62.68887695 25.24023438 -62.02887695 25.24023438 -61.34887695 25.24023438 C-61.34887695 24.58023438 -61.34887695 23.92023438 -61.34887695 23.24023438 C-59.44143059 21.68174719 -57.53737837 20.23136168 -55.53637695 18.80273438 C-51.45096653 15.92381926 -51.45096653 15.92381926 -47.7590332 12.57617188 C-45.88691333 10.80258463 -44.01561944 10.17711481 -41.59887695 9.30273438 C-38.4061262 8.10373014 -35.93443559 6.97436633 -33.03637695 5.11523438 C-28.80813081 2.52961623 -24.0769798 2.23663787 -19.23950195 1.63476562 C-12.71219075 0.74387585 -6.67583119 0.01779233 0 0 Z " fill="#E2E2E1" transform="translate(317.348876953125,210.759765625)"/>
<path d="M0 0 C1.8253125 0.0309375 1.8253125 0.0309375 3.6875 0.0625 C0.92745188 1.49572227 -1.83752377 2.66457462 -4.75 3.75 C-12.31552552 6.74468718 -20.59177962 10.16244669 -26.3125 16.0625 C-26.9725 16.0625 -27.6325 16.0625 -28.3125 16.0625 C-28.3125 16.7225 -28.3125 17.3825 -28.3125 18.0625 C-29.88671875 19.578125 -29.88671875 19.578125 -32 21.3125 C-34.66599133 23.56325728 -37.02260091 25.76299545 -39.1875 28.5 C-39.88875 29.345625 -40.59 30.19125 -41.3125 31.0625 C-41.9725 31.0625 -42.6325 31.0625 -43.3125 31.0625 C-43.498125 32.2690625 -43.498125 32.2690625 -43.6875 33.5 C-43.89375 34.345625 -44.1 35.19125 -44.3125 36.0625 C-45.3025 36.5575 -45.3025 36.5575 -46.3125 37.0625 C-46.6425 38.0525 -46.9725 39.0425 -47.3125 40.0625 C-47.9725 40.0625 -48.6325 40.0625 -49.3125 40.0625 C-49.6425 42.0425 -49.9725 44.0225 -50.3125 46.0625 C-50.9725 46.0625 -51.6325 46.0625 -52.3125 46.0625 C-52.51746094 46.90554688 -52.72242188 47.74859375 -52.93359375 48.6171875 C-53.20300781 49.71289062 -53.47242188 50.80859375 -53.75 51.9375 C-54.01683594 53.02804687 -54.28367187 54.11859375 -54.55859375 55.2421875 C-55.3125 58.0625 -55.3125 58.0625 -56.3125 60.0625 C-56.9725 60.0625 -57.6325 60.0625 -58.3125 60.0625 C-59.3025 66.3325 -60.2925 72.6025 -61.3125 79.0625 C-61.9725 79.0625 -62.6325 79.0625 -63.3125 79.0625 C-63.26800609 84.14938088 -63.19782281 89.23506043 -63.10498047 94.32128906 C-63.07695245 96.04742818 -63.05564859 97.7736913 -63.04150391 99.5 C-63.07960238 112.21401389 -63.07960238 112.21401389 -59.234375 124.19335938 C-57.98097154 126.734688 -57.60713295 129.263487 -57.3125 132.0625 C-56.9825 129.4225 -56.6525 126.7825 -56.3125 124.0625 C-55.9825 124.0625 -55.6525 124.0625 -55.3125 124.0625 C-55.24518677 125.02119995 -55.24518677 125.02119995 -55.17651367 125.99926758 C-54.96224199 128.95877851 -54.73119744 131.91676502 -54.5 134.875 C-54.42974609 135.87982422 -54.35949219 136.88464844 -54.28710938 137.91992188 C-53.7243696 144.92040464 -52.39581746 151.35731336 -50.3125 158.0625 C-52.19238281 158.6340332 -52.19238281 158.6340332 -54.3125 159.0625 C-56.234375 157.91796875 -56.234375 157.91796875 -58.0625 156.25 C-58.98289062 155.43595703 -58.98289062 155.43595703 -59.921875 154.60546875 C-61.3125 153.0625 -61.3125 153.0625 -61.3125 151.0625 C-61.9725 151.0625 -62.6325 151.0625 -63.3125 151.0625 C-65.15696641 148.99802371 -66.87056912 146.93487114 -68.5625 144.75 C-69.05830566 144.1098999 -69.55411133 143.4697998 -70.06494141 142.81030273 C-84.36209237 124.01219684 -89.12854184 102.09833099 -86.625 78.875 C-83.82540833 59.52885616 -74.75828099 44.64730679 -61.3125 31.0625 C-60.65636719 30.34578125 -60.00023437 29.6290625 -59.32421875 28.890625 C-45.26147359 13.83415267 -21.18917544 -0.35913857 0 0 Z " fill="#DFDFDF" transform="translate(335.3125,267.9375)"/>
<path d="M0 0 C1.09248047 -0.01160156 2.18496094 -0.02320313 3.31054688 -0.03515625 C9.10339463 -0.0140016 13.12094239 0.28199511 18.1875 3.375 C20.48637008 3.17969849 20.48637008 3.17969849 22.1875 2.375 C20.76913643 7.5326857 18.51358425 12.17475258 15.1875 16.375 C14.5275 16.375 13.8675 16.375 13.1875 16.375 C12.89875 17.15875 12.61 17.9425 12.3125 18.75 C11.1875 21.375 11.1875 21.375 9.1875 23.375 C6.97949219 23.55444336 6.97949219 23.55444336 4.234375 23.46484375 C3.22930908 23.44252686 2.22424316 23.42020996 1.1887207 23.3972168 C0.11581787 23.36926025 -0.95708496 23.34130371 -2.0625 23.3125 C-11.46931555 23.19933217 -19.77519736 23.54583175 -28.8125 26.375 C-29.88113281 26.70371094 -30.94976562 27.03242188 -32.05078125 27.37109375 C-40.99795692 30.4677809 -50.80005723 35.36255723 -57.5859375 42.1484375 C-57.99070312 42.55320313 -58.39546875 42.95796875 -58.8125 43.375 C-59.4725 43.375 -60.1325 43.375 -60.8125 43.375 C-61.1425 44.365 -61.4725 45.355 -61.8125 46.375 C-62.4725 46.375 -63.1325 46.375 -63.8125 46.375 C-64.06128906 46.93703125 -64.31007813 47.4990625 -64.56640625 48.078125 C-66.01709325 50.75211859 -67.7443185 52.83919538 -69.75 55.125 C-70.43964844 55.92421875 -71.12929687 56.7234375 -71.83984375 57.546875 C-73.8125 59.375 -73.8125 59.375 -76.8125 59.375 C-76.99676428 49.4759135 -77.07782681 39.66107206 -75.9375 29.8125 C-75.85902832 29.10552979 -75.78055664 28.39855957 -75.69970703 27.67016602 C-75.25687073 24.21204798 -74.78378898 22.33193346 -72.8125 19.375 C-72.78546619 21.31242341 -72.76608875 23.24995479 -72.75 25.1875 C-72.73839844 26.26644531 -72.72679688 27.34539062 -72.71484375 28.45703125 C-72.8125 31.375 -72.8125 31.375 -73.8125 34.375 C-73.88279121 36.94765818 -73.90620832 39.49141431 -73.875 42.0625 C-73.87048828 42.76439453 -73.86597656 43.46628906 -73.86132812 44.18945312 C-73.84956927 45.91800538 -73.83163454 47.64651365 -73.8125 49.375 C-73.461875 48.281875 -73.11125 47.18875 -72.75 46.0625 C-67.71367708 32.85665787 -56.61879973 18.79222272 -43.8125 12.375 C-43.1525 12.375 -42.4925 12.375 -41.8125 12.375 C-41.8125 11.715 -41.8125 11.055 -41.8125 10.375 C-36.1875 7.375 -36.1875 7.375 -32.8125 7.375 C-32.8125 6.715 -32.8125 6.055 -32.8125 5.375 C-30.9253125 4.9728125 -30.9253125 4.9728125 -29 4.5625 C-25.52996011 3.80786557 -22.18021882 2.87260006 -18.7890625 1.82421875 C-12.48745563 0.09703326 -6.50248554 -0.07029714 0 0 Z " fill="#E1E1E1" transform="translate(145.8125,211.625)"/>
<path d="M0 0 C0.66 0 1.32 0 2 0 C2 3.63 2 7.26 2 11 C2.99 11.33 3.98 11.66 5 12 C5.14695312 12.96099609 5.14695312 12.96099609 5.296875 13.94140625 C5.44640625 14.80636719 5.5959375 15.67132813 5.75 16.5625 C5.88921875 17.40941406 6.0284375 18.25632812 6.171875 19.12890625 C7.03541922 22.12279777 8.42719658 24.40900819 10.01953125 27.06567383 C11.78052305 30.53986158 12.39592102 34.26177957 13.125 38.0625 C13.43708844 39.61649411 13.75213499 41.16989743 14.0703125 42.72265625 C14.22032715 43.45806641 14.3703418 44.19347656 14.52490234 44.95117188 C15.01422055 47.22191716 15.01422055 47.22191716 16.109375 50.22265625 C17.03717088 53.11591446 17.20670573 55.35188797 17.125 58.375 C17.10695313 59.24898437 17.08890625 60.12296875 17.0703125 61.0234375 C17.04710937 61.67570312 17.02390625 62.32796875 17 63 C17.33 63 17.66 63 18 63 C18.99 58.71 19.98 54.42 21 50 C21.33 50 21.66 50 22 50 C21.33871375 60.30694432 18.81701133 69.92396602 15.5625 79.6875 C15.17191406 80.86699219 14.78132813 82.04648438 14.37890625 83.26171875 C13 86 13 86 10.83984375 86.89453125 C9.92912109 86.94673828 9.92912109 86.94673828 9 87 C8.34 85.68 7.68 84.36 7 83 C6.34 83 5.68 83 5 83 C3.4921875 81.5390625 3.4921875 81.5390625 1.875 79.625 C1.33617187 78.99851562 0.79734375 78.37203125 0.2421875 77.7265625 C-1 76 -1 76 -1 74 C-1.66 74 -2.32 74 -3 74 C-4.54296875 72.64453125 -4.54296875 72.64453125 -6.1875 70.8125 C-6.73792969 70.22082031 -7.28835938 69.62914062 -7.85546875 69.01953125 C-9 67 -9 67 -8.828125 64.61328125 C-7.92294184 61.75683061 -6.80162445 59.10327994 -5.5625 56.375 C-3.10889855 50.6263603 -1.83113199 45.17025165 -1 39 C-0.82960205 37.94844727 -0.6592041 36.89689453 -0.48364258 35.81347656 C0.00857177 31.93241239 0.11336168 28.22705708 0.09765625 24.31640625 C0.0962413 23.61603745 0.09482635 22.91566864 0.09336853 22.19407654 C0.08782477 19.98350534 0.07528326 17.77303996 0.0625 15.5625 C0.05747771 14.05273585 0.05291609 12.54297009 0.04882812 11.03320312 C0.03787387 7.35543507 0.0206489 3.67772788 0 0 Z " fill="#DFDDDB" transform="translate(360,65)"/>
<path d="M0 0 C1.43452292 3.92236687 0.6390236 7.54793808 0.0625 11.5625 C-2.45143796 31.48399675 -4.26534836 57.46930327 5 76 C5.47918551 80.30247412 5.55798926 82.27111366 2.8828125 85.765625 C1.97273438 86.58546875 1.06265625 87.4053125 0.125 88.25 C-3.77816411 91.82782425 -3.77816411 91.82782425 -7 96 C-7.66 96 -8.32 96 -9 96 C-9.66 97.32 -10.32 98.64 -11 100 C-12.32 100 -13.64 100 -15 100 C-20.55580866 86.55125285 -20.55580866 86.55125285 -21 79 C-18.2160817 80.39195915 -18.02101003 82.15575779 -17 85 C-16.17528561 81.35691384 -15.75189763 77.73966154 -15.40478516 74.02319336 C-14.16358942 61.03805461 -12.22855501 47.62663601 -6 36 C-5.01 35.505 -5.01 35.505 -4 35 C-3.98541748 34.36610352 -3.97083496 33.73220703 -3.95581055 33.07910156 C-3.35809075 9.82083143 -3.35809075 9.82083143 0 0 Z " fill="#D9D7D8" transform="translate(127,41)"/>
<path d="M0 0 C-0.43579996 4.03114964 -1.52045689 7.44575693 -3 11.1875 C-7.22040648 22.61012188 -6.11198574 34.99263957 -6 47 C-8.35926204 44.64073796 -8.33157398 43.87599311 -8.6328125 40.6484375 C-8.75849609 39.37226563 -8.75849609 39.37226563 -8.88671875 38.0703125 C-9.00466797 36.73613281 -9.00466797 36.73613281 -9.125 35.375 C-9.21136719 34.4778125 -9.29773438 33.580625 -9.38671875 32.65625 C-9.5990924 30.4381252 -9.80317085 28.21954931 -10 26 C-10.99 25.67 -11.98 25.34 -13 25 C-13.33 25.99 -13.66 26.98 -14 28 C-14.66 28 -15.32 28 -16 28 C-16.99 28.33 -17.98 28.66 -19 29 C-19.99310092 30.89022066 -19.99310092 30.89022066 -20.625 33.1875 C-20.87121094 33.99445313 -21.11742188 34.80140625 -21.37109375 35.6328125 C-22.10707723 38.40303604 -22.63553309 41.15715807 -23 44 C-22.34 44.33 -21.68 44.66 -21 45 C-21.66 45 -22.32 45 -23 45 C-23.66 46.98 -24.32 48.96 -25 51 C-25.33 51 -25.66 51 -26 51 C-26.20471202 45.40453805 -25.70237635 40.71995821 -23.9375 35.375 C-23.71271973 34.68623779 -23.48793945 33.99747559 -23.25634766 33.2878418 C-19.75884201 22.96937134 -15.21956705 13.98365484 -8.25 5.625 C-7.77804199 5.05885986 -7.30608398 4.49271973 -6.81982422 3.90942383 C-3.39011812 0 -3.39011812 0 0 0 Z " fill="#D5D5D9" transform="translate(100,259)"/>
<path d="M0 0 C3.13950686 1.34052881 4.15400653 3.47143373 5.92578125 6.33984375 C6.55097656 7.32855469 7.17617188 8.31726563 7.8203125 9.3359375 C8.24699219 10.18285156 8.67367188 11.02976563 9.11328125 11.90234375 C8.78328125 12.56234375 8.45328125 13.22234375 8.11328125 13.90234375 C7.45328125 13.57234375 6.79328125 13.24234375 6.11328125 12.90234375 C5.22013055 19.48417737 5.15833844 25.32384883 6.11328125 31.90234375 C3.59095909 29.38002159 3.25859926 27.39260947 2.30078125 23.96484375 C0.68286433 18.43083245 -1.37478534 13.45022738 -4.03125 8.33984375 C-5.05951478 5.40999343 -4.87491065 3.82131058 -3.88671875 0.90234375 C-1.88671875 -0.09765625 -1.88671875 -0.09765625 0 0 Z " fill="#F4F5F3" transform="translate(431.88671875,186.09765625)"/>
<path d="M0 0 C0 0.99 0 1.98 0 3 C-1.64333504 4.03789581 -3.31243867 5.03567924 -5 6 C-5.66 6.99 -6.32 7.98 -7 9 C-17.91878223 13.94409144 -29.13223728 15.20067887 -41 14 C-41.99 13.34 -42.98 12.68 -44 12 C-43.39003174 11.98018066 -42.78006348 11.96036133 -42.15161133 11.93994141 C-39.37149467 11.84432124 -36.59209154 11.73479295 -33.8125 11.625 C-32.37293945 11.57859375 -32.37293945 11.57859375 -30.90429688 11.53125 C-29.97294922 11.49257813 -29.04160156 11.45390625 -28.08203125 11.4140625 C-26.80162964 11.36693115 -26.80162964 11.36693115 -25.49536133 11.31884766 C-22.73785578 10.96650422 -20.53000031 10.12928753 -18 9 C-18.33 8.34 -18.66 7.68 -19 7 C-21.58605332 6.5316735 -21.58605332 6.5316735 -24.5625 6.375 C-25.57441406 6.30023438 -26.58632812 6.22546875 -27.62890625 6.1484375 C-28.80259766 6.07496094 -28.80259766 6.07496094 -30 6 C-30 5.67 -30 5.34 -30 5 C-28.85402344 4.95101563 -27.70804688 4.90203125 -26.52734375 4.8515625 C-24.99737465 4.77647199 -23.46742782 4.70092694 -21.9375 4.625 C-20.80924805 4.57859375 -20.80924805 4.57859375 -19.65820312 4.53125 C-14.80061424 4.27890772 -10.62948945 3.49432887 -6 2 C-4.8553125 1.7215625 -4.8553125 1.7215625 -3.6875 1.4375 C-1.89912329 1.03640914 -1.89912329 1.03640914 0 0 Z " fill="#CDCBCC" transform="translate(225,282)"/>
<path d="M0 0 C-0.60636233 5.76044212 -2.75658279 10.72014369 -5 16 C-6.31538327 11.84228506 -5.34433068 9.1120703 -4 5 C-9.74034093 11.3124024 -14.70423666 17.65176967 -17 26 C-16.34 26.33 -15.68 26.66 -15 27 C-15.62519531 27.24234375 -16.25039062 27.4846875 -16.89453125 27.734375 C-19.52492776 29.31554099 -19.83370972 30.34810007 -20.6875 33.25 C-20.9246875 34.04792969 -21.161875 34.84585938 -21.40625 35.66796875 C-22.10904094 38.42827263 -22.63778349 41.17471121 -23 44 C-22.34 44.33 -21.68 44.66 -21 45 C-21.66 45 -22.32 45 -23 45 C-23.66 46.98 -24.32 48.96 -25 51 C-25.33 51 -25.66 51 -26 51 C-26.20471202 45.40453805 -25.70237635 40.71995821 -23.9375 35.375 C-23.71271973 34.68623779 -23.48793945 33.99747559 -23.25634766 33.2878418 C-19.75884201 22.96937134 -15.21956705 13.98365484 -8.25 5.625 C-7.77804199 5.05885986 -7.30608398 4.49271973 -6.81982422 3.90942383 C-3.39011812 0 -3.39011812 0 0 0 Z " fill="#A7ACB0" transform="translate(100,259)"/>
<path d="M0 0 C2.35488588 -0.08183001 4.70686161 -0.14087568 7.0625 -0.1875 C8.37347656 -0.22230469 9.68445313 -0.25710938 11.03515625 -0.29296875 C15 0 15 0 18.27539062 1.49780273 C22.08491796 3.20227884 25.36643305 3.35859243 29.55859375 3.328125 C30.26540787 3.32625183 30.97222198 3.32437866 31.70045471 3.32244873 C33.19219707 3.31576202 34.68392291 3.30191529 36.17553711 3.28125 C38.40040396 3.2505125 40.62455241 3.24030519 42.84960938 3.234375 C52.59434142 3.18088373 62.2822113 2.70782572 72 2 C72 2.33 72 2.66 72 3 C61.69597882 5.41522061 52.06012895 6.51701167 41.4375 6.4375 C40.7517691 6.43578796 40.06603821 6.43407593 39.35952759 6.43231201 C9.45741265 6.30494177 9.45741265 6.30494177 0 0 Z " fill="#BCB9BE" transform="translate(312,491)"/>
<path d="M0 0 C1.90608098 3.21182149 2.22266247 5.53882603 2.125 9.25 C2.10695313 10.14203125 2.08890625 11.0340625 2.0703125 11.953125 C2.03550781 12.96632813 2.03550781 12.96632813 2 14 C2.33 14 2.66 14 3 14 C3.99 9.71 4.98 5.42 6 1 C6.33 1 6.66 1 7 1 C6.33871375 11.30694432 3.81701133 20.92396602 0.5625 30.6875 C0.17191406 31.86699219 -0.21867187 33.04648438 -0.62109375 34.26171875 C-2 37 -2 37 -4.03515625 38.01953125 C-6 38 -6 38 -8 36 C-8.125 33.375 -8.125 33.375 -8 31 C-6.35 31 -4.7 31 -3 31 C-1.1214634 20.67716783 -0.44637458 10.46630933 0 0 Z " fill="#D7D5D5" transform="translate(375,114)"/>
<path d="M0 0 C0.33 0 0.66 0 1 0 C1.02703381 1.93742341 1.04641125 3.87495479 1.0625 5.8125 C1.07410156 6.89144531 1.08570312 7.97039062 1.09765625 9.08203125 C1 12 1 12 0 15 C-0.07029121 17.57265818 -0.09370832 20.11641431 -0.0625 22.6875 C-0.05798828 23.38939453 -0.05347656 24.09128906 -0.04882812 24.81445312 C-0.03706927 26.54300538 -0.01913454 28.27151365 0 30 C0.61875 29.34 1.2375 28.68 1.875 28 C4 26 4 26 6 26 C5.67 26.99 5.34 27.98 5 29 C5.66 29.33 6.32 29.66 7 30 C5.32127275 33.96790076 2.91722926 36.86931494 0 40 C-0.99 40 -1.98 40 -3 40 C-3.54652302 10.63956905 -3.54652302 10.63956905 0 0 Z " fill="#D5D2D5" transform="translate(72,231)"/>
<path d="M0 0 C1.45922693 0.11409593 2.91740598 0.24165544 4.375 0.375 C5.59316406 0.47941406 5.59316406 0.47941406 6.8359375 0.5859375 C9 1 9 1 11 3 C16.20837749 5.55104204 21.31833585 6.90489467 27 8 C27 8.66 27 9.32 27 10 C19.24184515 10.48572796 12.34823723 9.90794113 4.8125 8.125 C3.69887085 7.86444824 3.69887085 7.86444824 2.56274414 7.59863281 C-2.72907759 6.27092241 -2.72907759 6.27092241 -5 4 C-2.69 4.33 -0.38 4.66 2 5 C2 3.68 2 2.36 2 1 C1.34 0.67 0.68 0.34 0 0 Z " fill="#D4D2D5" transform="translate(297,482)"/>
<path d="M0 0 C0.66 0.33 1.32 0.66 2 1 C1.39671875 1.78503906 0.7934375 2.57007813 0.171875 3.37890625 C-2.25776093 6.55776018 -4.62953159 9.77681575 -7 13 C-7.49113281 13.62648437 -7.98226562 14.25296875 -8.48828125 14.8984375 C-12.25361317 20.29313123 -11.95116032 26.76777042 -11 33 C-8.7786049 39.17691154 -6.00754498 44.65289894 -1 49 C-0.01 49.33 0.98 49.66 2 50 C2.33 50.99 2.66 51.98 3 53 C-3.24080858 51.2979613 -7.24761626 46.83280078 -10.55859375 41.48046875 C-14.20667231 34.25665313 -15.42215864 27.68863457 -13.44140625 19.765625 C-10.59875439 12.31216461 -4.96740544 6.13341854 0 0 Z " fill="#A2A8AE" transform="translate(165,236)"/>
<path d="M0 0 C0.66 0.33 1.32 0.66 2 1 C1.50371094 1.3403125 1.00742187 1.680625 0.49609375 2.03125 C-4.12121878 5.32557545 -7.81884381 8.81821846 -11.45703125 13.1640625 C-13.19369486 15.23047236 -15.05333946 17.13120588 -17 19 C-17.66 18.67 -18.32 18.34 -19 18 C-19 18.66 -19 19.32 -19 20 C-20.32 20.33 -21.64 20.66 -23 21 C-23 21.66 -23 22.32 -23 23 C-23.66 23 -24.32 23 -25 23 C-25.061875 23.5775 -25.12375 24.155 -25.1875 24.75 C-26.32027301 27.88690987 -28.34197595 29.09167504 -31 31 C-31.66 30.67 -32.32 30.34 -33 30 C-19.56828069 14.96338776 -19.56828069 14.96338776 -14 11 C-13.34 11 -12.68 11 -12 11 C-12 10.34 -12 9.68 -12 9 C-10.03062339 7.37643654 -8.06654852 5.86440434 -6 4.375 C-5.42765625 3.95476563 -4.8553125 3.53453125 -4.265625 3.1015625 C-2.84796067 2.06194199 -1.42450738 1.03022409 0 0 Z " fill="#C8CACD" transform="translate(327,27)"/>
<path d="M0 0 C1.16692744 3.385625 0.82159507 5.15060191 -0.5 8.4375 C-1.81927947 12.07298052 -2.22021865 14.22841509 -1 18 C-1 18.99 -1 19.98 -1 21 C0.64429829 22.68873879 2.31384218 24.35305515 4 26 C5.875 28.6875 5.875 28.6875 7 31 C6.67 31.66 6.34 32.32 6 33 C4.29115995 31.37660195 2.62553283 29.70680947 1 28 C1 27.34 1 26.68 1 26 C0.34 26 -0.32 26 -1 26 C-2.54296875 24.64453125 -2.54296875 24.64453125 -4.1875 22.8125 C-4.73792969 22.22082031 -5.28835938 21.62914062 -5.85546875 21.01953125 C-7 19 -7 19 -6.8671875 16.71875 C-5.76932899 13.27681523 -4.40137364 9.98546127 -2.9375 6.6875 C-2.65583984 6.04232422 -2.37417969 5.39714844 -2.08398438 4.73242188 C-1.3937257 3.15301642 -0.69746802 1.57623507 0 0 Z " fill="#ABABB1" transform="translate(358,113)"/>
<path d="M0 0 C0.99 0 1.98 0 3 0 C4.32 5.28 5.64 10.56 7 16 C4.43692012 13.43692012 3.53077498 12.06154996 2 9 C1.34 8.67 0.68 8.34 0 8 C-0.66 15.26 -1.32 22.52 -2 30 C-2.33 30 -2.66 30 -3 30 C-3.05896868 26.85424793 -3.09391603 23.7086414 -3.125 20.5625 C-3.14175781 19.68400391 -3.15851563 18.80550781 -3.17578125 17.90039062 C-3.21887295 12.06146471 -2.7533476 6.59958253 -1 1 C-0.67 0.67 -0.34 0.34 0 0 Z " fill="#8E939B" transform="translate(108,280)"/>
<path d="M0 0 C2.77117304 0.14080555 5.54182641 0.28743118 8.3125 0.4375 C9.49102539 0.49647461 9.49102539 0.49647461 10.69335938 0.55664062 C11.8293457 0.61948242 11.8293457 0.61948242 12.98828125 0.68359375 C14.03302612 0.73858032 14.03302612 0.73858032 15.09887695 0.79467773 C17 1 17 1 20 2 C19 5 19 5 17.28515625 5.9140625 C11.53321547 7.75387484 6.02502594 8.63522807 0 9 C2.46278801 6.53721199 4.70676982 6.00228745 8 5 C7.67 4.34 7.34 3.68 7 3 C4.6859378 2.26924352 2.35171131 1.59861742 0 1 C0 0.67 0 0.34 0 0 Z " fill="#B6B5BA" transform="translate(293,516)"/>
<path d="M0 0 C-2.91809487 1.51633105 -5.86823199 2.7599226 -8.9375 3.9375 C-11.78973828 5.05413874 -14.20244708 6.12596707 -16.8125 7.75 C-19.39483138 9.22561793 -21.07258036 9.25092168 -24 9 C-24 8.34 -24 7.68 -24 7 C-25.32 6.67 -26.64 6.34 -28 6 C-19.28449659 1.74359136 -9.70607659 -0.57094568 0 0 Z " fill="#CCCECE" transform="translate(339,268)"/>
<path d="M0 0 C-0.66666667 1.33333333 -1.33333333 2.66666667 -2 4 C-2.2784375 4.639375 -2.556875 5.27875 -2.84375 5.9375 C-4.1530547 8.2730165 -5.55686328 9.56485156 -7.625 11.25 C-8.25664062 11.77078125 -8.88828125 12.2915625 -9.5390625 12.828125 C-10.02117187 13.21484375 -10.50328125 13.6015625 -11 14 C-11.99 13.01 -12.98 12.02 -14 11 C-12.50610707 7.16341134 -10.36376981 5.53814574 -7 3.25 C-6.113125 2.63640625 -5.22625 2.0228125 -4.3125 1.390625 C-2 0 -2 0 0 0 Z " fill="#DAD9D7" transform="translate(355,354)"/>
<path d="M0 0 C0.33 0.99 0.66 1.98 1 3 C0.67 3.66 0.34 4.32 0 5 C0.66 5.33 1.32 5.66 2 6 C1.37480469 6.24234375 0.74960938 6.4846875 0.10546875 6.734375 C-2.52492776 8.31554099 -2.83370972 9.34810007 -3.6875 12.25 C-3.9246875 13.04792969 -4.161875 13.84585937 -4.40625 14.66796875 C-5.10904094 17.42827263 -5.63778349 20.17471121 -6 23 C-5.34 23.33 -4.68 23.66 -4 24 C-4.66 24 -5.32 24 -6 24 C-6.66 25.98 -7.32 27.96 -8 30 C-8.33 30 -8.66 30 -9 30 C-9.25394185 24.03904932 -8.53029534 19.38025478 -6.625 13.75 C-6.40328125 13.05648438 -6.1815625 12.36296875 -5.953125 11.6484375 C-4.86177735 8.29735824 -3.70432197 5.09007908 -2 2 C-1.34 2 -0.68 2 0 2 C0 1.34 0 0.68 0 0 Z " fill="#9FA5AF" transform="translate(83,280)"/>
<path d="M0 0 C0.928125 0.226875 1.85625 0.45375 2.8125 0.6875 C1.51754862 3.27740277 0.25002622 3.63452057 -2.3125 4.9375 C-6.29222886 7.06383041 -9.49449032 9.46971077 -12.77734375 12.55078125 C-14.1875 13.6875 -14.1875 13.6875 -16.1875 13.6875 C-16.1875 14.3475 -16.1875 15.0075 -16.1875 15.6875 C-16.8475 15.6875 -17.5075 15.6875 -18.1875 15.6875 C-18.1875 14.6975 -18.1875 13.7075 -18.1875 12.6875 C-16.52470673 11.6810725 -14.85766516 10.68164593 -13.1875 9.6875 C-11.85956394 7.62049345 -11.85956394 7.62049345 -11.1875 5.6875 C-10.5275 6.0175 -9.8675 6.3475 -9.1875 6.6875 C-9.1875 6.0275 -9.1875 5.3675 -9.1875 4.6875 C-8.1975 4.0275 -7.2075 3.3675 -6.1875 2.6875 C-5.5378125 1.8521875 -5.5378125 1.8521875 -4.875 1 C-3.1875 -0.3125 -3.1875 -0.3125 0 0 Z " fill="#BBBCC1" transform="translate(101.1875,241.3125)"/>
<path d="M0 0 C0.33 0 0.66 0 1 0 C1 7.59 1 15.18 1 23 C-0.65 22.67 -2.3 22.34 -4 22 C-4 21.34 -4 20.68 -4 20 C-4.66 20 -5.32 20 -6 20 C-7.4375 18.28515625 -7.4375 18.28515625 -9 16.0625 C-11.04816804 13.01367363 -11.04816804 13.01367363 -14 11 C-14 10.34 -14 9.68 -14 9 C-10.63820226 10.44077046 -8.40843732 12.24750021 -6 15 C-6 15.66 -6 16.32 -6 17 C-5.34 17 -4.68 17 -4 17 C-3.67 18.32 -3.34 19.64 -3 21 C-2.34 21 -1.68 21 -1 21 C-0.67 14.07 -0.34 7.14 0 0 Z " fill="#84868C" transform="translate(404,249)"/>
<path d="M0 0 C0 0.66 0 1.32 0 2 C-1.65 2 -3.3 2 -5 2 C-3.13273523 7.3137588 -1.26482987 12.54966529 1.1875 17.625 C3.24330651 22.08327844 3.69007896 26.11874368 4 31 C1.47767784 28.47767784 1.14531801 26.49026572 0.1875 23.0625 C-1.43041692 17.5284887 -3.48806659 12.54788363 -6.14453125 7.4375 C-7.17279603 4.50764968 -6.9881919 2.91896683 -6 0 C-3.50907189 -1.24546405 -2.58919267 -0.7767578 0 0 Z " fill="#A8ABAE" transform="translate(434,187)"/>
<path d="M0 0 C3 1 3 1 5 4 C4.67 4.99 4.34 5.98 4 7 C3.34 6.01 2.68 5.02 2 4 C-1.43752007 5.5277867 -4.18953688 7.50181056 -7 10 C-7 10.66 -7 11.32 -7 12 C-9.31 12 -11.62 12 -14 12 C-10.98085723 8.78607382 -7.79659911 5.91028215 -4.375 3.125 C-3.24191406 2.20074219 -3.24191406 2.20074219 -2.0859375 1.2578125 C-1.39757812 0.84273437 -0.70921875 0.42765625 0 0 Z " fill="#C2C4C9" transform="translate(89,131)"/>
<path d="M0 0 C0.33 0 0.66 0 1 0 C1.02703381 1.93742341 1.04641125 3.87495479 1.0625 5.8125 C1.07410156 6.89144531 1.08570312 7.97039062 1.09765625 9.08203125 C1 12 1 12 0 15 C-0.2153564 16.84371272 -0.38829681 18.69253981 -0.53515625 20.54296875 C-0.62216797 21.61611328 -0.70917969 22.68925781 -0.79882812 23.79492188 C-0.88583984 24.91447266 -0.97285156 26.03402344 -1.0625 27.1875 C-1.15337891 28.31865234 -1.24425781 29.44980469 -1.33789062 30.61523438 C-1.56193614 33.40990736 -1.78250144 36.20481111 -2 39 C-2.33 39 -2.66 39 -3 39 C-3.55958549 10.67875648 -3.55958549 10.67875648 0 0 Z " fill="#9EA0A3" transform="translate(72,231)"/>
<path d="M0 0 C1.51398409 3.02796818 0.32566247 4.90248769 -0.6875 8.0625 C-1.02136719 9.14660156 -1.35523438 10.23070312 -1.69921875 11.34765625 C-3 14 -3 14 -5.01953125 14.99609375 C-5.67308594 14.99738281 -6.32664062 14.99867188 -7 15 C-9 13 -9 13 -9.125 10.375 C-9.08375 9.59125 -9.0425 8.8075 -9 8 C-7.35 8 -5.7 8 -4 8 C-3.8453125 6.576875 -3.8453125 6.576875 -3.6875 5.125 C-3 2 -3 2 0 0 Z " fill="#C7C3CA" transform="translate(376,137)"/>
<path d="M0 0 C2.91517292 1.07401108 4.77810176 1.77810176 7 4 C7.83284839 8.85705388 8.34262415 13.97170416 5.5390625 18.20703125 C3.76636331 19.92363236 1.9277515 21.4620827 0 23 C-1.03707354 24.30470542 -2.06281663 25.62178916 -3 27 C-3 26.34 -3 25.68 -3 25 C-4.32 24.67 -5.64 24.34 -7 24 C-5.948125 23.46375 -4.89625 22.9275 -3.8125 22.375 C0.05270819 20.12029522 2.59807282 17.85764062 5 14 C5.68537295 10.84617002 5.75149004 8.14469678 5 5 C2.68743996 1.93275543 2.68743996 1.93275543 0 0 Z " fill="#B0B0B5" transform="translate(186,250)"/>
<path d="M0 0 C0.33 0 0.66 0 1 0 C1.91318343 6.39228402 2.00841728 12.45018841 1.625 18.875 C1.58189697 19.61226318 1.53879395 20.34952637 1.49438477 21.10913086 C1.26746003 24.49826147 1.00569584 27.74427278 0 31 C-0.66 31 -1.32 31 -2 31 C-2.12375 30.360625 -2.2475 29.72125 -2.375 29.0625 C-2.58125 28.381875 -2.7875 27.70125 -3 27 C-3.66 26.67 -4.32 26.34 -5 26 C-4.35546875 25.57203125 -3.7109375 25.1440625 -3.046875 24.703125 C0.18146123 20.43974967 -0.32273613 15.96055221 -0.25 10.75 C-0.22035156 9.71875 -0.19070313 8.6875 -0.16015625 7.625 C-0.08955222 5.08325505 -0.03680991 2.54242217 0 0 Z " fill="#D4D1D3" transform="translate(403,239)"/>
<path d="M0 0 C8.79851917 -0.41732107 16.23702211 -0.71248522 24 4 C24 4.33 24 4.66 24 5 C15.81911794 4.4533512 7.98214061 2.82876132 0 1 C0 0.67 0 0.34 0 0 Z " fill="#B6B4B7" transform="translate(312,491)"/>
<path d="M0 0 C0.66 0 1.32 0 2 0 C2.391875 1.11375 2.78375 2.2275 3.1875 3.375 C5.07628921 8.44204029 7.51381548 13.20451365 10 18 C11.65 17.67 13.3 17.34 15 17 C14.34 18.32 13.68 19.64 13 21 C9.49298992 20.3907313 9.01684093 20.01936707 6.5 17.125 C3.31352906 12.37982192 0 5.80763124 0 0 Z " fill="#AFB2B6" transform="translate(385,445)"/>
<path d="M0 0 C0 4.84322213 -3.37180707 7.25850493 -6.55859375 10.6796875 C-10.8062675 14.71667664 -13.99469861 15.90450946 -19.9375 16.1875 C-20.948125 16.125625 -21.95875 16.06375 -23 16 C-20.32355669 14.21570446 -18.69207932 13.53334875 -15.6875 12.6875 C-8.64431748 10.40445867 -4.46662845 5.64897128 0 0 Z " fill="#B1B3BB" transform="translate(283,173)"/>
<path d="M0 0 C2.77100148 2.77100148 3.21939462 5.9287884 4.125 9.625 C4.30675781 10.31207031 4.48851562 10.99914062 4.67578125 11.70703125 C5.89329126 16.5862255 6.16941745 20.97394907 6 26 C5.34 25.67 4.68 25.34 4 25 C3.4375 22.59375 3.4375 22.59375 3 19.5 C2.31203457 14.91356381 1.47563999 10.43952243 0.3671875 5.9375 C0 4 0 4 0 0 Z " fill="#B5B5B9" transform="translate(458,242)"/>
<path d="M0 0 C-3.19411335 1.77620146 -6.25667297 2.62956497 -9.8125 3.4375 C-13.40297101 4.29133152 -16.71855529 5.18520536 -20.0625 6.75 C-23 8 -23 8 -26 7 C-25.67 5.68 -25.34 4.36 -25 3 C-24.28328125 3.20496094 -23.5665625 3.40992188 -22.828125 3.62109375 C-19.44879515 4.07384927 -17.85209426 3.40946198 -14.75 2.0625 C-9.51668533 -0.0038427 -5.58784046 -0.36641577 0 0 Z " fill="#B0AEB3" transform="translate(130,234)"/>
<path d="M0 0 C8.41567099 0.5762081 16.67948259 1.61772049 25 3 C25 3.33 25 3.66 25 4 C24.37432129 3.99476318 23.74864258 3.98952637 23.10400391 3.98413086 C20.27767943 3.96338382 17.45137095 3.95034714 14.625 3.9375 C13.64015625 3.92912109 12.6553125 3.92074219 11.640625 3.91210938 C10.69960938 3.90888672 9.75859375 3.90566406 8.7890625 3.90234375 C7.91975098 3.89710693 7.05043945 3.89187012 6.15478516 3.88647461 C3.94950006 3.85877649 3.94950006 3.85877649 2 5 C1.34 3.35 0.68 1.7 0 0 Z " fill="#C7C8C7" transform="translate(265,512)"/>
<path d="M0 0 C0.66 2.31 1.32 4.62 2 7 C1.34 7 0.68 7 0 7 C-0.66 5.35 -1.32 3.7 -2 2 C-3.32 2 -4.64 2 -6 2 C-6.66 3.65 -7.32 5.3 -8 7 C-10.475 6.01 -10.475 6.01 -13 5 C-9.71226209 0.06839313 -5.74752988 -1.85949496 0 0 Z " fill="#B1B2B6" transform="translate(368,6)"/>
<path d="M0 0 C3.48247874 1.16082625 3.88819244 1.90932476 5.75 4.9375 C6.19859375 5.64777344 6.6471875 6.35804688 7.109375 7.08984375 C7.40328125 7.72019531 7.6971875 8.35054687 8 9 C7.67 9.66 7.34 10.32 7 11 C1.42857143 8.57763975 1.42857143 8.57763975 -0.4375 6.0625 C-1.09394201 3.65554596 -0.83051911 2.32545352 0 0 Z " fill="#D5D4D6" transform="translate(433,189)"/>
<path d="M0 0 C0.66 0 1.32 0 2 0 C2 5.2173913 2 5.2173913 0 8 C-2.27373995 9.64914633 -4.44094364 10.76616926 -7 12 C-7.66 11.67 -8.32 11.34 -9 11 C-7.5489926 9.16086305 -6.08898341 7.3288247 -4.625 5.5 C-3.81289062 4.4790625 -3.00078125 3.458125 -2.1640625 2.40625 C-1.44992188 1.6121875 -0.73578125 0.818125 0 0 Z " fill="#C7CBD0" transform="translate(124,145)"/>
<path d="M0 0 C0.97591583 3.38317487 0.85856655 5.5657338 0 9 C-0.66 9 -1.32 9 -2 9 C-2.66 12.63 -3.32 16.26 -4 20 C-4.66 20 -5.32 20 -6 20 C-5.57534294 12.63927766 -3.01651083 6.67862176 0 0 Z " fill="#BDBFC5" transform="translate(390,395)"/>
<path d="M0 0 C0.66 0 1.32 0 2 0 C3.32 5.28 4.64 10.56 6 16 C3.43692012 13.43692012 2.53077498 12.06154996 1 9 C0.34 8.67 -0.32 8.34 -1 8 C-0.67 5.36 -0.34 2.72 0 0 Z " fill="#BDC1C3" transform="translate(109,280)"/>
<path d="M0 0 C0.33 0.66 0.66 1.32 1 2 C2.65 2 4.3 2 6 2 C1.37951624 5.72619658 -3.30982806 9.36230673 -8 13 C-8.66 12.67 -9.32 12.34 -10 12 C-10 11.01 -10 10.02 -10 9 C-7.36 8.34 -4.72 7.68 -2 7 C-1.67 5.68 -1.34 4.36 -1 3 C-0.67 2.01 -0.34 1.02 0 0 Z " fill="#B9BABD" transform="translate(270,242)"/>
<path d="M0 0 C-3.20471837 1.77102857 -6.32306932 2.69937181 -9.875 3.5625 C-10.88304687 3.81128906 -11.89109375 4.06007812 -12.9296875 4.31640625 C-15.94209851 4.98710845 -18.95158131 5.52226274 -22 6 C-21.67 4.68 -21.34 3.36 -21 2 C-20.34773438 1.93941406 -19.69546875 1.87882813 -19.0234375 1.81640625 C-15.21902882 1.4516768 -11.45696536 1.07759789 -7.6875 0.4375 C-5.07252897 0.01180704 -2.64378586 -0.07775841 0 0 Z " fill="#B2ADB2" transform="translate(307,233)"/>
<path d="M0 0 C3.82097239 0.53069061 6.06171403 1.49701566 9 4 C6.69 4 4.38 4 2 4 C1.01 6.31 0.02 8.62 -1 11 C-1.66 11 -2.32 11 -3 11 C-2.53199289 6.94393835 -2.12046792 3.53411321 0 0 Z " fill="#B7B5BD" transform="translate(115,5)"/>
<path d="M0 0 C0.66 0 1.32 0 2 0 C3.19996934 2.95342843 4.38281104 5.91341894 5.5625 8.875 C5.90474609 9.71675781 6.24699219 10.55851562 6.59960938 11.42578125 C7.07817383 12.63427734 7.07817383 12.63427734 7.56640625 13.8671875 C7.86490479 14.61081543 8.16340332 15.35444336 8.47094727 16.12060547 C9 18 9 18 8 20 C7.03912864 18.10545176 6.08141031 16.20930419 5.125 14.3125 C4.59132813 13.25675781 4.05765625 12.20101563 3.5078125 11.11328125 C0 3.87046632 0 3.87046632 0 0 Z " fill="#B9BAC2" transform="translate(16,379)"/>
<path d="M0 0 C4.81600823 0.76245421 9.24615702 2.41279856 13.8125 4.0625 C14.60076172 4.34416016 15.38902344 4.62582031 16.20117188 4.91601562 C18.13522289 5.60758538 20.06776488 6.30337278 22 7 C14.3553259 9.16652718 6.65799016 4.57558731 0 1 C0 0.67 0 0.34 0 0 Z " fill="#C4C5C8" transform="translate(189,490)"/>
<path d="M0 0 C-1.96382007 1.50559539 -3.78263366 2.89131683 -6 4 C-6.33 4.66 -6.66 5.32 -7 6 C-8.32 5.67 -9.64 5.34 -11 5 C-11 4.67 -11 4.34 -11 4 C-12.32 3.67 -13.64 3.34 -15 3 C-4.8 -1.6 -4.8 -1.6 0 0 Z " fill="#C0C1C1" transform="translate(326,271)"/>
<path d="M0 0 C1.14192783 1.14192783 2.28322385 2.28449238 3.421875 3.4296875 C4.56801177 4.57015032 5.72586815 5.69887306 6.890625 6.8203125 C7.52484375 7.43648437 8.1590625 8.05265625 8.8125 8.6875 C9.41707031 9.26886719 10.02164062 9.85023438 10.64453125 10.44921875 C12 12 12 12 12 14 C12.66 14 13.32 14 14 14 C14.66 15.32 15.32 16.64 16 18 C12.21866267 16.46679261 10.10556448 14.16776728 7.4375 11.125 C6.67308594 10.26132813 5.90867187 9.39765625 5.12109375 8.5078125 C0 2.45303867 0 2.45303867 0 0 Z " fill="#B7B6C1" transform="translate(334,126)"/>
<path d="M0 0 C0.99 0.33 1.98 0.66 3 1 C3 1.66 3 2.32 3 3 C3.87398438 3.38671875 3.87398438 3.38671875 4.765625 3.78125 C7.1802903 5.09834017 8.81740177 6.55088384 10.75 8.5 C11.36359375 9.1084375 11.9771875 9.716875 12.609375 10.34375 C14 12 14 12 14 14 C10.45566346 12.58226538 9.66193881 11.32387762 8 8 C7.34 7.67 6.68 7.34 6 7 C3.50983207 5.75491604 3.01313282 4.53283204 2 2 C1.34 2 0.68 2 0 2 C0 1.34 0 0.68 0 0 Z " fill="#CCCCCF" transform="translate(312,104)"/>
<path d="M0 0 C2.97 0.495 2.97 0.495 6 1 C6 1.99 6 2.98 6 4 C4.04690112 5.40113616 2.04291182 6.73339467 0 8 C-0.66 8.66 -1.32 9.32 -2 10 C-2 9.34 -2 8.68 -2 8 C-2.66 8 -3.32 8 -4 8 C-4 7.34 -4 6.68 -4 6 C-2.02 5.01 -0.04 4.02 2 3 C1.34 2.01 0.68 1.02 0 0 Z " fill="#C9C7CA" transform="translate(292,162)"/>
<path d="M0 0 C0 0.33 0 0.66 0 1 C-2.31 1.33 -4.62 1.66 -7 2 C-7 2.66 -7 3.32 -7 4 C-6.2575 4.226875 -5.515 4.45375 -4.75 4.6875 C-1.48860409 6.24407532 -0.07105025 8.08518854 2 11 C-0.475 10.01 -0.475 10.01 -3 9 C-3 8.34 -3 7.68 -3 7 C-4.98 6.34 -6.96 5.68 -9 5 C-9 3.68 -9 2.36 -9 1 C-5.8035914 -0.06546953 -3.34252724 -0.07427838 0 0 Z " fill="#BAB7BB" transform="translate(150,161)"/>
<path d="M0 0 C2.1875 0.25 2.1875 0.25 4 1 C4.66 0.67 5.32 0.34 6 0 C6.33 1.65 6.66 3.3 7 5 C6.13375 4.814375 5.2675 4.62875 4.375 4.4375 C0.94847372 3.99332067 -1.64212371 4.28045508 -5 5 C-2.75 2.4375 -2.75 2.4375 0 0 Z " fill="#BDBEC5" transform="translate(170,99)"/>
<path d="M0 0 C0.66 0.33 1.32 0.66 2 1 C1.67 1.66 1.34 2.32 1 3 C0.34 3 -0.32 3 -1 3 C-1 3.66 -1 4.32 -1 5 C-1.66 5 -2.32 5 -3 5 C-3.061875 5.5775 -3.12375 6.155 -3.1875 6.75 C-4.32027301 9.88690987 -6.34197595 11.09167504 -9 13 C-9.66 12.67 -10.32 12.34 -11 12 C-7.37 8.04 -3.74 4.08 0 0 Z " fill="#D2D2D9" transform="translate(305,45)"/>
<path d="M0 0 C4.23956592 4.55360784 7.01178998 10.13523438 9 16 C8.67 16.99 8.34 17.98 8 19 C7.63648438 18.12988281 7.63648438 18.12988281 7.265625 17.2421875 C5.66628652 13.51449857 4.12660788 9.98928738 1.75 6.6875 C0 4 0 4 0 0 Z " fill="#BCBFC4" transform="translate(387,195)"/>
<path d="M0 0 C3.05906926 2.51066469 3.75191278 4.90059933 4.6875 8.6875 C5.06455078 10.17830078 5.06455078 10.17830078 5.44921875 11.69921875 C5.63097656 12.45847656 5.81273438 13.21773438 6 14 C5.34 14.66 4.68 15.32 4 16 C3.32320342 14.274773 2.65898 12.54461061 2 10.8125 C1.443125 9.36810547 1.443125 9.36810547 0.875 7.89453125 C0.02363228 5.07817642 -0.17072647 2.91835561 0 0 Z " fill="#C4C5C9" transform="translate(107,316)"/>
<path d="M0 0 C0.556875 0.70125 1.11375 1.4025 1.6875 2.125 C2.8321875 3.548125 2.8321875 3.548125 4 5 C4.42023438 5.53882813 4.84046875 6.07765625 5.2734375 6.6328125 C8.03304594 10.12043661 8.03304594 10.12043661 12 12 C12.33 12.99 12.66 13.98 13 15 C7.78469947 13.57764531 4.23049353 10.20573686 1 6 C0.0625 2.5625 0.0625 2.5625 0 0 Z " fill="#B0B3BB" transform="translate(155,274)"/>
<path d="M0 0 C0.6640625 1.72265625 0.6640625 1.72265625 1 4 C-1.57514124 9.41166899 -5.60029735 13.9885064 -10 18 C-8.14945936 14.14308372 -6.00656926 10.45576705 -3.875 6.75 C-3.50246094 6.1003125 -3.12992187 5.450625 -2.74609375 4.78125 C-1.83170879 3.18693776 -0.91598744 1.5933921 0 0 Z " fill="#B1B7BF" transform="translate(432,288)"/>
<path d="M0 0 C0.33 0.66 0.66 1.32 1 2 C0.33333333 4 -0.33333333 6 -1 8 C-1.16857483 10.75065232 -1.16857483 10.75065232 -1 13 C-1.66 13 -2.32 13 -3 13 C-4.84974093 7.80310881 -4.84974093 7.80310881 -5 5 C-2.625 2 -2.625 2 0 0 Z " fill="#D7D4D8" transform="translate(96,263)"/>
<path d="M0 0 C2.954889 3.5458668 5.45934985 7.63781033 7 12 C6.67 12.99 6.34 13.98 6 15 C-0.25 5.625 -0.25 5.625 0 0 Z " fill="#BDC2C5" transform="translate(48,363)"/>
<path d="M0 0 C0 0.99 0 1.98 0 3 C-0.66 3 -1.32 3 -2 3 C-2.268125 3.78375 -2.53625 4.5675 -2.8125 5.375 C-4 8 -4 8 -7 10 C-7.33 8.68 -7.66 7.36 -8 6 C-5.36 4.02 -2.72 2.04 0 0 Z " fill="#BFC0C2" transform="translate(349,357)"/>
<path d="M0 0 C4.76838888 2.11928395 8.31232818 4.29719358 10.3125 9.25 C10.539375 10.1575 10.76625 11.065 11 12 C8.95880212 10.38405168 6.95927063 8.7143618 5 7 C5 6.34 5 5.68 5 5 C4.34 5 3.68 5 3 5 C1.375 2.5 1.375 2.5 0 0 Z " fill="#B5B5BA" transform="translate(354,134)"/>
<path d="M0 0 C1.41681634 0.31182069 2.83344651 0.62448737 4.25 0.9375 C5.43335938 1.19853516 5.43335938 1.19853516 6.640625 1.46484375 C8.76878703 1.947556 10.88532842 2.46163178 13 3 C13 3.66 13 4.32 13 5 C4.80743982 4.64989059 4.80743982 4.64989059 1.4375 1.9375 C0.963125 1.298125 0.48875 0.65875 0 0 Z " fill="#E2DFE0" transform="translate(311,487)"/>
<path d="M0 0 C1.3921875 0.3403125 1.3921875 0.3403125 2.8125 0.6875 C1.42128255 3.4699349 -0.48914212 4.23960065 -3.1875 5.6875 C-3.8475 5.6875 -4.5075 5.6875 -5.1875 5.6875 C-5.5175 4.6975 -5.8475 3.7075 -6.1875 2.6875 C-4.14987265 -0.14253799 -3.59070275 -0.35202968 0 0 Z " fill="#CDC9D2" transform="translate(101.1875,241.3125)"/>
<path d="M0 0 C3.23861303 1.44424635 5.61969163 3.25772247 8.25 5.625 C8.95640625 6.25664062 9.6628125 6.88828125 10.390625 7.5390625 C10.92171875 8.02117187 11.4528125 8.50328125 12 9 C11.01 9.33 10.02 9.66 9 10 C7.17578125 8.85546875 7.17578125 8.85546875 5.3125 7.1875 C4.68988281 6.64480469 4.06726563 6.10210937 3.42578125 5.54296875 C2 4 2 4 2 2 C1.34 2 0.68 2 0 2 C0 1.34 0 0.68 0 0 Z " fill="#AAABAF" transform="translate(272,417)"/>
<path d="M0 0 C0.33 0.66 0.66 1.32 1 2 C0.10333658 4.24310013 -0.89146683 6.44754321 -1.9375 8.625 C-2.50339844 9.81351562 -3.06929688 11.00203125 -3.65234375 12.2265625 C-4.09707031 13.14179688 -4.54179687 14.05703125 -5 15 C-5.33 15 -5.66 15 -6 15 C-6.125 12.625 -6.125 12.625 -6 10 C-5.34 9.34 -4.68 8.68 -4 8 C-2.98034573 5.67518826 -1.97940398 3.34205301 -1 1 C-0.67 0.67 -0.34 0.34 0 0 Z " fill="#ADAFB4" transform="translate(448,388)"/>
<path d="M0 0 C0.33 0.66 0.66 1.32 1 2 C0.57847656 2.61488281 0.15695312 3.22976563 -0.27734375 3.86328125 C-0.82519531 4.67152344 -1.37304688 5.47976563 -1.9375 6.3125 C-2.48277344 7.11300781 -3.02804687 7.91351563 -3.58984375 8.73828125 C-5.13837326 11.0258143 -5.13837326 11.0258143 -6 14 C-6.66 14 -7.32 14 -8 14 C-7.36561334 10.53466285 -5.98631946 8.20125787 -4 5.3125 C-3.46375 4.52488281 -2.9275 3.73726563 -2.375 2.92578125 C-1 1 -1 1 0 0 Z " fill="#AFB1B7" transform="translate(266,308)"/>
<path d="M0 0 C0 3.41991098 -0.80837491 5.08125425 -2.3125 8.125 C-2.74175781 9.01445312 -3.17101562 9.90390625 -3.61328125 10.8203125 C-5 13 -5 13 -8 14 C-6.6744419 10.37723685 -5.05653045 7.36494652 -2.875 4.1875 C-2.33617188 3.39730469 -1.79734375 2.60710937 -1.2421875 1.79296875 C-0.83226563 1.20128906 -0.42234375 0.60960937 0 0 Z " fill="#AFBCBF" transform="translate(95,182)"/>
<path d="M0 0 C0.33 0 0.66 0 1 0 C1.375 2.6875 1.375 2.6875 1 6 C-0.823983 8.06398076 -2.72763839 9.39041053 -5 11 C-5.33 9.68 -5.66 8.36 -6 7 C-5.34 7 -4.68 7 -4 7 C-4 6.34 -4 5.68 -4 5 C-2.68 5 -1.36 5 0 5 C0 3.35 0 1.7 0 0 Z " fill="#B3AFB3" transform="translate(131,118)"/>
<path d="M0 0 C0 3.96 0 7.92 0 12 C-2.45823172 8.31265242 -3.01242616 5.30300029 -4 1 C-4.99 1.33 -5.98 1.66 -7 2 C-7 1.34 -7 0.68 -7 0 C-5 -1 -5 -1 0 0 Z " fill="#B7B6BC" transform="translate(358,38)"/>
<path d="M0 0 C4.04420651 1.77945087 7.46078487 4.39529673 11 7 C10.01 7.33 9.02 7.66 8 8 C5.95703125 6.85546875 5.95703125 6.85546875 3.8125 5.1875 C3.09707031 4.64480469 2.38164062 4.10210937 1.64453125 3.54296875 C1.10183594 3.03378906 0.55914062 2.52460938 0 2 C0 1.34 0 0.68 0 0 Z " fill="#C3C4C6" transform="translate(154,343)"/>
<path d="M0 0 C2.45140787 2.45140787 3.63817703 4.82241307 5 8 C4.67 8.99 4.34 9.98 4 11 C4 10.34 4 9.68 4 9 C3.34 9 2.68 9 2 9 C1.67 9.66 1.34 10.32 1 11 C1 8 1 8 2 6 C1.01 5.67 0.02 5.34 -1 5 C-0.67 3.35 -0.34 1.7 0 0 Z " fill="#BEBEC1" transform="translate(97,316)"/>
<path d="M0 0 C2.23495428 2.23495428 3.0024791 4.02414536 4.1875 6.9375 C4.55230469 7.81277344 4.91710937 8.68804687 5.29296875 9.58984375 C6 12 6 12 5 15 C0 5.22727273 0 5.22727273 0 0 Z " fill="#B0B1B6" transform="translate(448,214)"/>
<path d="M0 0 C0.66 0.33 1.32 0.66 2 1 C1.67 2.98 1.34 4.96 1 7 C-0.98 7.66 -2.96 8.32 -5 9 C-3.50163895 5.88801935 -1.80066242 2.9465385 0 0 Z " fill="#CBCED3" transform="translate(101,173)"/>
<path d="M0 0 C2.875 0.25 2.875 0.25 6 1 C7.375 3.0625 7.375 3.0625 8 5 C8.66 5 9.32 5 10 5 C9.67 5.66 9.34 6.32 9 7 C7.4972763 6.02501855 5.99788037 5.04490611 4.5 4.0625 C3.6646875 3.51722656 2.829375 2.97195313 1.96875 2.41015625 C1.3190625 1.94480469 0.669375 1.47945313 0 1 C0 0.67 0 0.34 0 0 Z " fill="#C1C3C7" transform="translate(97,483)"/>
<path d="M0 0 C0.33 0 0.66 0 1 0 C1.53093324 1.93475671 2.04942317 3.87293155 2.5625 5.8125 C2.85253906 6.89144531 3.14257812 7.97039062 3.44140625 9.08203125 C4 12 4 12 3 15 C-0.77755334 10.27805833 -0.30096975 5.74071928 0 0 Z " fill="#969E9F" transform="translate(280,410)"/>
<path d="M0 0 C0.66 0 1.32 0 2 0 C3.34919532 1.65385233 4.68133728 3.321702 6 5 C6.99 5.66 7.98 6.32 9 7 C8.01 8.485 8.01 8.485 7 10 C6.34 8.68 5.68 7.36 5 6 C4.34 6 3.68 6 3 6 C0 2.53846154 0 2.53846154 0 0 Z " fill="#BEBDC0" transform="translate(96,386)"/>
<path d="M0 0 C0.33 0.66 0.66 1.32 1 2 C-0.21484375 4.8203125 -0.21484375 4.8203125 -1.9375 8.125 C-2.50339844 9.22070312 -3.06929687 10.31640625 -3.65234375 11.4453125 C-4.09707031 12.28835937 -4.54179688 13.13140625 -5 14 C-6.60031344 10.79937313 -5.03173691 8.27728194 -4 5 C-3.34 5 -2.68 5 -2 5 C-1.34 3.35 -0.68 1.7 0 0 Z " fill="#B6B7B9" transform="translate(53,193)"/>
<path d="M0 0 C0 3 0 3 -1.75 4.82421875 C-2.4925 5.43910156 -3.235 6.05398437 -4 6.6875 C-4.7425 7.31011719 -5.485 7.93273437 -6.25 8.57421875 C-6.8275 9.04472656 -7.405 9.51523438 -8 10 C-8 7 -8 7 -6.25 5.17578125 C-5.5075 4.56089844 -4.765 3.94601563 -4 3.3125 C-3.2575 2.68988281 -2.515 2.06726563 -1.75 1.42578125 C-1.1725 0.95527344 -0.595 0.48476562 0 0 Z " fill="#BBBDC1" transform="translate(160,108)"/>
<path d="M0 0 C5.8022175 -0.36263859 9.63999211 0.74315457 15 3 C11.34142468 4.31534494 8.91973519 3.65468309 5.25 2.5625 C4.26515625 2.27503906 3.2803125 1.98757813 2.265625 1.69140625 C1.51796875 1.46324219 0.7703125 1.23507812 0 1 C0 0.67 0 0.34 0 0 Z " fill="#A8ADB3" transform="translate(178,521)"/>
<path d="M0 0 C0.99 0.33 1.98 0.66 3 1 C3 1.66 3 2.32 3 3 C3.8971875 3.37125 3.8971875 3.37125 4.8125 3.75 C7.28647521 5.16370012 8.43370255 6.65055383 10 9 C8.35 8.67 6.7 8.34 5 8 C5 7.01 5 6.02 5 5 C4.01 5 3.02 5 2 5 C2 4.01 2 3.02 2 2 C1.34 2 0.68 2 0 2 C0 1.34 0 0.68 0 0 Z " fill="#C0C2C3" transform="translate(233,399)"/>
<path d="M0 0 C0.66 0.33 1.32 0.66 2 1 C-0.85276137 3.93200474 -3.65079784 6.64315404 -7 9 C-6.82374165 6.62051228 -6.30280227 5.29774151 -4.59765625 3.62109375 C-3.09350908 2.37884514 -1.54870149 1.18623944 0 0 Z " fill="#BEBCC1" transform="translate(338,365)"/>
<path d="M0 0 C0.66 0.33 1.32 0.66 2 1 C0.33333333 2.66666667 -1.33333333 4.33333333 -3 6 C-3.721875 6.763125 -4.44375 7.52625 -5.1875 8.3125 C-7 10 -7 10 -9 10 C-9 9.34 -9 8.68 -9 8 C-7.28515625 6.30859375 -7.28515625 6.30859375 -5.0625 4.4375 C-3.96615234 3.50744141 -3.96615234 3.50744141 -2.84765625 2.55859375 C-2.23792969 2.04425781 -1.62820313 1.52992188 -1 1 C-0.67 0.67 -0.34 0.34 0 0 Z " fill="#A9B0B3" transform="translate(412,316)"/>
<path d="M0 0 C1.0169313 2.65498232 1.13022151 3.69155375 0.00390625 6.359375 C-0.47175781 7.14828125 -0.94742187 7.9371875 -1.4375 8.75 C-2.14712891 9.94882813 -2.14712891 9.94882813 -2.87109375 11.171875 C-3.24363281 11.77515625 -3.61617187 12.3784375 -4 13 C-5 10 -5 10 -4.00390625 7.51953125 C-3.52824219 6.62621094 -3.05257813 5.73289063 -2.5625 4.8125 C-2.08941406 3.91144531 -1.61632812 3.01039063 -1.12890625 2.08203125 C-0.75636719 1.39496094 -0.38382813 0.70789063 0 0 Z " fill="#C4C3C7" transform="translate(24,206)"/>
<path d="M0 0 C2.125 0.375 2.125 0.375 4 1 C2.60667426 4.36720387 1.0210714 5.9859524 -2 8 C-1.34 6.35 -0.68 4.7 0 3 C-0.66 2.67 -1.32 2.34 -2 2 C-1.34 1.34 -0.68 0.68 0 0 Z " fill="#CACBD0" transform="translate(76,154)"/>
<path d="M0 0 C0.99 0.495 0.99 0.495 2 1 C2.625 4.0625 2.625 4.0625 3 7 C2.34 7 1.68 7 1 7 C1 9.31 1 11.62 1 14 C0.67 14 0.34 14 0 14 C0 9.38 0 4.76 0 0 Z " fill="#ECE8E6" transform="translate(363,76)"/>
<path d="M0 0 C1 2 1 2 0.3125 4.4375 C-1.10829685 7.21143671 -2.39746148 8.35172561 -5 10 C-5.66 9.67 -6.32 9.34 -7 9 C-4.69 6.03 -2.38 3.06 0 0 Z " fill="#BFC1C8" transform="translate(284,69)"/>
<path d="M0 0 C1.46313772 0.76167457 2.92036661 1.53470707 4.375 2.3125 C5.18710937 2.74175781 5.99921875 3.17101562 6.8359375 3.61328125 C9 5 9 5 11 8 C6.51400257 6.74809374 3.40652872 5.20614467 0 2 C0 1.34 0 0.68 0 0 Z " fill="#BDC0C3" transform="translate(293,450)"/>
<path d="M0 0 C0.66 0 1.32 0 2 0 C2.33 0.99 2.66 1.98 3 3 C3.99 3.66 4.98 4.32 6 5 C1.82412255 6.39195915 -0.13474776 4.82323219 -4 3 C-2.68 2.67 -1.36 2.34 0 2 C0 1.34 0 0.68 0 0 Z " fill="#B9B7BD" transform="translate(180,443)"/>
<path d="M0 0 C1.231394 2.46278801 1.07159196 4.2795055 1 7 C0.01 7.495 0.01 7.495 -1 8 C-1.33 8.99 -1.66 9.98 -2 11 C-2.66 11 -3.32 11 -4 11 C-3.5247412 9.35303396 -3.04468109 7.70745272 -2.5625 6.0625 C-2.29566406 5.14597656 -2.02882813 4.22945312 -1.75390625 3.28515625 C-1 1 -1 1 0 0 Z " fill="#BEC1C3" transform="translate(18,220)"/>
<path d="M0 0 C3.96189783 4.23513217 5.43181728 8.547001 7 14 C3.28576708 10.79807507 1.6675749 7.58583098 0 3 C0 2.01 0 1.02 0 0 Z " fill="#AEAEB1" transform="translate(441,200)"/>
<path d="M0 0 C0.66 0 1.32 0 2 0 C2 0.66 2 1.32 2 2 C2.99 2 3.98 2 5 2 C5.66 4.31 6.32 6.62 7 9 C3.26115668 6.34345343 1.35021826 4.41889613 0 0 Z " fill="#C2C2C9" transform="translate(42,428)"/>
<path d="M0 0 C-1.33333333 3.33333333 -2.66666667 6.66666667 -4 10 C-5.0730756 6.7807732 -4.79946725 6.09793558 -4 3 C-4.33 2.34 -4.66 1.68 -5 1 C-3 0 -3 0 0 0 Z " fill="#BDBBC2" transform="translate(363,415)"/>
<path d="M0 0 C-1.20381448 2.49361571 -2.45428722 4.68143083 -4 7 C-5.32 6.67 -6.64 6.34 -8 6 C-7.0479279 4.99403703 -6.08812654 3.99538437 -5.125 3 C-4.59132813 2.443125 -4.05765625 1.88625 -3.5078125 1.3125 C-2 0 -2 0 0 0 Z " fill="#A3A4AD" transform="translate(282,293)"/>
<path d="M0 0 C0.33 0.99 0.66 1.98 1 3 C0.67 3.66 0.34 4.32 0 5 C0.66 5.33 1.32 5.66 2 6 C0.35 6.66 -1.3 7.32 -3 8 C-3 6.35 -3 4.7 -3 3 C-2.01 2.67 -1.02 2.34 0 2 C0 1.34 0 0.68 0 0 Z " fill="#C3C4C8" transform="translate(83,280)"/>
<path d="M0 0 C-1.24546405 3.73639216 -2.63404953 4.18756513 -6 6 C-6.33 4.68 -6.66 3.36 -7 2 C-4 0 -4 0 0 0 Z " fill="#CECBCD" transform="translate(259,256)"/>
<path d="M0 0 C0.99 0.33 1.98 0.66 3 1 C1.75023244 4.65316671 1.32901247 5.78065836 -2 8 C-2.66 7.34 -3.32 6.68 -4 6 C-3.01 6 -2.02 6 -1 6 C-0.67 4.02 -0.34 2.04 0 0 Z " fill="#CECED2" transform="translate(156,227)"/>
<path d="M0 0 C0 2.33333333 0 4.66666667 0 7 C-2.31 7 -4.62 7 -7 7 C-4.66666667 4.66666667 -2.33333333 2.33333333 0 0 Z " fill="#B9BDBF" transform="translate(82,136)"/>
<path d="M0 0 C0.33 0.66 0.66 1.32 1 2 C-2.44615385 7.78461538 -2.44615385 7.78461538 -5.25 8.875 C-5.8275 8.91625 -6.405 8.9575 -7 9 C-2.85714286 2.57142857 -2.85714286 2.57142857 0 0 Z " fill="#B1B6BB" transform="translate(136,132)"/>
<path d="M0 0 C-0.33 0.99 -0.66 1.98 -1 3 C-3.31 3.33 -5.62 3.66 -8 4 C-7.34 3.34 -6.68 2.68 -6 2 C-6.33 1.34 -6.66 0.68 -7 0 C-3.86650268 -1.04449911 -3.01031744 -0.93423645 0 0 Z " fill="#B9BABE" transform="translate(313,518)"/>
<path d="M0 0 C2.475 0.495 2.475 0.495 5 1 C4.01 1.495 4.01 1.495 3 2 C2.27306096 3.97888961 1.60183749 5.97954558 1 8 C0.67 8 0.34 8 0 8 C0 5.36 0 2.72 0 0 Z " fill="#B6B7C0" transform="translate(74,302)"/>
<path d="M0 0 C0.66 0.99 1.32 1.98 2 3 C1.01 3.33 0.02 3.66 -1 4 C-1 4.66 -1 5.32 -1 6 C-1.99 6.33 -2.98 6.66 -4 7 C-4 5.68 -4 4.36 -4 3 C-3.34 3 -2.68 3 -2 3 C-2 2.34 -2 1.68 -2 1 C-1.34 0.67 -0.68 0.34 0 0 Z " fill="#D1D0D6" transform="translate(240,271)"/>
<path d="M0 0 C0.66 0.33 1.32 0.66 2 1 C-0.31 3.31 -2.62 5.62 -5 8 C-5.66 6.68 -6.32 5.36 -7 4 C-5.824375 3.566875 -5.824375 3.566875 -4.625 3.125 C-1.90328368 2.15087746 -1.90328368 2.15087746 0 0 Z " fill="#B9B5B8" transform="translate(249,264)"/>
<path d="M0 0 C0.33 0 0.66 0 1 0 C1 2.97 1 5.94 1 9 C1.99 8.67 2.98 8.34 4 8 C3.34 9.32 2.68 10.64 2 12 C1.01 11.67 0.02 11.34 -1 11 C-0.67 7.37 -0.34 3.74 0 0 Z " fill="#C1C1C6" transform="translate(70,259)"/>
<path d="M0 0 C0.33 0.99 0.66 1.98 1 3 C0.34 3 -0.32 3 -1 3 C-1.33 3.66 -1.66 4.32 -2 5 C-2.99 5 -3.98 5 -5 5 C-5 4.01 -5 3.02 -5 2 C-2 0 -2 0 0 0 Z " fill="#E9EBED" transform="translate(161,249)"/>
<path d="M0 0 C0.66 0.33 1.32 0.66 2 1 C0.68 1.33 -0.64 1.66 -2 2 C-2 2.66 -2 3.32 -2 4 C-5 6 -5 6 -7.1875 5.625 C-7.785625 5.41875 -8.38375 5.2125 -9 5 C-7.54735962 4.1361871 -6.0876837 3.28419546 -4.625 2.4375 C-3.40683594 1.72400391 -3.40683594 1.72400391 -2.1640625 0.99609375 C-1.44992188 0.66738281 -0.73578125 0.33867187 0 0 Z " fill="#A8B0B4" transform="translate(250,191)"/>
<path d="M0 0 C2.7839183 1.39195915 2.97898997 3.15575779 4 6 C4.66 6 5.32 6 6 6 C5.67 6.99 5.34 7.98 5 9 C3.68 8.67 2.36 8.34 1 8 C0.67 5.36 0.34 2.72 0 0 Z " fill="#CACBCF" transform="translate(106,120)"/>
<path d="M0 0 C3.34998521 1.11666174 3.79340222 1.74694925 5.6875 4.5625 C6.12449219 5.20316406 6.56148438 5.84382813 7.01171875 6.50390625 C7.33785156 6.99761719 7.66398437 7.49132812 8 8 C6.68 8.33 5.36 8.66 4 9 C3.34 6.69 2.68 4.38 2 2 C1.34 2 0.68 2 0 2 C0 1.34 0 0.68 0 0 Z " fill="#C6C5C7" transform="translate(326,118)"/>
<path d="M0 0 C2.625 -0.1875 2.625 -0.1875 5 0 C4.34 1.65 3.68 3.3 3 5 C0.525 4.01 0.525 4.01 -2 3 C-1.34 2.01 -0.68 1.02 0 0 Z " fill="#CDD5D8" transform="translate(357,8)"/>
<path d="M0 0 C2.64 0 5.28 0 8 0 C8.33 0.99 8.66 1.98 9 3 C2.25 2.25 2.25 2.25 0 0 Z " fill="#A7ADB1" transform="translate(232,466)"/>
<path d="M0 0 C2.31 0.33 4.62 0.66 7 1 C6.34 2.32 5.68 3.64 5 5 C4.01 5 3.02 5 2 5 C1.34 3.35 0.68 1.7 0 0 Z " fill="#E8E7EA" transform="translate(312,441)"/>
<path d="M0 0 C3.53600465 1.91135386 5.78972846 3.62642766 8 7 C4.84859577 6.65930765 3.39218439 6.41923159 1.1875 4.0625 C0 2 0 2 0 0 Z " fill="#C5C8C8" transform="translate(243,408)"/>
<path d="M0 0 C0.33 0.66 0.66 1.32 1 2 C1.66 2 2.32 2 3 2 C3.6875 3.8125 3.6875 3.8125 4 6 C3.01 6.99 2.02 7.98 1 9 C0.67 6.03 0.34 3.06 0 0 Z " fill="#E8E7E8" transform="translate(251,370)"/>
<path d="M0 0 C-1.29299694 2.88437779 -2.65941363 4.87219421 -5 7 C-5.66 6.67 -6.32 6.34 -7 6 C-5.52522876 2.59668175 -4.14385429 0 0 0 Z " fill="#CFD0D5" transform="translate(355,354)"/>
<path d="M0 0 C0.33 0.99 0.66 1.98 1 3 C0.01 3.33 -0.98 3.66 -2 4 C-2.73323796 6.01508358 -2.73323796 6.01508358 -3 8 C-3.66 8 -4.32 8 -5 8 C-4.45773019 4.20411134 -2.79872437 2.52788007 0 0 Z " fill="#ADADB1" transform="translate(273,300)"/>
<path d="M0 0 C2.3125 0.1875 2.3125 0.1875 4 1 C2.02579865 3.52259061 1.03254358 3.9929808 -2.1875 4.6875 C-3.5796875 4.8421875 -3.5796875 4.8421875 -5 5 C-2.75 2.4375 -2.75 2.4375 0 0 Z " fill="#EBE5E8" transform="translate(111,234)"/>
<path d="M0 0 C0.91004613 3.07140568 1.33694826 5.79899154 1 9 C0.01 9.66 -0.98 10.32 -2 11 C-2.19622241 6.78121808 -1.80230168 3.82989106 0 0 Z " fill="#BCB6B7" transform="translate(233,195)"/>
<path d="M0 0 C0.99 0.33 1.98 0.66 3 1 C3.6875 3.0625 3.6875 3.0625 4 5 C3.34 5 2.68 5 2 5 C1.34 5.66 0.68 6.32 0 7 C-1.04449911 3.86650268 -0.93423645 3.01031744 0 0 Z " fill="#C7CDCD" transform="translate(433,189)"/>
<path d="M0 0 C4.62 0 9.24 0 14 0 C13.67 0.99 13.34 1.98 13 3 C12.34 2.67 11.68 2.34 11 2 C9.12943209 1.7724985 7.25314042 1.59037189 5.375 1.4375 C4.37210937 1.35371094 3.36921875 1.26992188 2.3359375 1.18359375 C1.56507813 1.12300781 0.79421875 1.06242187 0 1 C0 0.67 0 0.34 0 0 Z " fill="#E3E0E3" transform="translate(384,486)"/>
<path d="M0 0 C0.66 0 1.32 0 2 0 C4.42857143 6.28571429 4.42857143 6.28571429 3 10 C0 3.375 0 3.375 0 0 Z " fill="#AFB5BC" transform="translate(16,379)"/>
<path d="M0 0 C0.33 0.99 0.66 1.98 1 3 C-0.98 4.32 -2.96 5.64 -5 7 C-5.66 6.67 -6.32 6.34 -7 6 C-4.69 4.02 -2.38 2.04 0 0 Z " fill="#ABAEB4" transform="translate(290,285)"/>
<path d="M0 0 C0 0.99 0 1.98 0 3 C-2.3125 4.75 -2.3125 4.75 -5 6 C-5.99 5.67 -6.98 5.34 -8 5 C-4.04 2.525 -4.04 2.525 0 0 Z " fill="#FAF6F9" transform="translate(225,282)"/>
<path d="M0 0 C0.66 0.33 1.32 0.66 2 1 C0.02 3.31 -1.96 5.62 -4 8 C-4.66 7.67 -5.32 7.34 -6 7 C-4.02 4.69 -2.04 2.38 0 0 Z " fill="#B3BABF" transform="translate(143,124)"/>
<path d="M0 0 C0.66 0.66 1.32 1.32 2 2 C4.06874034 2.6425235 4.06874034 2.6425235 6 3 C3.66785852 4.20628008 1.50357861 5.1654738 -1 6 C-0.67 4.02 -0.34 2.04 0 0 Z " fill="#AAAAAC" transform="translate(304,98)"/>
<path d="M0 0 C0.66 0.66 1.32 1.32 2 2 C0.35 3.32 -1.3 4.64 -3 6 C-3.33 5.01 -3.66 4.02 -4 3 C-3 1 -3 1 0 0 Z " fill="#D1CFD6" transform="translate(314,398)"/>
<path d="M0 0 C0.33 1.32 0.66 2.64 1 4 C-0.98 4.99 -2.96 5.98 -5 7 C-5 6.34 -5 5.68 -5 5 C-4.34 5 -3.68 5 -3 5 C-2.5359375 4.0409375 -2.5359375 4.0409375 -2.0625 3.0625 C-1 1 -1 1 0 0 Z " fill="#CAC9D0" transform="translate(329,373)"/>
<path d="M0 0 C3.93673644 1.31224548 6.22719294 2.91910327 9 6 C4.75177626 5.52797514 2.80010291 3.03344482 0 0 Z " fill="#BCBDBE" transform="translate(185,364)"/>
<path d="M0 0 C1.98 0.99 3.96 1.98 6 3 C5.67 4.32 5.34 5.64 5 7 C3.29115995 5.37660195 1.62553283 3.70680947 0 2 C0 1.34 0 0.68 0 0 Z " fill="#B7ABAD" transform="translate(117,348)"/>
<path d="M0 0 C0.33 0.99 0.66 1.98 1 3 C-1.31 4.98 -3.62 6.96 -6 9 C-4.25618453 5.51236907 -2.47193291 2.96631949 0 0 Z " fill="#A6B1B8" transform="translate(421,306)"/>
<path d="M0 0 C3 2 3 2 3.6875 4.125 C3.790625 4.74375 3.89375 5.3625 4 6 C1.50907189 7.24546405 0.58919267 6.7767578 -2 6 C-1.67 5.01 -1.34 4.02 -1 3 C0.485 3.99 0.485 3.99 2 5 C1.34 3.35 0.68 1.7 0 0 Z " fill="#EFEDEA" transform="translate(398,255)"/>
<path d="M0 0 C3.7952131 1.49097658 5.61042731 3.75700849 8 7 C5 7 5 7 2.3125 4.625 C0 2 0 2 0 0 Z " fill="#C3BDC8" transform="translate(390,258)"/>
<path d="M0 0 C4.455 1.98 4.455 1.98 9 4 C9 4.33 9 4.66 9 5 C5.93606987 5.25532751 4.36766788 5.21861333 1.6875 3.625 C1.130625 3.08875 0.57375 2.5525 0 2 C0 1.34 0 0.68 0 0 Z " fill="#BAB9BC" transform="translate(161,184)"/>
<path d="M0 0 C1.485 0.99 1.485 0.99 3 2 C3.1875 5.625 3.1875 5.625 3 9 C0.23776722 6.23776722 0.42143709 3.79293383 0 0 Z " fill="#F7F6F8" transform="translate(110,128)"/>
<path d="M0 0 C2.04119788 1.61594832 4.04072937 3.2856382 6 5 C6 5.66 6 6.32 6 7 C3.53199953 5.84826645 1.95216435 4.95216435 0 3 C0 2.01 0 1.02 0 0 Z " fill="#DCDFE0" transform="translate(320,111)"/>
<path d="M0 0 C0.928125 0.2784375 0.928125 0.2784375 1.875 0.5625 C4.04160178 1.23686176 4.04160178 1.23686176 6 0 C6.33 1.65 6.66 3.3 7 5 C4.525 4.01 4.525 4.01 2 3 C2 2.34 2 1.68 2 1 C1.34 0.67 0.68 0.34 0 0 Z " fill="#AEA5B0" transform="translate(170,99)"/>
</svg>
