<?xml version="1.0" standalone="no"?>
<!DOCTYPE svg PUBLIC "-//W3C//DTD SVG 20010904//EN"
 "http://www.w3.org/TR/2001/REC-SVG-20010904/DTD/svg10.dtd">
<svg version="1.0" xmlns="http://www.w3.org/2000/svg"
 width="476.000000pt" height="524.000000pt" viewBox="0 0 476.000000 524.000000"
 preserveAspectRatio="xMidYMid meet">

<g transform="translate(0.000000,524.000000) scale(0.100000,-0.100000)"
fill="#000000" stroke="none">
<path d="M1590 5057 c0 -101 -81 -284 -191 -430 -55 -73 -78 -95 -130 -124
-173 -96 -408 -274 -553 -418 -358 -358 -583 -814 -672 -1360 -25 -154 -26
-524 -1 -685 74 -477 275 -884 544 -1100 242 -195 551 -292 882 -277 314 14
560 103 951 344 267 164 302 184 407 237 126 63 367 158 548 217 177 58 347
139 430 207 149 121 226 300 195 455 -24 122 -98 220 -208 274 -48 23 -70 28
-137 28 -71 0 -89 -4 -147 -33 -83 -41 -158 -120 -189 -200 -23 -60 -32 -205
-16 -267 l7 -30 -36 40 c-20 22 -50 68 -65 102 -118 256 9 560 291 696 415
200 873 -1 1075 -470 56 -130 78 -259 79 -465 1 -97 4 -174 8 -170 19 20 63
313 79 522 34 466 -50 887 -262 1300 -140 273 -380 571 -607 754 -167 134
-527 340 -744 426 l-58 22 0 97 c0 54 5 123 11 155 6 32 8 60 5 63 -8 9 -137
-127 -244 -256 -42 -50 -68 -71 -130 -101 -42 -21 -135 -74 -207 -118 -71 -44
-132 -78 -134 -76 -3 3 13 23 35 45 52 55 186 142 302 196 50 24 92 48 92 53
0 11 -15 15 -140 35 -189 30 -524 29 -697 -1 l-32 -6 55 -103 c30 -57 67 -140
83 -186 l27 -83 67 -13 c335 -68 593 -240 704 -470 45 -93 38 -117 -9 -32 -45
79 -136 184 -220 252 -111 89 -359 192 -513 214 -25 3 -49 11 -54 17 -4 6 -21
49 -36 96 -41 128 -106 255 -189 371 -76 108 -231 289 -247 289 -5 0 -9 -15
-9 -33z m118 -294 c102 -151 169 -315 186 -453 l6 -55 -72 80 c-143 157 -137
151 -147 136 -4 -7 -11 -36 -14 -63 -7 -59 -54 -163 -97 -219 -36 -44 -108
-104 -117 -96 -3 4 13 36 36 73 23 37 40 68 38 70 -5 5 -131 -117 -150 -146
l-16 -25 0 28 c-1 46 29 178 56 247 14 36 65 130 113 210 74 123 106 189 126
258 6 20 11 15 52 -45z m1259 -220 c-4 -60 -16 -162 -28 -228 -11 -66 -23
-135 -26 -152 -3 -18 -9 -33 -13 -33 -16 0 -52 106 -57 170 l-6 69 -32 -39
c-18 -22 -42 -52 -54 -67 l-21 -28 16 55 c9 30 29 80 44 110 27 54 166 250
177 250 3 0 3 -48 0 -107z m-444 -77 c-13 -22 -73 -69 -80 -62 -9 9 57 76 74
76 9 0 11 -5 6 -14z m76 -3 c-39 -47 -66 -73 -72 -67 -9 9 54 84 71 84 12 0
12 -2 1 -17z m62 -60 c-8 -15 -10 -15 -11 -2 0 17 10 32 18 25 2 -3 -1 -13 -7
-23z m1088 -348 c219 -77 278 -349 111 -516 -56 -56 -118 -79 -215 -79 -103 0
-159 22 -226 89 -66 66 -89 124 -89 220 0 117 63 216 172 271 51 25 73 30 133
30 40 0 91 -7 114 -15z m-1877 -426 c29 -7 92 -27 140 -45 48 -18 152 -50 230
-70 194 -49 278 -89 498 -234 47 -30 119 -69 161 -85 66 -26 79 -35 99 -70 13
-22 38 -61 57 -87 35 -49 57 -57 94 -38 35 19 21 -9 -33 -66 -63 -67 -157
-131 -205 -140 -43 -8 -132 15 -213 56 -82 41 -220 80 -312 87 -271 21 -529
-172 -528 -395 l1 -57 22 42 c23 43 86 118 93 110 2 -2 -3 -20 -11 -40 -10
-25 -15 -68 -14 -134 l1 -98 12 60 c15 76 37 116 93 177 52 55 71 62 48 17
-17 -33 -45 -148 -45 -188 0 -16 17 10 46 70 25 52 62 114 82 138 21 25 40 49
44 55 4 6 10 8 13 5 3 -4 -4 -28 -16 -55 -31 -70 -37 -216 -15 -318 23 -100
84 -221 148 -291 28 -31 48 -58 45 -61 -7 -8 -123 27 -213 64 -69 28 -203 112
-258 161 l-29 26 20 -30 c27 -38 94 -101 157 -149 57 -42 53 -46 -16 -11 -88
44 -197 126 -266 199 -36 39 -56 56 -43 38 44 -63 14 -54 -51 16 -176 191
-216 425 -104 616 38 65 144 157 237 204 79 41 80 42 42 42 -21 -1 -67 -7
-103 -15 -134 -29 -75 18 84 67 52 16 98 22 173 23 56 0 99 3 94 8 -4 4 -34
17 -67 28 -85 31 -225 36 -409 14 -275 -33 -468 -7 -645 86 -85 44 -174 115
-130 104 14 -4 72 -9 130 -12 124 -6 236 16 359 72 98 44 235 94 286 105 60
12 157 11 217 -1z m992 -169 c44 -58 119 -119 269 -219 59 -39 107 -74 107
-77 0 -23 -180 74 -280 151 -77 59 -150 149 -150 184 0 22 17 10 54 -39z
m-2020 -422 c-4 -7 -35 -46 -69 -88 -114 -141 -202 -305 -254 -473 -57 -187
-69 -445 -27 -627 14 -58 36 -130 50 -160 29 -65 31 -63 11 10 -16 57 -44 236
-45 279 0 40 12 15 32 -61 18 -71 110 -274 142 -313 14 -17 13 -11 -3 35 -30
85 -42 155 -48 286 -7 142 7 253 46 368 30 87 67 164 57 116 -19 -82 -26 -271
-16 -395 22 -282 115 -482 316 -682 94 -93 113 -107 216 -157 160 -78 270
-107 438 -113 155 -6 284 15 422 69 44 16 81 28 84 26 9 -9 -117 -90 -199
-128 -130 -60 -212 -75 -422 -75 -191 0 -262 11 -403 60 -37 13 -76 26 -87 30
-11 3 5 -7 35 -24 30 -17 98 -45 150 -63 94 -32 96 -32 292 -33 202 0 212 -3
86 -29 -311 -63 -615 15 -866 222 -126 105 -272 322 -337 505 -56 156 -70 241
-69 422 1 377 112 657 360 903 95 94 126 120 108 90z m219 -381 c-6 -161 8
-253 52 -342 14 -27 22 -41 19 -30 -4 11 -8 83 -10 160 -4 147 -4 146 33 15
22 -79 90 -203 144 -263 l47 -52 -39 81 c-40 82 -82 229 -91 317 -7 61 6 61
21 0 41 -161 186 -373 337 -493 87 -69 258 -158 374 -195 111 -35 297 -61 490
-70 277 -12 445 -47 602 -126 72 -36 172 -105 207 -143 25 -26 15 -34 -19 -16
-71 38 -357 101 -519 115 -69 6 -426 -13 -417 -22 2 -3 78 -9 168 -14 89 -5
210 -17 268 -26 l105 -18 -85 -8 c-47 -4 -229 -9 -405 -10 -273 -2 -334 1
-414 16 -264 51 -459 148 -637 319 -144 138 -233 295 -270 476 -23 107 -15
310 15 405 12 37 23 67 25 67 2 0 2 -64 -1 -143z m-25 -944 c46 -68 177 -211
186 -202 3 3 -5 21 -18 40 -13 19 -38 61 -57 94 l-33 60 109 -110 c131 -133
271 -230 412 -286 l98 -40 -105 5 c-123 6 -198 24 -297 72 -191 91 -328 260
-382 471 -28 108 -26 111 13 27 19 -40 52 -98 74 -131z"/>
<path d="M3596 3910 c-57 -17 -106 -85 -106 -146 0 -42 30 -94 71 -121 33 -21
47 -25 92 -21 69 6 110 35 133 93 14 38 15 52 5 85 -16 54 -55 97 -99 110 -43
11 -56 11 -96 0z"/>
<path d="M2445 3040 c39 -10 94 -28 124 -39 63 -25 75 -22 31 9 -42 30 -112
50 -174 49 l-51 0 70 -19z"/>
<path d="M3808 2544 c204 -117 315 -312 298 -524 -28 -347 -273 -617 -781
-861 -185 -89 -331 -171 -555 -314 -102 -65 -227 -145 -279 -178 -233 -148
-530 -258 -791 -293 -197 -26 -446 -12 -573 32 -26 9 -50 14 -52 12 -8 -7 225
-125 340 -171 752 -307 1524 -293 2185 38 245 122 495 325 640 520 109 147
192 334 214 485 6 41 4 38 -27 -35 -70 -165 -114 -242 -213 -370 -64 -82 -200
-222 -208 -214 -3 2 16 29 41 59 226 272 375 677 347 944 l-7 71 -14 -90 c-63
-431 -323 -840 -689 -1085 -124 -83 -175 -110 -293 -154 -138 -53 -153 -51
-56 4 262 150 499 389 581 585 12 30 -9 13 -123 -103 -158 -159 -269 -245
-430 -333 -249 -135 -505 -210 -708 -208 l-70 1 70 13 c90 16 225 51 278 72
91 35 269 115 326 147 63 36 151 94 151 101 0 2 -43 -14 -97 -36 -133 -55
-474 -141 -490 -125 -3 3 0 7 8 10 308 91 657 274 875 457 279 236 452 514
509 818 37 202 -1 394 -109 545 -51 71 -95 113 -160 151 -48 28 -130 59 -186
70 -28 5 -18 -3 48 -41z"/>
</g>
</svg>
