<?xml version="1.0" encoding="UTF-8"?>
<svg version="1.1" xmlns="http://www.w3.org/2000/svg" width="640" height="726">
<path d="M0 0 C211.2 0 422.4 0 640 0 C640 239.58 640 479.16 640 726 C428.8 726 217.6 726 0 726 C0 486.42 0 246.84 0 0 Z " fill="#021321" transform="translate(0,0)"/>
<path d="M0 0 C5.09882455 1.5280389 9.65665659 3.71036856 14.375 6.125 C15.11105469 6.49753906 15.84710938 6.87007812 16.60546875 7.25390625 C18.40550358 8.1656122 20.20301402 9.08229932 22 10 C22 10.66 22 11.32 22 12 C22.72832031 12.27457031 23.45664063 12.54914062 24.20703125 12.83203125 C32.43935717 16.27464027 39.81853343 21.77446132 47 27 C47.58555664 27.42555176 48.17111328 27.85110352 48.77441406 28.28955078 C67.26824675 41.7861938 84.87360639 56.53675429 99.09765625 74.6015625 C100.80613642 76.75558062 102.58419468 78.78370849 104.4375 80.8125 C109.46702194 86.47071218 113.6729217 92.80104679 118 99 C119.07636719 98.73445313 120.15273438 98.46890625 121.26171875 98.1953125 C122.73691093 97.83825962 124.21217536 97.48150518 125.6875 97.125 C126.7403418 96.86396484 126.7403418 96.86396484 127.81445312 96.59765625 C140.57226679 93.53578097 152.99570959 92.56626268 166.0625 92.5625 C166.88694611 92.55977081 167.71139221 92.55704163 168.56082153 92.55422974 C183.28414479 92.54694615 197.01695127 94.25224536 211.40966797 97.44873047 C214.59666818 98.12698179 217.76753678 98.59996543 221 99 C221.61746094 98.18917969 222.23492187 97.37835938 222.87109375 96.54296875 C227.81665663 90.06918858 232.82885021 83.66818279 238.0234375 77.390625 C239.22905231 75.93245057 240.42452826 74.46571565 241.6015625 72.984375 C242.69126374 71.62065532 243.83809113 70.30274631 245 69 C245.66 69 246.32 69 247 69 C247.22429687 68.44957031 247.44859375 67.89914063 247.6796875 67.33203125 C249.41093976 64.27416852 251.62237725 62.15178174 254.125 59.6875 C254.86641235 58.95684326 254.86641235 58.95684326 255.62280273 58.21142578 C258.97663117 54.93099123 262.41350896 51.77932367 265.984375 48.73828125 C268.31078066 46.7319818 270.55506367 44.64601435 272.8125 42.5625 C281.87210271 34.41161124 292.09567384 27.81000195 302.26318359 21.14013672 C303.7686385 20.15187773 305.26951042 19.15664399 306.76953125 18.16015625 C334.58661765 0 334.58661765 0 342 0 C346.02548909 9.18970214 350.0004254 18.35330075 353 27.9375 C353.20713623 28.59234375 353.41427246 29.2471875 353.62768555 29.921875 C354.60018484 33.14516093 355 35.58619804 355 39 C355.66 39 356.32 39 357 39 C362.58433544 62.0598255 365.26878027 84.48287366 365.25 108.1875 C365.24940582 109.0122583 365.24881165 109.8370166 365.24819946 110.68676758 C365.1899231 131.83923977 363.08642025 151.9143052 358.125 172.5 C357.89272705 173.49056396 357.6604541 174.48112793 357.42114258 175.50170898 C355.75078514 182.18594796 353.2788664 187.95548107 350 194 C349.32855582 195.33093386 348.66027296 196.66348893 348 198 C347.34 198 346.68 198 346 198 C344.48015117 196.32464541 343.03293547 194.58294378 341.625 192.8125 C340.85414063 191.84957031 340.08328125 190.88664063 339.2890625 189.89453125 C337.82766867 188.04659128 336.37491577 186.19176255 334.93359375 184.328125 C333.20830686 182.25080988 331.53421052 180.6214353 329.4375 178.9375 C324.29608939 174.59217877 324.29608939 174.59217877 323 172 C323.43561231 166.29258975 325.78843041 161.35413377 327.9375 156.125 C331.18745008 147.984778 333.05425504 140.58179728 333.74609375 131.859375 C334 129 334 129 335 128 C336.14524766 121.00667915 336.19227572 113.88116014 336.1875 106.8125 C336.18814453 105.81017334 336.18878906 104.80784668 336.18945312 103.77514648 C336.13969265 96.732343 335.548258 90.02193077 334.4453125 83.0625 C333.89984713 79.31122937 333.84569569 75.78045552 334 72 C333.34 72 332.68 72 332 72 C331.91959473 71.42032471 331.83918945 70.84064941 331.75634766 70.2434082 C331.38576028 67.59880997 331.0054735 64.95569328 330.625 62.3125 C330.43550781 60.94448242 330.43550781 60.94448242 330.2421875 59.54882812 C329.58723867 55.04605495 328.74727295 51.2162456 327 47 C326.875 44.1875 326.875 44.1875 327 42 C309.64967848 53.09022383 293.69831554 65.66667046 281 82 C280.11054687 83.05574219 280.11054687 83.05574219 279.203125 84.1328125 C270.13915736 95.06778264 264.35149082 107.58716947 260 121 C259.40543249 122.54539411 258.8029466 124.08780159 258.1875 125.625 C256.77872919 129.03257194 256.77872919 129.03257194 257 133 C257.4125 132.484375 257.825 131.96875 258.25 131.4375 C258.8275 130.963125 259.405 130.48875 260 130 C263.29756963 130.40056784 265.04469986 131.63550296 267.42578125 133.87890625 C268.05419922 134.46671875 268.68261719 135.05453125 269.33007812 135.66015625 C269.98427734 136.28792969 270.63847656 136.91570312 271.3125 137.5625 C271.98603516 138.19929687 272.65957031 138.83609375 273.35351562 139.4921875 C277.3098132 143.26777955 281.03522378 147.13424904 284.53125 151.34375 C286.07452853 153.08404281 287.70651306 154.52115989 289.5 156 C292.73037041 158.67043954 295.40397446 161.60915385 298.1171875 164.796875 C300.20299677 167.23753149 302.34585592 169.61948824 304.5 172 C314.30901301 182.88238986 323.87775942 193.97461459 332.96484375 205.46875 C334.87752791 207.84767386 336.83655857 210.18184573 338.81079102 212.50976562 C342.69084159 217.09403492 346.2877519 221.68568856 349.51953125 226.74609375 C351.18745332 229.28538408 352.99029653 231.69420204 354.8125 234.125 C358.04615093 238.54017723 360.98725181 243.06809394 363.8125 247.75 C364.18544189 248.36375488 364.55838379 248.97750977 364.94262695 249.60986328 C366.71897784 252.59877199 368.27025032 255.53997435 369.57421875 258.765625 C370.90268802 261.77924843 371.74631257 262.80923278 374 265 C389.61890807 292.38609446 400.25186563 331.5292284 393 363 C392.34 363 391.68 363 391 363 C389.703125 361.49609375 389.703125 361.49609375 388.25 359.4375 C382.3053006 351.3116519 375.97681012 345.21136226 368 339 C367.17886719 338.32839844 366.35773438 337.65679687 365.51171875 336.96484375 C357.14194463 330.41741547 347.64338625 326.30312217 338 322 C337.23848633 321.65388672 336.47697266 321.30777344 335.69238281 320.95117188 C327.6986417 317.3397689 320.05368369 314.59411087 311.4375 312.875 C310.62603516 312.70613281 309.81457031 312.53726562 308.97851562 312.36328125 C283.24896337 307.08861921 255.456259 307.86706516 231.16625977 318.22167969 C229 319 229 319 226 319 C226 319.66 226 320.32 226 321 C224.99195313 321.4021875 223.98390625 321.804375 222.9453125 322.21875 C206.81894741 329.15203403 193.6458624 342.23670438 181.51516724 354.52813721 C165.61625288 370.63713995 149.86882374 383.78328817 128 391 C126.6078125 391.47953125 126.6078125 391.47953125 125.1875 391.96875 C108.68953057 396.91814083 87.19021946 395.14510043 72 387 C60.47342132 379.59281941 53.12779516 370.46689582 50 357 C48.19379431 341.40410853 54.87312382 332.13897346 64.10546875 320.33203125 C65.36592522 318.7805003 66.66070404 317.25622119 67.98828125 315.76171875 C84.19420152 297.18564561 95.70790691 274.63276676 94.453125 249.58203125 C93.31089328 235.63584344 87.63843655 227.08000626 77.63671875 217.859375 C70.34397112 212.71663741 63.89538422 211.37247959 55.0625 211.5625 C54.13759766 211.55541016 53.21269531 211.54832031 52.25976562 211.54101562 C45.73968278 211.60041372 40.13242026 212.81490387 34 215 C36.49506137 217.01489668 38.99727142 218.99798664 41.578125 220.90234375 C46.96930378 225.00878256 51.06287647 229.05957453 54.75 234.6875 C61.02640195 244.24062322 67.65195692 248.20829532 78 253 C80.29851159 272.32452339 68.07592985 291.2584648 57 306 C56.44626709 306.86214111 55.89253418 307.72428223 55.32202148 308.61254883 C53 311 53 311 49.87817383 311.52001953 C48.66669678 311.47474121 47.45521973 311.42946289 46.20703125 311.3828125 C45.54799301 311.36735382 44.88895477 311.35189514 44.20994568 311.33596802 C42.8037093 311.30224503 41.39768888 311.25819761 39.99206543 311.20471191 C36.35104703 311.07155117 32.70949904 311.02913518 29.06640625 310.9921875 C28.35636444 310.98429199 27.64632263 310.97639648 26.9147644 310.96826172 C15.50261954 310.901484 5.01356684 313.25400787 -5.6796875 317.23046875 C-8 318 -8 318 -11 318 C-11 318.66 -11 319.32 -11 320 C-11.52207031 320.20753906 -12.04414063 320.41507812 -12.58203125 320.62890625 C-26.58408685 326.48966157 -38.21743905 335.85320659 -48.8125 346.5625 C-49.54919922 347.29146484 -50.28589844 348.02042969 -51.04492188 348.77148438 C-54.89404426 352.63451506 -58.10553851 356.38490145 -61 361 C-61.33 361 -61.66 361 -62 361 C-62.64476107 325.51499598 -62.64476107 325.51499598 -59 309 C-58.81775879 308.16629883 -58.63551758 307.33259766 -58.44775391 306.47363281 C-54.74213959 290.04757637 -54.74213959 290.04757637 -50.19116211 283.05639648 C-48.99360486 280.98895958 -48.31992361 279.12897095 -47.64453125 276.84375 C-46.02684162 271.81721059 -43.79638582 267.2746783 -41.3125 262.625 C-40.86970703 261.79137939 -40.42691406 260.95775879 -39.97070312 260.09887695 C-36.47453412 253.63662356 -32.48930709 247.81318592 -28 242 C-26.29407377 239.63800153 -24.6179356 237.25517037 -22.9375 234.875 C-17.03729243 226.59408473 -10.79502815 218.69783011 -4.203125 210.95483398 C1.00935132 204.83143075 6.12719408 198.63076025 11.1171875 192.32421875 C13.25163414 189.68937279 15.60102419 187.39897581 18 185 C21.50717903 181.1823927 25.01635687 177.35495142 28.35644531 173.38964844 C33.92526731 166.84322759 40.02326227 160.82582602 46.10644531 154.76318359 C47.99920538 152.87579237 49.88654929 150.98310327 51.7734375 149.08984375 C52.99447112 147.86947086 54.21581487 146.64940818 55.4375 145.4296875 C55.99187744 144.87328583 56.54625488 144.31688416 57.11743164 143.74362183 C67.92443587 133 67.92443587 133 71 133 C71 132.34 71 131.68 71 131 C74 129 74 129 75.9375 129.1875 C78.30821524 130.12141812 80.03790534 131.38827939 82 133 C81.46894009 127.48796437 80.44432434 122.61819624 78.4375 117.4375 C78.17501465 116.75276611 77.9125293 116.06803223 77.64208984 115.36254883 C65.77106001 85.33359727 42.95552447 62.35072112 17 44 C16.5164865 46.47838682 16.03812799 48.95759778 15.5625 51.4375 C15.36043945 52.46907227 15.36043945 52.46907227 15.15429688 53.52148438 C12.80721878 65.8293329 12.71501227 78.02487362 12.64990234 90.52246094 C12.63350516 92.81227903 12.60643683 95.10204954 12.56787109 97.39160156 C12.24325561 116.85159433 14.21410923 135.32417747 20.5350647 153.82397461 C21.06576872 156.30781574 20.89142363 157.63703274 20 160 C17.9609375 162.515625 17.9609375 162.515625 15.375 165.25 C14.46166383 166.22732684 13.54890648 167.20519492 12.63671875 168.18359375 C11.76660156 169.11300781 10.89648438 170.04242188 10 171 C5.90110365 175.58480758 1.91350127 180.2563621 -2 185 C-4.92506282 181.61308516 -6.27433746 177.94772386 -7.625 173.75 C-7.84373779 173.08411865 -8.06247559 172.4182373 -8.2878418 171.73217773 C-9.75691896 167.12254755 -10.70504158 162.81765414 -11 158 C-11.66 158 -12.32 158 -13 158 C-13.89178848 153.17422262 -14.74127696 148.34299614 -15.56347656 143.50488281 C-15.97358862 141.15155526 -16.41868515 138.80718448 -16.8671875 136.4609375 C-22.81772849 103.16988514 -20.7211009 64.31334585 -11 32 C-10.71656738 31.04907471 -10.43313477 30.09814941 -10.14111328 29.1184082 C-9.12480886 25.72170534 -8.0946578 22.32941672 -7.0625 18.9375 C-6.71509766 17.77927734 -6.36769531 16.62105469 -6.00976562 15.42773438 C-5.66751953 14.30560547 -5.32527344 13.18347656 -4.97265625 12.02734375 C-4.66593994 11.01406006 -4.35922363 10.00077637 -4.04321289 8.95678711 C-2.93553718 5.81729248 -1.54575081 2.94539678 0 0 Z " fill="#FCFDFB" transform="translate(158,8)"/>
<path d="M0 0 C0.495 0.99 0.495 0.99 1 2 C0.05180561 3.89638878 -0.90105329 5.79060771 -1.87890625 7.671875 C-7.28408144 18.89655936 -7.07853022 30.93260512 -7.1875 43.125 C-7.20063232 44.04313477 -7.21376465 44.96126953 -7.22729492 45.90722656 C-7.26019753 74.16297493 8.26845127 100.93549462 27 121 C29.02321924 123.31462941 31.01188118 125.65503934 33 128 C32.64808594 127.29617188 32.29617187 126.59234375 31.93359375 125.8671875 C30.88020753 123.76041506 29.82968786 121.65220812 28.78125 119.54296875 C27.61460463 117.22247018 26.42776028 114.91199158 25.21875 112.61328125 C20.86235775 104.23486896 17.71900882 96.0367058 15 87 C14.690625 86.0203125 14.38125 85.040625 14.0625 84.03125 C9.3985092 68.42481924 8.53478212 46.83122701 13 31 C13.99 30.34 14.98 29.68 16 29 C16.24234375 30.0621875 16.4846875 31.124375 16.734375 32.21875 C18.48578793 39.67680596 20.31190292 46.23848868 24 53 C24.79534275 55.31900497 25.40467247 57.61868988 26 60 C26.66 60 27.32 60 28 60 C28.32871094 60.85271484 28.32871094 60.85271484 28.6640625 61.72265625 C30.62299277 66.49257183 32.69704849 70.16299249 36.1875 73.94140625 C38.04302317 76.04886468 39.71078786 78.25847028 41.38085938 80.51416016 C51.29195948 93.84435642 63.4666203 104.95834298 76.9375 114.625 C77.68451172 115.1715625 78.43152344 115.718125 79.20117188 116.28125 C83.66236821 119.49916211 88.16940336 122.30956475 93.05688477 124.83740234 C95.05004258 126.02994129 96.3869134 127.3436816 98 129 C99.12301859 129.78068146 100.2722052 130.52472495 101.44140625 131.234375 C102.4320105 131.84224854 102.4320105 131.84224854 103.44262695 132.46240234 C104.14218506 132.88730957 104.84174316 133.3122168 105.5625 133.75 C110.06196293 136.51928436 114.52227211 139.28664446 118.8125 142.375 C122.71124428 145.17392959 126.72902707 147.72410171 130.80419922 150.25439453 C139.01704104 155.35604496 146.75793562 160.65417659 154.32080078 166.6875 C156.85302774 168.66674573 159.44849566 170.55781082 162.03759766 172.46166992 C168.50628685 177.22882906 174.56772917 182.14582958 180.43359375 187.64453125 C183.00310484 190.00284964 185.6539047 192.19420851 188.375 194.375 C193.81612788 198.76526628 198.91189551 203.46724831 204.01953125 208.234375 C206.26598689 210.32910924 208.54473428 212.37329669 210.875 214.375 C214.85074625 217.80936803 218.66789369 221.4074586 222.5 225 C239.64262892 241.03974068 257.88201518 256.1416682 278.06640625 268.22265625 C280.70995988 269.82427663 283.26380699 271.50294719 285.8125 273.25 C289.72009258 275.89847942 293.7339784 277.98333524 298 280 C298 280.66 298 281.32 298 282 C298.81210937 282.25136719 299.62421875 282.50273438 300.4609375 282.76171875 C304.63241636 284.22127592 308.60217148 285.99012763 312.625 287.8125 C314.2458722 288.53435185 315.86696591 289.25570652 317.48828125 289.9765625 C320.0399296 291.11519279 322.57686615 292.27138106 325.10546875 293.4609375 C332.35400918 296.74526895 339.77854756 298.53404635 347.52856445 300.21362305 C351.41606317 301.06876392 355.07115963 301.91724422 358.69921875 303.578125 C373.45610656 309.93493821 394.11356243 307.62960254 410 308 C406.48190531 310.76510739 402.92739039 312.4030513 398.75 313.9375 C398.04689697 314.19692383 397.34379395 314.45634766 396.61938477 314.72363281 C368.62410751 324.78136848 340.08400781 324.70848103 311 320 C310.14744629 319.86658203 309.29489258 319.73316406 308.41650391 319.59570312 C306.04622959 319.2221096 303.67888923 318.83490691 301.3125 318.4375 C300.62349609 318.32301514 299.93449219 318.20853027 299.22460938 318.09057617 C296.67963682 317.63487106 294.3783288 317.19087759 292.05908203 316.02075195 C289.94177886 314.97113794 288.05658799 314.4325019 285.75390625 313.921875 C284.92697266 313.73359131 284.10003906 313.54530762 283.24804688 313.35131836 C281.91870117 313.05366577 281.91870117 313.05366577 280.5625 312.75 C265.17911674 309.19802726 250.0536504 304.74790458 235 300 C235 299.34 235 298.68 235 298 C234.12907715 297.87093262 233.2581543 297.74186523 232.36083984 297.60888672 C229.19501694 297.03533141 226.28581282 296.24316796 223.2265625 295.2578125 C222.1540625 294.91363281 221.0815625 294.56945312 219.9765625 294.21484375 C218.87054688 293.85519531 217.76453125 293.49554687 216.625 293.125 C215.52671875 292.77308594 214.4284375 292.42117188 213.296875 292.05859375 C208.14578467 290.39715094 203.04154495 288.67765675 197.98925781 286.73730469 C193.00767084 284.89091384 187.9211645 283.32253309 182.86523438 281.69335938 C177.85490537 280.05008857 173.08432663 278.18451878 168.29321289 275.98852539 C164.10859493 274.18468018 159.77140411 272.83401508 155.4375 271.4375 C138.35248786 265.88209951 138.35248786 265.88209951 132.75 262.75 C127.72461306 260.16351801 122.52601736 258.37452551 117.1875 256.5625 C109.17113601 253.83206442 101.59523162 250.76690733 94 247 C93.12601562 246.5875 92.25203125 246.175 91.3515625 245.75 C69.67499604 235.31543506 49.23011527 222.73363452 31 207 C30.23171875 206.34257813 29.4634375 205.68515625 28.671875 205.0078125 C26.06516087 202.72046401 23.52731171 200.37498059 21 198 C20.41057617 197.44989258 19.82115234 196.89978516 19.21386719 196.33300781 C9.31647147 187.02337893 0.98423102 177.27219395 -6.62939453 166.02001953 C-7.85482373 164.21396303 -9.1052543 162.43017151 -10.37109375 160.65234375 C-14.47131807 154.7694132 -17.71098398 148.81971847 -20.56640625 142.2421875 C-21.94117646 139.02627131 -21.94117646 139.02627131 -23.52734375 136.1328125 C-29.10657511 125.42863834 -30.85930392 113.77901033 -33 102 C-33.20625 100.97390625 -33.4125 99.9478125 -33.625 98.890625 C-36.20190715 79.02696575 -33.79155884 56.50495224 -26 38 C-25.34 38 -24.68 38 -24 38 C-23.87044922 36.76443359 -23.87044922 36.76443359 -23.73828125 35.50390625 C-22.83610618 31.22215472 -21.218782 27.78953897 -19.1875 23.9375 C-18.79876709 23.19814209 -18.41003418 22.45878418 -18.00952148 21.69702148 C-13.7894092 14.05274943 -8.2153813 8.06023918 -2 2 C-1.34 1.34 -0.68 0.68 0 0 Z " fill="#E2E2E2" transform="translate(134,355)"/>
<path d="M0 0 C3.63000477 1.21000159 3.93048003 2.07592485 5.8125 5.296875 C6.33070313 6.1734375 6.84890625 7.05 7.3828125 7.953125 C7.91648437 8.87609375 8.45015625 9.7990625 9 10.75 C9.53367187 11.6575 10.06734375 12.565 10.6171875 13.5 C11.61732716 15.20173017 12.61382401 16.90561034 13.60546875 18.61230469 C14.58346195 20.28680985 15.57606107 21.95282941 16.5793457 23.61230469 C26.82718294 40.83585653 32.92078811 60.84636587 38.40698242 79.98779297 C39.20113302 82.68247771 40.10263243 85.33818818 41 88 C44.07574452 98.04850565 45.32840324 108.40096882 46.60327148 118.79858398 C46.89518062 121.15415596 47.20455183 123.50758036 47.52368164 125.85961914 C48.90053158 136.28659665 49.36495312 146.55023702 49.3125 157.0625 C49.31001251 157.86903015 49.30752502 158.6755603 49.30496216 159.50653076 C49.20960165 179.62933154 46.37634352 198.73285979 42.5 218.4375 C42.35070038 219.19701965 42.20140076 219.95653931 42.0475769 220.73907471 C40.47460817 228.6618976 38.80909267 236.40345975 36 244 C35.34 244 34.68 244 34 244 C33.91105469 244.92554688 33.82210937 245.85109375 33.73046875 246.8046875 C32.96506568 252.12377128 31.10040736 257.07754291 29.3125 262.125 C28.77882813 263.64782593 28.77882813 263.64782593 28.234375 265.20141602 C25.56801455 272.68860871 22.59542915 279.90447504 19 287 C18.34 287 17.68 287 17 287 C16.67 288.175625 16.34 289.35125 16 290.5625 C11.2571618 304.59430702 2.35851658 316.9315239 -6 329 C-6.43602539 329.63325195 -6.87205078 330.26650391 -7.32128906 330.91894531 C-13.37238688 339.67624168 -19.87353247 348.02664397 -26.59667969 356.27636719 C-27.88537597 357.85921266 -29.16575817 359.44881767 -30.4453125 361.0390625 C-34.1774128 365.6554235 -37.97918879 370.20825813 -41.875 374.6875 C-42.59429688 375.51636719 -43.31359375 376.34523438 -44.0546875 377.19921875 C-46 379 -46 379 -49 379 C-61.63508388 364.2227611 -66.18348241 340.96958588 -65.17285156 322.18798828 C-64.37330922 312.06722767 -62.48108676 302.16222204 -58 293 C-57.53207031 292.0411792 -57.53207031 292.0411792 -57.0546875 291.06298828 C-54.74701613 286.35256093 -52.38496772 281.67169878 -50 277 C-49.67 276.34 -49.34 275.68 -49 275 C-73.40078043 285.30761939 -90.54691825 302.8372995 -101 327 C-107.25484358 342.59367254 -107.14254172 361.90199765 -100.875 377.4375 C-100.52179688 378.24058594 -100.16859375 379.04367187 -99.8046875 379.87109375 C-99 382 -99 382 -99 385 C-115.82956177 382.28039401 -133.42865476 376.70974635 -147 366 C-147.66902344 365.49210937 -148.33804687 364.98421875 -149.02734375 364.4609375 C-158.72160659 356.60877067 -164.24081842 346.76155954 -168 335 C-168.20109375 334.37222656 -168.4021875 333.74445313 -168.609375 333.09765625 C-172.09745768 314.36665225 -166.12246123 296.08603184 -157 280 C-156.48179687 279.05382812 -155.96359375 278.10765625 -155.4296875 277.1328125 C-151.93602965 271.00459299 -147.851871 265.13598957 -143 260 C-142.34 260 -141.68 260 -141 260 C-140.74089844 259.40445312 -140.48179687 258.80890625 -140.21484375 258.1953125 C-138.90209487 255.82307818 -137.64218073 254.59581691 -135.5625 252.875 C-132.18740476 250.035055 -128.96058485 247.08723334 -125.75 244.0625 C-120.2134077 239.02160811 -114.33506165 234.96651107 -108 231 C-107.08605469 230.40058594 -106.17210937 229.80117188 -105.23046875 229.18359375 C-98.06616938 224.58961865 -90.6304353 220.69336016 -83.0625 216.8125 C-65.73421408 207.89803075 -48.84051662 198.7316011 -34 186 C-33.1028125 185.24203125 -32.205625 184.4840625 -31.28125 183.703125 C-21.14363678 174.87964682 -12.95320771 165.24276432 -6.06591797 153.75878906 C-5.05401214 152.08912126 -3.99878651 150.44593427 -2.94140625 148.8046875 C16.74665024 116.95071696 17.91676615 78.00781707 9.6875 42.375 C7.30575151 32.51664008 4.2354583 23.06220454 0.1875 13.75 C-1 11 -1 11 -1 9 C-1.99 8.67 -2.98 8.34 -4 8 C-4.25 5.6875 -4.25 5.6875 -4 3 C-2.1875 1.125 -2.1875 1.125 0 0 Z " fill="#FBFCFA" transform="translate(588,255)"/>
<path d="M0 0 C2.54233823 1.00269157 2.99381369 2.16575486 4.1237793 4.61401367 C4.62651367 5.66202148 4.62651367 5.66202148 5.1394043 6.73120117 C5.8737793 8.73901367 5.8737793 8.73901367 5.8737793 11.73901367 C4.46940658 12.7138631 3.05647115 13.67871061 1.6027832 14.57836914 C-1.42600728 16.6115335 -3.88996491 19.20822472 -6.4387207 21.80151367 C-7.00776123 22.37732178 -7.57680176 22.95312988 -8.16308594 23.54638672 C-13.17258287 28.67756611 -17.75096815 34.05561973 -22.1262207 39.73901367 C-22.82811523 40.64224365 -22.82811523 40.64224365 -23.54418945 41.5637207 C-30.32637579 50.31387435 -36.58249766 59.14325211 -42.1262207 68.73901367 C-42.50939453 69.39998047 -42.89256836 70.06094727 -43.28735352 70.74194336 C-44.51218666 72.8616586 -45.72778015 74.98633391 -46.9387207 77.11401367 C-47.312146 77.76821289 -47.68557129 78.42241211 -48.0703125 79.09643555 C-50.3801087 83.21159572 -52.29140087 87.38511799 -54.1262207 91.73901367 C-55.05225973 93.51586726 -55.98970915 95.28682276 -56.9387207 97.05151367 C-74.33845491 131.72241262 -79.33354347 171.16837702 -79.4387207 209.36401367 C-79.44233612 210.38228241 -79.44595154 211.40055115 -79.44967651 212.44967651 C-79.47526971 230.50134875 -78.10564128 247.93360896 -75.1262207 265.73901367 C-74.94115967 266.85139404 -74.75609863 267.96377441 -74.56542969 269.10986328 C-74.42049072 269.97748291 -74.27555176 270.84510254 -74.1262207 271.73901367 C-73.4662207 271.73901367 -72.8062207 271.73901367 -72.1262207 271.73901367 C-71.94559082 272.38225586 -71.76496094 273.02549805 -71.57885742 273.68823242 C-66.66289923 291.10370527 -61.51791462 307.71047091 -53.15356445 323.78588867 C-51.85807799 326.27622953 -50.66560569 328.75569646 -49.50512695 331.31713867 C-45.17685088 340.83883335 -39.54496266 349.41751198 -33.6887207 358.05151367 C-33.28616058 358.64734253 -32.88360046 359.24317139 -32.46884155 359.85705566 C-27.65829103 366.95158807 -22.64868988 373.75509148 -17.13720703 380.33178711 C-15.12339128 382.7424006 -13.1812552 385.19855118 -11.2512207 387.67651367 C-6.49180956 393.62577761 -1.37485109 399.22291612 3.8737793 404.73901367 C4.41309082 405.30700684 4.95240234 405.875 5.50805664 406.46020508 C12.72892122 414.01071329 20.16976644 420.86094998 28.5222168 427.14135742 C31.02205492 429.02952116 33.35450309 431.04135167 35.68237305 433.13745117 C40.03804301 436.99122679 44.72542335 440.208971 49.5612793 443.42651367 C54.47925994 446.72175206 59.25149001 450.03592964 63.8737793 453.73901367 C66.05592498 454.51734901 66.05592498 454.51734901 67.8737793 454.73901367 C67.8737793 455.39901367 67.8737793 456.05901367 67.8737793 456.73901367 C68.59073975 457.01898193 69.3077002 457.2989502 70.04638672 457.58740234 C74.85099071 459.5443419 79.50377566 461.82132693 84.1862793 464.05151367 C85.19368164 464.52524414 86.20108398 464.99897461 87.23901367 465.48706055 C91.59633318 467.56210977 95.84070438 469.62764034 99.8815918 472.27416992 C104.77363416 475.44390137 110.07989002 477.60250393 115.4362793 479.86401367 C116.43852539 480.29327148 117.44077148 480.7225293 118.47338867 481.16479492 C120.41618572 481.99614323 122.36031395 482.82438912 124.3059082 483.64916992 C126.37292982 484.5264455 128.43476143 485.41594444 130.49487305 486.30932617 C152.41492539 495.58416913 175.03914185 502.09430124 198.01831055 508.16088867 C201.72376049 509.14259464 205.39516393 510.18912154 209.05737305 511.32104492 C213.70148828 512.73295978 218.35858733 513.76623169 223.1237793 514.67651367 C223.98962646 514.84417236 224.85547363 515.01183105 225.74755859 515.18457031 C227.56502695 515.53466781 229.38298648 515.88222465 231.20141602 516.22729492 C233.70091318 516.70591232 236.19552806 517.20463947 238.69018555 517.70776367 C252.93027641 520.50575711 267.28804724 522.29757211 281.68359375 524.07666016 C282.93200043 524.23137787 282.93200043 524.23137787 284.20562744 524.38922119 C285.77785111 524.5833175 287.35030931 524.7755268 288.92303467 524.96551514 C292.6100404 525.41858782 296.24396037 525.94464193 299.8737793 526.73901367 C280.08213946 546.53065351 224.41751312 541.19412646 198.61206055 541.24667358 C179.25756491 541.21080735 160.78242201 539.96203118 141.8737793 535.73901367 C140.50866211 535.45429199 140.50866211 535.45429199 139.1159668 535.16381836 C133.00868367 533.87391804 133.00868367 533.87391804 131.8737793 532.73901367 C129.98829273 532.34507474 128.09604092 531.98353622 126.2019043 531.63354492 C116.74323244 529.65479844 107.69873393 526.56585661 98.56811523 523.43359375 C95.62000012 522.42522104 92.66534342 521.4380106 89.7097168 520.4519043 C73.05711282 514.81950917 73.05711282 514.81950917 65.83203125 509.98608398 C63.29466593 508.37021788 60.69735301 507.45507956 57.86547852 506.48168945 C54.05632634 505.0613118 50.51606259 503.08968469 46.9362793 501.17651367 C46.16993164 500.77754883 45.40358398 500.37858398 44.61401367 499.9675293 C43.88633789 499.58145508 43.15866211 499.19538086 42.40893555 498.79760742 C41.7528833 498.45012451 41.09683105 498.1026416 40.42089844 497.74462891 C38.8737793 496.73901367 38.8737793 496.73901367 37.8737793 494.73901367 C35.84914675 494.08688075 35.84914675 494.08688075 33.8737793 493.73901367 C33.8737793 493.07901367 33.8737793 492.41901367 33.8737793 491.73901367 C32.81670776 491.60221191 32.81670776 491.60221191 31.73828125 491.46264648 C28.29114925 490.59182919 26.00318718 489.12741174 23.04174805 487.16088867 C22.21808998 486.61662735 22.21808998 486.61662735 21.37779236 486.06137085 C19.59891709 484.88028079 17.82950533 483.68597861 16.0612793 482.48901367 C15.45596375 482.08229431 14.85064819 481.67557495 14.22698975 481.25653076 C4.3314836 474.59849384 -5.18042891 467.64555666 -14.1262207 459.73901367 C-14.68905762 459.24240234 -15.25189453 458.74579102 -15.83178711 458.23413086 C-19.67398829 454.81513831 -23.42223078 451.3068692 -27.1262207 447.73901367 C-27.67938965 447.20775879 -28.23255859 446.67650391 -28.80249023 446.12915039 C-36.12973667 439.05406042 -42.80641625 431.74174557 -49.1262207 423.73901367 C-50.56330648 422.03033187 -52.0008167 420.32200697 -53.4387207 418.61401367 C-66.13351204 403.0490956 -76.8256443 385.97668298 -86.3137207 368.30151367 C-86.70068115 367.58543945 -87.0876416 366.86936523 -87.48632812 366.1315918 C-90.1262207 361.10647433 -90.1262207 361.10647433 -90.1262207 357.73901367 C-90.7862207 357.73901367 -91.4462207 357.73901367 -92.1262207 357.73901367 C-92.36856445 357.03776367 -92.6109082 356.33651367 -92.8605957 355.61401367 C-94.65979842 350.52088598 -96.56729369 345.66239933 -99.06640625 340.87573242 C-102.66410596 333.62231895 -105.03053705 326.0520874 -107.0637207 318.23901367 C-107.57987472 316.28959007 -108.09681217 314.34037375 -108.61450195 312.39135742 C-108.86796387 311.43342285 -109.12142578 310.47548828 -109.38256836 309.48852539 C-110.05006902 307.02056989 -110.75265543 304.56826936 -111.48168945 302.11791992 C-113.9460182 293.79228289 -115.86742462 285.48076169 -117.3762207 276.92651367 C-117.53944824 276.00813721 -117.70267578 275.08976074 -117.87084961 274.14355469 C-120.18046368 260.35843 -120.36423958 246.55335432 -120.3762207 232.61401367 C-120.37756012 231.69192108 -120.37889954 230.76982849 -120.38027954 229.8197937 C-120.3745272 211.49501244 -119.96200545 193.09881556 -114.84887695 175.37988281 C-114.18639693 172.9589212 -113.68532107 170.57461205 -113.23950195 168.10620117 C-111.93981795 161.32535756 -109.93116091 154.73223823 -107.97753906 148.11743164 C-107.31775339 145.87770315 -106.66988643 143.63475572 -106.02270508 141.39135742 C-101.84503903 127.07396134 -95.9521458 113.97447381 -89.1262207 100.73901367 C-88.7058252 99.92287598 -88.28542969 99.10673828 -87.85229492 98.26586914 C-86.53283979 95.71213212 -85.20619411 93.1622871 -83.8762207 90.61401367 C-83.46412354 89.82051514 -83.05202637 89.0270166 -82.62744141 88.20947266 C-80.34996985 83.87752138 -78.06069951 79.66419259 -75.1262207 75.73901367 C-74.4662207 75.73901367 -73.8062207 75.73901367 -73.1262207 75.73901367 C-72.88387695 74.85987305 -72.6415332 73.98073242 -72.3918457 73.07495117 C-71.02122199 69.46225781 -69.38983905 67.27946896 -66.8762207 64.36401367 C-64.22483036 61.23705648 -61.63337909 58.13792849 -59.2512207 54.80151367 C-55.42820001 49.63043058 -50.97117154 45.01170525 -46.59057617 40.31665039 C-45.14536411 38.759638 -43.71362592 37.19140139 -42.28637695 35.61791992 C-29.58985863 21.6238502 -29.58985863 21.6238502 -25.1262207 17.73901367 C-24.4662207 17.73901367 -23.8062207 17.73901367 -23.1262207 17.73901367 C-23.1262207 17.07901367 -23.1262207 16.41901367 -23.1262207 15.73901367 C-20.97543477 13.88653369 -18.81726756 12.14578498 -16.5637207 10.42651367 C-15.95463867 9.9527832 -15.34555664 9.47905273 -14.71801758 8.9909668 C-13.48519698 8.03732462 -12.24602398 7.09183977 -11.00073242 6.15454102 C-9.73405134 5.19801368 -8.48059816 4.2237524 -7.23999023 3.23364258 C-2.63529015 -0.32347286 -2.63529015 -0.32347286 0 0 Z " fill="#FAFBFA" transform="translate(123.126220703125,181.260986328125)"/>
<path d="M0 0 C2.15517522 3.23276283 2.62206968 5.40956141 3.375 9.1875 C4.42257397 13.97868857 5.71042017 17.94022023 8.08203125 22.2109375 C9.52962964 25.03221436 10.23290605 27.93162419 11 31 C11.66 31 12.32 31 13 31 C13.21914062 31.56847656 13.43828125 32.13695312 13.6640625 32.72265625 C15.62299277 37.49257183 17.69704849 41.16299249 21.1875 44.94140625 C23.04302317 47.04886468 24.71078786 49.25847028 26.38085938 51.51416016 C36.29195948 64.84435642 48.4666203 75.95834298 61.9375 85.625 C62.68451172 86.1715625 63.43152344 86.718125 64.20117188 87.28125 C68.66236821 90.49916211 73.16940336 93.30956475 78.05688477 95.83740234 C80.05004258 97.02994129 81.3869134 98.3436816 83 100 C84.12301859 100.78068146 85.2722052 101.52472495 86.44140625 102.234375 C87.10180908 102.63962402 87.76221191 103.04487305 88.44262695 103.46240234 C89.14218506 103.88730957 89.84174316 104.3122168 90.5625 104.75 C95.06196293 107.51928436 99.52227211 110.28664446 103.8125 113.375 C107.71124428 116.17392959 111.72902707 118.72410171 115.80419922 121.25439453 C124.01704104 126.35604496 131.75793562 131.65417659 139.32080078 137.6875 C141.85302774 139.66674573 144.44849566 141.55781082 147.03759766 143.46166992 C153.50628685 148.22882906 159.56772917 153.14582958 165.43359375 158.64453125 C168.00310484 161.00284964 170.6539047 163.19420851 173.375 165.375 C178.81612788 169.76526628 183.91189551 174.46724831 189.01953125 179.234375 C191.26598689 181.32910924 193.54473428 183.37329669 195.875 185.375 C199.85074625 188.80936803 203.66789369 192.4074586 207.5 196 C224.64262892 212.03974068 242.88201518 227.1416682 263.06640625 239.22265625 C265.70995988 240.82427663 268.26380699 242.50294719 270.8125 244.25 C274.72009258 246.89847942 278.7339784 248.98333524 283 251 C283 251.66 283 252.32 283 253 C283.81210937 253.25136719 284.62421875 253.50273438 285.4609375 253.76171875 C289.63241636 255.22127592 293.60217148 256.99012763 297.625 258.8125 C299.2458722 259.53435185 300.86696591 260.25570652 302.48828125 260.9765625 C305.0399296 262.11519279 307.57686615 263.27138106 310.10546875 264.4609375 C317.35400918 267.74526895 324.77854756 269.53404635 332.52856445 271.21362305 C336.41606317 272.06876392 340.07115963 272.91724422 343.69921875 274.578125 C358.45610656 280.93493821 379.11356243 278.62960254 395 279 C391.48175842 281.76522285 387.92722122 283.40232075 383.75 284.9375 C383.05197266 285.19619873 382.35394531 285.45489746 381.63476562 285.72143555 C367.42735971 290.8425249 353.5217375 293.19841716 338.4375 293.1875 C337.28886475 293.18669434 336.14022949 293.18588867 334.95678711 293.18505859 C313.04130655 293.0275377 313.04130655 293.0275377 307 289 C305.09879571 288.44409231 303.17892286 287.95040838 301.25 287.5 C297.86190653 286.69272863 294.52950245 285.86116466 291.1875 284.875 C287.80301969 283.94592697 284.48063169 283.4261998 281 283 C281 282.34 281 281.68 281 281 C276.05 279.515 276.05 279.515 271 278 C271 277.34 271 276.68 271 276 C270.030625 275.938125 269.06125 275.87625 268.0625 275.8125 C262.41307465 275.02849811 257.00914654 272.00914654 253 268 C251.31301018 267.24223736 249.60109367 266.53888218 247.875 265.875 C246.96492187 265.52179688 246.05484375 265.16859375 245.1171875 264.8046875 C244.41851562 264.53914063 243.71984375 264.27359375 243 264 C243 263.34 243 262.68 243 262 C242.43152344 261.84144531 241.86304688 261.68289063 241.27734375 261.51953125 C236.50350501 260.07701904 232.87539392 258.42620342 228.94140625 255.38671875 C226.58204558 253.70146113 224.11858773 252.36770031 221.5625 251 C218.10413196 249.14662044 214.67324894 247.2759834 211.3125 245.25 C210.34763672 244.66992188 210.34763672 244.66992188 209.36328125 244.078125 C208.68845703 243.54445313 208.68845703 243.54445313 208 243 C208 242.34 208 241.68 208 241 C206.8553125 240.814375 206.8553125 240.814375 205.6875 240.625 C203 240 203 240 200 238 C200 237.34 200 236.68 200 236 C199.443125 235.896875 198.88625 235.79375 198.3125 235.6875 C195.5230899 234.85821592 193.3860936 233.65700944 191 232 C191 231.34 191 230.68 191 230 C190.29875 229.938125 189.5975 229.87625 188.875 229.8125 C185.74314324 228.92741005 184.31082365 227.54330709 181.9453125 225.39453125 C178.55001413 222.9605523 174.61110013 221.72780873 170.70703125 220.30859375 C167.75944425 218.88371403 166.8105235 217.65225811 165 215 C161.91666413 213.24927285 161.91666413 213.24927285 159 212 C159 211.34 159 210.68 159 210 C158.31550781 209.7525 157.63101563 209.505 156.92578125 209.25 C153.49186549 207.78290648 150.3595113 205.95200695 147.1875 204 C146.2912793 203.46632813 146.2912793 203.46632813 145.37695312 202.921875 C143.88109586 202.00555558 142.43522138 201.00864753 141 200 C141 199.34 141 198.68 141 198 C139.35 197.67 137.7 197.34 136 197 C136 196.34 136 195.68 136 195 C135.42507813 194.88398437 134.85015625 194.76796875 134.2578125 194.6484375 C131.81780321 193.94767359 130.02180115 192.97185244 127.875 191.625 C126.85019531 190.99464844 126.85019531 190.99464844 125.8046875 190.3515625 C124 189 124 189 122 186 C121.01 185.67 120.02 185.34 119 185 C119 184.34 119 183.68 119 183 C118.195625 182.814375 117.39125 182.62875 116.5625 182.4375 C112.43034612 180.77013966 109.55802898 178.47963102 106.1484375 175.65625 C104.16063761 174.12383699 102.27928959 173.03135276 100 172 C100 171.34 100 170.68 100 170 C99.21625 169.9175 98.4325 169.835 97.625 169.75 C96.75875 169.5025 95.8925 169.255 95 169 C94.690625 168.34 94.38125 167.68 94.0625 167 C93.711875 166.34 93.36125 165.68 93 165 C91.00714063 164.62633887 89.00636471 164.29259485 87 164 C86.34 163.01 85.68 162.02 85 161 C84.13375 160.484375 83.2675 159.96875 82.375 159.4375 C81.59125 158.963125 80.8075 158.48875 80 158 C80 157.34 80 156.68 80 156 C78.68 156 77.36 156 76 156 C76 155.34 76 154.68 76 154 C75.01 153.67 74.02 153.34 73 153 C73 152.34 73 151.68 73 151 C71.68 151 70.36 151 69 151 C69 150.34 69 149.68 69 149 C68.01 148.67 67.02 148.34 66 148 C64.64264858 146.69112542 63.31494512 145.35147138 62 144 C60.17906533 142.4351968 58.33885763 140.89678596 56.48828125 139.3671875 C55 138 55 138 54 136 C53.4225 135.731875 52.845 135.46375 52.25 135.1875 C49.237957 133.59781064 47.35419643 131.46369394 45 129 C43.87597364 127.89484219 42.75090903 126.79073972 41.625 125.6875 C38.44565731 122.51508398 35.49330943 119.18614855 32.56640625 115.78125 C30.93807122 113.88282572 30.93807122 113.88282572 28.75 111.8125 C26.73010648 109.72046742 25.46687377 107.50590935 24 105 C23.278125 104.13375 22.55625 103.2675 21.8125 102.375 C20 100 20 100 20 97 C18.515 96.505 18.515 96.505 17 96 C14.98567341 93.21995337 13.56168187 90.05199655 12 87 C11.15695313 85.42412109 11.15695313 85.42412109 10.296875 83.81640625 C5.91207786 75.41856651 2.73084249 67.07603533 0 58 C-0.309375 57.0203125 -0.61875 56.040625 -0.9375 55.03125 C-5.7335172 38.98303861 -5.98824816 18.32227489 -2 2 C-1.34 1.34 -0.68 0.68 0 0 Z " fill="#FCFCFB" transform="translate(149,384)"/>
<path d="M0 0 C2.36475778 0.01081257 4.7287695 -0.00001707 7.09350586 -0.01269531 C19.77171612 -0.02455705 30.19346122 1.83978078 41.78686523 6.88574219 C44.24804245 7.92700947 46.4336164 8.74009242 49.03686523 9.26074219 C49.03686523 10.25074219 49.03686523 11.24074219 49.03686523 12.26074219 C48.37686523 12.26074219 47.71686523 12.26074219 47.03686523 12.26074219 C46.79323242 12.82277344 46.54959961 13.38480469 46.29858398 13.96386719 C44.79505587 16.70094003 42.96986775 18.7187016 40.84936523 21.01074219 C38.04074659 24.0604823 35.3048728 27.12987469 32.66186523 30.32324219 C28.32886704 35.28377805 23.22347628 39.23210446 18.03686523 43.26074219 C16.71428711 44.30681641 16.71428711 44.30681641 15.36499023 45.37402344 C3.54046523 54.5096381 -9.10405783 62.72108033 -22.21313477 69.88574219 C-35.57157789 77.21117781 -47.64414714 86.08619514 -58.96313477 96.26074219 C-59.68758789 96.90140625 -60.41204102 97.54207031 -61.15844727 98.20214844 C-81.91477597 117.65595449 -95.09673218 146.61450903 -96.24047852 174.90917969 C-96.50821829 186.11376729 -95.7487914 196.37629845 -92.96313477 207.26074219 C-92.56196836 209.07206927 -92.16531449 210.88440923 -91.77563477 212.69824219 C-91.50750977 213.87386719 -91.23938477 215.04949219 -90.96313477 216.26074219 C-104.10665662 207.78662941 -113.69811926 196.43958239 -121.96313477 183.26074219 C-121.96313477 182.60074219 -121.96313477 181.94074219 -121.96313477 181.26074219 C-122.62313477 181.26074219 -123.28313477 181.26074219 -123.96313477 181.26074219 C-124.73585526 179.42820346 -125.50620438 177.59466476 -126.27563477 175.76074219 C-126.70489258 174.73980469 -127.13415039 173.71886719 -127.57641602 172.66699219 C-130.38860866 165.75929645 -132.7198911 158.92327094 -134.58813477 151.69824219 C-134.91297852 150.48104492 -134.91297852 150.48104492 -135.24438477 149.23925781 C-142.54439045 121.32349533 -136.57141453 92.12883312 -122.71313477 67.26074219 C-104.65652579 37.25603664 -74.7683967 16.32386022 -42.02563477 5.51074219 C-41.15688721 5.21675537 -40.28813965 4.92276855 -39.39306641 4.61987305 C-26.49328481 0.50570842 -13.41885446 -0.07292094 0 0 Z " fill="#FCFDFB" transform="translate(477.963134765625,365.7392578125)"/>
<path d="M0 0 C0 0.66 0 1.32 0 2 C-0.66 2 -1.32 2 -2 2 C-2.33 2.99 -2.66 3.98 -3 5 C-4.7421875 5.703125 -4.7421875 5.703125 -6.875 6.25 C-10.61377259 7.50292201 -10.85693531 7.72373715 -12.8125 11.5 C-13.4003125 13.2325 -13.4003125 13.2325 -14 15 C-14.97462414 16.02474767 -15.97824246 17.02224158 -17 18 C-22.84385733 25.58427973 -29.51140235 34.35873385 -31 44 C-31.66 44 -32.32 44 -33 44 C-33 45.98 -33 47.96 -33 50 C-33.66 50 -34.32 50 -35 50 C-35.20496094 50.77085937 -35.40992188 51.54171875 -35.62109375 52.3359375 C-35.89050781 53.33882812 -36.15992188 54.34171875 -36.4375 55.375 C-36.70433594 56.37273438 -36.97117187 57.37046875 -37.24609375 58.3984375 C-38 61 -38 61 -39 63 C-39.20222356 64.66272703 -39.36411387 66.33054185 -39.5 68 C-39.88888889 72.77777778 -39.88888889 72.77777778 -41 75 C-41.15266612 76.73868744 -41.24932596 78.48247501 -41.31640625 80.2265625 C-41.37924805 81.7734375 -41.37924805 81.7734375 -41.44335938 83.3515625 C-41.48267578 84.43179688 -41.52199219 85.51203125 -41.5625 86.625 C-41.62727539 88.25695312 -41.62727539 88.25695312 -41.69335938 89.921875 C-41.7996453 92.6144517 -41.90168057 95.30712253 -42 98 C-41.34 98 -40.68 98 -40 98 C-39.505 103.445 -39.505 103.445 -39 109 C-36.215707 106.215707 -36.05089931 103.113137 -35.375 99.375 C-35.2409375 98.66859375 -35.106875 97.9621875 -34.96875 97.234375 C-34.63889975 95.49088082 -34.31853944 93.74559611 -34 92 C-33.34 92 -32.68 92 -32 92 C-31.71125 91.05125 -31.4225 90.1025 -31.125 89.125 C-30 86 -30 86 -28 84 C-27.32558869 82.3364521 -26.6599679 80.66933058 -26 79 C-23.375 74.1875 -23.375 74.1875 -21 73 C-19.98648336 71.34151823 -18.98879205 69.67334039 -18 68 C-9.35502266 56.47336355 3.02770411 45.3353073 16 39 C17.35197858 37.68557638 18.69026002 36.3565164 20 35 C20.66 35 21.32 35 22 35 C22 34.34 22 33.68 22 33 C27.75 30 27.75 30 30 30 C30 29.34 30 28.68 30 28 C30.54527344 27.78085937 31.09054687 27.56171875 31.65234375 27.3359375 C35.98329966 25.51471502 39.79558395 23.54779718 43.625 20.8125 C47.5207596 18.09436896 50.2765833 17.20099646 55 17 C55 16.34 55 15.68 55 15 C57.97 14.34 60.94 13.68 64 13 C64 12.34 64 11.68 64 11 C64.85464844 10.72285156 65.70929688 10.44570313 66.58984375 10.16015625 C67.69457031 9.79792969 68.79929687 9.43570312 69.9375 9.0625 C71.59072266 8.52302734 71.59072266 8.52302734 73.27734375 7.97265625 C75.88123475 7.26143332 75.88123475 7.26143332 77 6 C78.66617115 5.95936168 80.33388095 5.957279 82 6 C80.57701102 7.66015381 79.15344741 9.31975301 77.7265625 10.9765625 C76.58425215 12.31528821 75.45376463 13.6642017 74.3359375 15.0234375 C73.81257812 15.65507812 73.28921875 16.28671875 72.75 16.9375 C72.27046875 17.52402344 71.7909375 18.11054688 71.296875 18.71484375 C70 20 70 20 68 20 C68 20.99 68 21.98 68 23 C67.34 23 66.68 23 66 23 C65.34 24.32 64.68 25.64 64 27 C63.34 27 62.68 27 62 27 C61.34 28.65 60.68 30.3 60 32 C59.34 32 58.68 32 58 32 C58 32.99 58 33.98 58 35 C57.34 35 56.68 35 56 35 C55.6596875 36.2375 55.6596875 36.2375 55.3125 37.5 C53.75058943 41.66509486 51.77149893 45.5000943 49 49 C48.34 49 47.68 49 47 49 C47 50.65 47 52.3 47 54 C46.34 53.67 45.68 53.34 45 53 C45.495 52.01 45.495 52.01 46 51 C21.59921957 61.30761939 4.45308175 78.8372995 -6 103 C-12.25484358 118.59367254 -12.14254172 137.90199765 -5.875 153.4375 C-5.52179688 154.24058594 -5.16859375 155.04367187 -4.8046875 155.87109375 C-4 158 -4 158 -4 161 C-20.82956177 158.28039401 -38.42865476 152.70974635 -52 142 C-52.66902344 141.49210938 -53.33804687 140.98421875 -54.02734375 140.4609375 C-63.72160659 132.60877067 -69.24081842 122.76155954 -73 111 C-73.20109375 110.37222656 -73.4021875 109.74445313 -73.609375 109.09765625 C-77.09745768 90.36665225 -71.12246123 72.08603184 -62 56 C-61.48179687 55.05382812 -60.96359375 54.10765625 -60.4296875 53.1328125 C-56.93602965 47.00459299 -52.851871 41.13598957 -48 36 C-47.34 36 -46.68 36 -46 36 C-45.74089844 35.40445313 -45.48179687 34.80890625 -45.21484375 34.1953125 C-43.90209487 31.82307818 -42.64218073 30.59581691 -40.5625 28.875 C-37.18740476 26.035055 -33.96058485 23.08723334 -30.75 20.0625 C-25.22009319 15.02142473 -19.31894618 10.98011545 -13 7 C-11.96617187 6.32324219 -10.93234375 5.64648438 -9.8671875 4.94921875 C-2.26978958 0 -2.26978958 0 0 0 Z " fill="#E2E2E2" transform="translate(493,479)"/>
<path d="M0 0 C0.99441856 -0.00143509 0.99441856 -0.00143509 2.00892639 -0.00289917 C3.42042129 -0.00358164 4.83191929 -0.00172275 6.2434082 0.00244141 C8.37002975 0.00771303 10.49643262 0.00253879 12.62304688 -0.00390625 C32.64696294 -0.01745084 32.64696294 -0.01745084 38.47265625 3.1328125 C39.83891357 3.61658455 41.21470945 4.0740469 42.59765625 4.5078125 C45.99418637 5.60833295 49.29426254 6.84071965 52.59765625 8.1953125 C55.53346521 9.39798813 58.40499782 10.44952906 61.47265625 11.2578125 C64.47265625 12.1328125 64.47265625 12.1328125 66.47265625 14.1328125 C68.52296997 14.93365078 70.59706126 15.58990269 72.6953125 16.25390625 C73.28183594 16.54394531 73.86835938 16.83398438 74.47265625 17.1328125 C74.80265625 18.1228125 75.13265625 19.1128125 75.47265625 20.1328125 C76.42140625 20.2771875 77.37015625 20.4215625 78.34765625 20.5703125 C81.47265625 21.1328125 81.47265625 21.1328125 83.47265625 22.1328125 C83.47265625 23.1228125 83.47265625 24.1128125 83.47265625 25.1328125 C84.11203125 25.2359375 84.75140625 25.3390625 85.41015625 25.4453125 C86.09078125 25.6721875 86.77140625 25.8990625 87.47265625 26.1328125 C87.80265625 27.1228125 88.13265625 28.1128125 88.47265625 29.1328125 C89.33890625 29.2875 89.33890625 29.2875 90.22265625 29.4453125 C93.19232197 30.35271036 94.26700151 32.19261192 96.11328125 34.5859375 C97.59814501 36.41251439 97.59814501 36.41251439 100.59765625 38.1953125 C103.67052646 40.26615982 104.71125204 41.94550965 106.47265625 45.1328125 C107.46265625 45.7928125 108.45265625 46.4528125 109.47265625 47.1328125 C109.47265625 48.1228125 109.47265625 49.1128125 109.47265625 50.1328125 C110.46265625 50.4628125 111.45265625 50.7928125 112.47265625 51.1328125 C113.13265625 51.7928125 113.79265625 52.4528125 114.47265625 53.1328125 C114.80265625 53.1328125 115.13265625 53.1328125 115.47265625 53.1328125 C115.47265625 54.7828125 115.47265625 56.4328125 115.47265625 58.1328125 C116.46265625 58.4628125 117.45265625 58.7928125 118.47265625 59.1328125 C118.82677969 60.46077541 119.15787179 61.79497857 119.47265625 63.1328125 C120.18421875 63.844375 120.18421875 63.844375 120.91015625 64.5703125 C122.47265625 66.1328125 122.47265625 66.1328125 124.47265625 71.1328125 C124.80265625 61.2328125 125.13265625 51.3328125 125.47265625 41.1328125 C125.80265625 41.1328125 126.13265625 41.1328125 126.47265625 41.1328125 C127.56350618 49.06311833 127.62171984 56.88567995 127.59765625 64.8828125 C127.60152344 66.18347656 127.60539062 67.48414063 127.609375 68.82421875 C127.60744141 70.70173828 127.60744141 70.70173828 127.60546875 72.6171875 C127.60434082 73.74866211 127.60321289 74.88013672 127.60205078 76.04589844 C127.48407768 78.86033592 127.11561936 81.39622868 126.47265625 84.1328125 C125.81265625 84.1328125 125.15265625 84.1328125 124.47265625 84.1328125 C123.17578125 82.62890625 123.17578125 82.62890625 121.72265625 80.5703125 C115.77795685 72.4444644 109.44946637 66.34417476 101.47265625 60.1328125 C100.65152344 59.46121094 99.83039063 58.78960937 98.984375 58.09765625 C90.61460088 51.55022797 81.1160425 47.43593467 71.47265625 43.1328125 C70.71114258 42.78669922 69.94962891 42.44058594 69.16503906 42.08398438 C61.17129795 38.4725814 53.52633994 35.72692337 44.91015625 34.0078125 C44.09869141 33.83894531 43.28722656 33.67007813 42.45117188 33.49609375 C16.72161962 28.22143171 -11.07108475 28.99987766 -35.36108398 39.35449219 C-37.52734375 40.1328125 -37.52734375 40.1328125 -40.52734375 40.1328125 C-40.52734375 40.7928125 -40.52734375 41.4528125 -40.52734375 42.1328125 C-41.53539062 42.535 -42.5434375 42.9371875 -43.58203125 43.3515625 C-60.37159106 50.56997697 -73.85047436 64.34930775 -86.46484375 77.1328125 C-97.86254524 88.6796791 -109.16618314 98.42618236 -123.52734375 106.1328125 C-123.85734375 105.1428125 -124.18734375 104.1528125 -124.52734375 103.1328125 C-125.49873291 103.34611206 -125.49873291 103.34611206 -126.48974609 103.5637207 C-133.78082243 105.04227171 -140.72709632 105.40707738 -148.15234375 105.3203125 C-149.23902344 105.31966797 -150.32570313 105.31902344 -151.4453125 105.31835938 C-159.38652209 105.27363416 -159.38652209 105.27363416 -160.52734375 104.1328125 C-162.47855468 103.76004385 -164.43883505 103.43416635 -166.40234375 103.1328125 C-169.59025268 102.64118317 -172.46451548 102.15375526 -175.52734375 101.1328125 C-175.52734375 100.1428125 -175.52734375 99.1528125 -175.52734375 98.1328125 C-168.92734375 98.1328125 -162.32734375 98.1328125 -155.52734375 98.1328125 C-155.52734375 97.4728125 -155.52734375 96.8128125 -155.52734375 96.1328125 C-152.88734375 96.1328125 -150.24734375 96.1328125 -147.52734375 96.1328125 C-147.52734375 95.4728125 -147.52734375 94.8128125 -147.52734375 94.1328125 C-146.28071044 93.62447659 -145.02984988 93.12650105 -143.77734375 92.6328125 C-143.08125 92.354375 -142.38515625 92.0759375 -141.66796875 91.7890625 C-139.52734375 91.1328125 -139.52734375 91.1328125 -135.52734375 91.1328125 C-135.52734375 90.4728125 -135.52734375 89.8128125 -135.52734375 89.1328125 C-133.89669611 88.07509511 -132.22453502 87.08008204 -130.52734375 86.1328125 C-129.53734375 85.4728125 -128.54734375 84.8128125 -127.52734375 84.1328125 C-126.53734375 84.1328125 -125.54734375 84.1328125 -124.52734375 84.1328125 C-124.52734375 83.4728125 -124.52734375 82.8128125 -124.52734375 82.1328125 C-123.53734375 82.1328125 -122.54734375 82.1328125 -121.52734375 82.1328125 C-121.03234375 80.6478125 -121.03234375 80.6478125 -120.52734375 79.1328125 C-119.86734375 79.1328125 -119.20734375 79.1328125 -118.52734375 79.1328125 C-118.15416016 78.25689453 -118.15416016 78.25689453 -117.7734375 77.36328125 C-116.35238938 74.81964966 -114.7954146 73.33873552 -112.58984375 71.4453125 C-111.90019531 70.84332031 -111.21054687 70.24132812 -110.5 69.62109375 C-108.52734375 68.1328125 -108.52734375 68.1328125 -105.52734375 67.1328125 C-104.31852279 65.13264784 -104.31852279 65.13264784 -103.52734375 63.1328125 C-102.86734375 63.1328125 -102.20734375 63.1328125 -101.52734375 63.1328125 C-101.42421875 62.4934375 -101.32109375 61.8540625 -101.21484375 61.1953125 C-100.98796875 60.5146875 -100.76109375 59.8340625 -100.52734375 59.1328125 C-99.53734375 58.8028125 -98.54734375 58.4728125 -97.52734375 58.1328125 C-96.83839485 56.810855 -96.17621255 55.47489726 -95.52734375 54.1328125 C-94.11073511 52.45093158 -92.64778289 50.80750519 -91.15234375 49.1953125 C-88.77618788 46.62445489 -86.49723903 44.09363289 -84.36328125 41.31640625 C-83.75742187 40.59582031 -83.1515625 39.87523437 -82.52734375 39.1328125 C-81.86734375 39.1328125 -81.20734375 39.1328125 -80.52734375 39.1328125 C-80.52734375 38.4728125 -80.52734375 37.8128125 -80.52734375 37.1328125 C-79.80546875 36.9265625 -79.08359375 36.7203125 -78.33984375 36.5078125 C-74.7191349 34.73768817 -73.05920273 32.23433975 -70.52734375 29.1328125 C-66.22734375 26.1328125 -66.22734375 26.1328125 -63.52734375 26.1328125 C-63.12515625 25.2046875 -63.12515625 25.2046875 -62.71484375 24.2578125 C-61.52734375 22.1328125 -61.52734375 22.1328125 -58.52734375 20.1328125 C-57.53734375 20.1328125 -56.54734375 20.1328125 -55.52734375 20.1328125 C-55.03234375 18.6478125 -55.03234375 18.6478125 -54.52734375 17.1328125 C-52.4609375 16.18359375 -52.4609375 16.18359375 -49.96484375 15.4453125 C-49.13855469 15.19394531 -48.31226563 14.94257813 -47.4609375 14.68359375 C-46.82285156 14.50183594 -46.18476563 14.32007813 -45.52734375 14.1328125 C-45.52734375 13.4728125 -45.52734375 12.8128125 -45.52734375 12.1328125 C-44.74359375 11.8853125 -43.95984375 11.6378125 -43.15234375 11.3828125 C-40.24565748 10.38050689 -37.43278652 9.29603183 -34.58984375 8.1328125 C-30.62140245 6.52398495 -26.65962543 5.26716433 -22.52734375 4.1328125 C-21.38265625 3.606875 -21.38265625 3.606875 -20.21484375 3.0703125 C-16.71338493 1.84887338 -13.32180604 1.64602057 -9.63671875 1.37890625 C-6.19736833 0.9776487 -3.92762886 0.00360215 0 0 Z " fill="#E2E3E2" transform="translate(424.52734375,286.8671875)"/>
<path d="M0 0 C-2.26999825 0.50377768 -4.54103003 1.00290019 -6.8125 1.5 C-8.70935547 1.91765625 -8.70935547 1.91765625 -10.64453125 2.34375 C-14 3 -14 3 -17 3 C-17.2784375 4.1446875 -17.2784375 4.1446875 -17.5625 5.3125 C-19.25661135 8.47975165 -20.71355808 8.97549757 -23.99609375 10.1953125 C-29.96994091 12.5941673 -34.11595878 15.91056668 -38 21 C-38.74378906 21.433125 -39.48757813 21.86625 -40.25390625 22.3125 C-43.49022823 24.30124978 -46.08333112 26.70225274 -48.75 29.375 C-49.26933105 29.8915918 -49.78866211 30.40818359 -50.32373047 30.94042969 C-54.99650186 35.72941062 -58.65551143 40.95695191 -62.2578125 46.578125 C-63.12019531 47.77695312 -63.12019531 47.77695312 -64 49 C-64.66 49 -65.32 49 -66 49 C-66.11988281 49.59167969 -66.23976563 50.18335938 -66.36328125 50.79296875 C-67 53 -67 53 -69.1875 56.3125 C-73.12200521 62.39620025 -75.42094303 69.26737889 -78 76 C-78.72557614 77.81394034 -79.45420956 79.62666445 -80.1875 81.4375 C-80.496875 82.22253906 -80.80625 83.00757813 -81.125 83.81640625 C-81.68324828 85.20953476 -82.26444953 86.59383087 -82.875 87.96484375 C-85.36727694 93.82409098 -85.6947445 99.6843689 -86 106 C-86.66 106 -87.32 106 -88 106 C-88.04980921 111.51349605 -88.08591163 117.02685821 -88.10986328 122.54052734 C-88.11985894 124.41229538 -88.13345997 126.28404805 -88.15087891 128.15576172 C-88.17541268 130.86169246 -88.18654768 133.56741499 -88.1953125 136.2734375 C-88.20563507 137.09677582 -88.21595764 137.92011414 -88.22659302 138.7684021 C-88.22806894 146.585374 -86.96828313 153.76480986 -84 161 C-82.83061121 165.42125077 -82 169.40841273 -82 174 C-81.34 174 -80.68 174 -80 174 C-79.34 170.04 -78.68 166.08 -78 162 C-77.67 162 -77.34 162 -77 162 C-77.02356567 163.15447632 -77.02356567 163.15447632 -77.04760742 164.33227539 C-77.47909667 184.86470664 -77.47909667 184.86470664 -74 205 C-73.59625098 206.81075316 -73.19932178 208.6230554 -72.8125 210.4375 C-72.544375 211.613125 -72.27625 212.78875 -72 214 C-85.14352185 205.52588723 -94.7349845 194.17884021 -103 181 C-103 180.34 -103 179.68 -103 179 C-103.66 179 -104.32 179 -105 179 C-105.7727205 177.16746128 -106.54306961 175.33392258 -107.3125 173.5 C-107.74175781 172.4790625 -108.17101562 171.458125 -108.61328125 170.40625 C-111.4254739 163.49855426 -113.75675633 156.66252875 -115.625 149.4375 C-115.94984375 148.22030273 -115.94984375 148.22030273 -116.28125 146.97851562 C-123.58125568 119.06275315 -117.60827976 89.86809093 -103.75 65 C-85.61051894 34.85758572 -55.57724495 13.86887433 -22.625 3.1875 C-21.23390015 2.73395142 -21.23390015 2.73395142 -19.81469727 2.27124023 C-5.74392068 -2.15397025 -5.74392068 -2.15397025 0 0 Z " fill="#E1E1E1" transform="translate(459,368)"/>
<path d="M0 0 C1.14210938 -0.01224609 2.28421875 -0.02449219 3.4609375 -0.03710938 C13.24971915 -0.05398658 21.20724293 1.57039717 30.25 5.1875 C28.71086372 9.54152724 26.44394114 13.27626641 23.9375 17.125 C23.55916016 17.71990234 23.18082031 18.31480469 22.79101562 18.92773438 C22.02088551 20.12006781 21.22841594 21.29826165 20.41455078 22.46118164 C19.05130563 24.41941394 19.05130563 24.41941394 17.41015625 27.6171875 C15.38834052 29.96692855 14.2622735 30.18585118 11.12963867 30.60668945 C7.79268264 30.66092606 4.4987867 30.61468939 1.16662598 30.46765137 C-2.46054206 30.31254288 -6.08882859 30.26383574 -9.71875 30.21484375 C-10.77917511 30.19836288 -10.77917511 30.19836288 -11.86102295 30.18154907 C-23.26209666 30.06140901 -33.75073386 32.44682582 -44.4296875 36.41796875 C-46.75 37.1875 -46.75 37.1875 -49.75 37.1875 C-49.75 37.8475 -49.75 38.5075 -49.75 39.1875 C-50.27207031 39.39503906 -50.79414063 39.60257812 -51.33203125 39.81640625 C-65.33408685 45.67716157 -76.96743905 55.04070659 -87.5625 65.75 C-88.29919922 66.47896484 -89.03589844 67.20792969 -89.79492188 67.95898438 C-93.64404426 71.82201506 -96.85553851 75.57240145 -99.75 80.1875 C-100.08 80.1875 -100.41 80.1875 -100.75 80.1875 C-100.75 69.6275 -100.75 59.0675 -100.75 48.1875 C-100.42 48.1875 -100.09 48.1875 -99.75 48.1875 C-99.42 54.1275 -99.09 60.0675 -98.75 66.1875 C-98.04875 64.74375 -97.3475 63.3 -96.625 61.8125 C-93.93356858 56.42963717 -90.93767267 51.28953256 -87.75 46.1875 C-87.35425781 45.55199219 -86.95851563 44.91648437 -86.55078125 44.26171875 C-84.02262742 40.32381371 -84.02262742 40.32381371 -81.75 39.1875 C-81.37875 38.48625 -81.0075 37.785 -80.625 37.0625 C-78.40374475 33.65657529 -75.78723239 31.43078924 -72.6875 28.8359375 C-70.74739419 27.24049487 -70.74739419 27.24049487 -69.12890625 25.50390625 C-67.75 24.1875 -67.75 24.1875 -65.6875 23.75 C-65.048125 23.564375 -64.40875 23.37875 -63.75 23.1875 C-63.481875 22.57132812 -63.21375 21.95515625 -62.9375 21.3203125 C-61.36403136 18.49428001 -59.71771541 17.85235431 -56.8125 16.5 C-55.93722656 16.08363281 -55.06195313 15.66726563 -54.16015625 15.23828125 C-51.75 14.1875 -51.75 14.1875 -48.75 13.1875 C-48.75 12.5275 -48.75 11.8675 -48.75 11.1875 C-46.77 10.8575 -44.79 10.5275 -42.75 10.1875 C-42.42 9.1975 -42.09 8.2075 -41.75 7.1875 C-39.51269531 6.31201172 -39.51269531 6.31201172 -36.578125 5.6171875 C-35.52109375 5.36066406 -34.4640625 5.10414063 -33.375 4.83984375 C-32.26125 4.58332031 -31.1475 4.32679688 -30 4.0625 C-28.90171875 3.79824219 -27.8034375 3.53398437 -26.671875 3.26171875 C-23.70163411 2.55160048 -20.73018094 1.85463373 -17.75 1.1875 C-16.92822266 0.99905518 -16.10644531 0.81061035 -15.25976562 0.61645508 C-10.22527956 -0.24401107 -5.09409508 0.00283636 0 0 Z " fill="#E1E2E3" transform="translate(196.75,288.8125)"/>
<path d="M0 0 C1.00426025 0.24786255 1.00426025 0.24786255 2.02880859 0.50073242 C6.2069899 1.60696657 9.89063948 3.13307469 13.6875 5.1875 C13.6875 5.8475 13.6875 6.5075 13.6875 7.1875 C13.09324219 7.36023438 12.49898438 7.53296875 11.88671875 7.7109375 C2.7447725 10.81038428 -4.63379933 16.94574066 -10.0625 24.9375 C-16.37375351 34.05375506 -24.66747166 37.25642395 -35.26953125 39.47875977 C-49.0632447 42.39749711 -60.51824003 47.89261611 -71.078125 57.3046875 C-73.10416058 59.01194126 -74.89701843 60.13488189 -77.3125 61.1875 C-74.88958625 43.6213753 -66.48731625 23.53240641 -52.3125 12.1875 C-36.60154126 0.59744847 -19.3275517 -4.79076075 0 0 Z " fill="#061521" transform="translate(392.3125,218.8125)"/>
<path d="M0 0 C2 2 2 2 2 5 C2.66 5 3.32 5 4 5 C4.14695312 5.90878906 4.14695312 5.90878906 4.296875 6.8359375 C5.2975497 12.44316643 6.8405625 17.38684502 9.05859375 22.625 C9.91730587 24.79137746 10.53585847 26.85911375 11.0625 29.125 C11.74772576 31.95726648 12.44151395 34.13077299 13.5625 36.75 C15.6291483 41.96880885 15.73158932 47.44667553 16 53 C16.66 53 17.32 53 18 53 C18.495 62.405 18.495 62.405 19 72 C19.66 72 20.32 72 21 72 C21.33 69.03 21.66 66.06 22 63 C22.66 63 23.32 63 24 63 C18.48341931 90.27487104 18.48341931 90.27487104 14 97 C12.9849911 98.99242489 11.98126556 100.99074195 11 103 C10.34 103 9.68 103 9 103 C7.48015117 101.32464541 6.03293547 99.58294378 4.625 97.8125 C3.85414063 96.84957031 3.08328125 95.88664062 2.2890625 94.89453125 C0.82766867 93.04659128 -0.62508423 91.19176255 -2.06640625 89.328125 C-3.79169314 87.25080988 -5.46578948 85.6214353 -7.5625 83.9375 C-12.70391061 79.59217877 -12.70391061 79.59217877 -14 77 C-13.56438769 71.29258975 -11.21156959 66.35413377 -9.0625 61.125 C-5.81254992 52.984778 -3.94574496 45.58179728 -3.25390625 36.859375 C-3 34 -3 34 -2 33 C-0.83693879 25.71148305 -0.72319959 18.23761896 -0.4375 10.875 C-0.39431641 9.823125 -0.35113281 8.77125 -0.30664062 7.6875 C-0.20181491 5.12509373 -0.09964645 2.56261201 0 0 Z " fill="#E2E1DF" transform="translate(495,103)"/>
<path d="M0 0 C1.18299683 0.01522705 1.18299683 0.01522705 2.38989258 0.03076172 C11.36838265 0.26920232 18.1238144 1.75508014 24.84765625 7.97265625 C27.72125736 11.12746604 27.69768228 14.46780847 27.66796875 18.57421875 C26.23432188 25.96936122 19.102028 32.17836332 13.125 36.375 C7.49758079 39.51336841 2.44159426 40.25400826 -3.875 39.375 C-11.47395167 36.36162262 -16.2929143 30.0867482 -20.875 23.5 C-22.52954608 18.32954351 -23.25687824 12.54820188 -21.03125 7.4375 C-16.02904002 0.67775679 -7.74317679 -0.14436009 0 0 Z " fill="#061520" transform="translate(236.875,337.625)"/>
<path d="M0 0 C0.33 0 0.66 0 1 0 C1.00410889 1.29284912 1.00821777 2.58569824 1.01245117 3.91772461 C0.80161679 39.75735916 0.80161679 39.75735916 7.86816406 74.70458984 C8.29307129 76.03224365 8.29307129 76.03224365 8.7265625 77.38671875 C8.99291504 78.17651123 9.25926758 78.96630371 9.53369141 79.7800293 C10.06002389 82.28575771 9.90062624 83.61937367 9 86 C6.9609375 88.515625 6.9609375 88.515625 4.375 91.25 C3.46166383 92.22732684 2.54890648 93.20519492 1.63671875 94.18359375 C0.76660156 95.11300781 -0.10351562 96.04242188 -1 97 C-5.09889635 101.58480758 -9.08649873 106.2563621 -13 111 C-15.78540623 107.86459508 -16.33120999 106.03558983 -16.125 101.875 C-16.02296877 98.34100932 -16.04494367 95.00516359 -16.5 91.5 C-17.05605046 86.47942842 -17.14850263 81.48375988 -17.1875 76.4375 C-17.20039063 75.64601563 -17.21328125 74.85453125 -17.2265625 74.0390625 C-17.23585237 68.43727096 -16.36252736 63.41891665 -15 58 C-14.50552626 55.5207636 -14.03091129 53.03894024 -13.5625 50.5546875 C-12.24031441 44.54976128 -10.30288327 38.8360022 -8.0625 33.125 C-7.81048828 32.44953125 -7.55847656 31.7740625 -7.29882812 31.078125 C-6.61984865 29.34855068 -5.81761462 27.66851635 -5 26 C-4.01 25.67 -3.02 25.34 -2 25 C-1.97494385 24.31373535 -1.9498877 23.6274707 -1.92407227 22.92041016 C-1.80828573 19.82174183 -1.68548115 16.72339077 -1.5625 13.625 C-1.52318359 12.54476562 -1.48386719 11.46453125 -1.44335938 10.3515625 C-1.40146484 9.3203125 -1.35957031 8.2890625 -1.31640625 7.2265625 C-1.27974854 6.27346191 -1.24309082 5.32036133 -1.20532227 4.33837891 C-1 2 -1 2 0 0 Z " fill="#DFDFDF" transform="translate(169,82)"/>
<path d="M0 0 C0 0.66 0 1.32 0 2 C0.93070312 1.93941406 1.86140625 1.87882813 2.8203125 1.81640625 C8.07061592 1.81772874 12.88603204 3.44012431 17.875 4.9375 C18.83664062 5.21529297 19.79828125 5.49308594 20.7890625 5.77929688 C27.84817526 7.84817526 27.84817526 7.84817526 29 9 C40.22913598 11.07107984 51.61549313 11.53432588 63 12 C63 12.33 63 12.66 63 13 C46.70240137 13.40202805 31.09209976 12.60518932 15 10 C14.14744629 9.86658203 13.29489258 9.73316406 12.41650391 9.59570312 C10.04622959 9.2221096 7.67888923 8.83490691 5.3125 8.4375 C4.62349609 8.32301514 3.93449219 8.20853027 3.22460938 8.09057617 C-0.18111034 7.48074489 -2.96734781 6.648623 -6 5 C-7.99110401 4.61709538 -9.99100513 4.27395385 -12 4 C-12 3.34 -12 2.68 -12 2 C-7.82262526 0.40861915 -4.46839215 -0.21278058 0 0 Z " fill="#DEE1E2" transform="translate(430,665)"/>
<path d="M0 0 C0.99 0.66 1.98 1.32 3 2 C3.30405452 5.00421163 3.41986292 7.79841386 3.3984375 10.8046875 C3.40130768 11.68021271 3.40417786 12.55573792 3.40713501 13.45779419 C3.4091787 15.31220139 3.40362761 17.16663 3.39111328 19.02099609 C3.37510197 21.85693825 3.3909315 24.69144688 3.41015625 27.52734375 C3.40817312 29.32812814 3.40432799 31.12891165 3.3984375 32.9296875 C3.40451019 33.77771942 3.41058289 34.62575134 3.4168396 35.4994812 C3.37426926 39.07416571 3.33361607 41.38827357 1.60009766 44.56689453 C0 46 0 46 -2 46 C-1.90150757 45.12541138 -1.90150757 45.12541138 -1.80102539 44.2331543 C-0.86641487 35.10589729 -0.66554371 25.97799567 -0.4375 16.8125 C-0.39420212 15.17642374 -0.3505847 13.54035591 -0.30664062 11.90429688 C-0.20074659 7.93628532 -0.09916477 3.96818519 0 0 Z " fill="#081723" transform="translate(637,396)"/>
<path d="M0 0 C1.6045556 0.14148989 3.20863767 0.28835686 4.8125 0.4375 C5.70582031 0.51871094 6.59914063 0.59992187 7.51953125 0.68359375 C10 1 10 1 13 2 C16.61871395 2.025331 20.22300008 1.97267612 23.83984375 1.87304688 C29.68050882 1.78700588 29.68050882 1.78700588 33 4 C44.14128801 6.29115197 55.66974412 6.53654497 67 7 C67 7.33 67 7.66 67 8 C50.70052348 8.40207437 35.09436478 7.59691721 19 5 C17.70521729 4.79987305 17.70521729 4.79987305 16.38427734 4.59570312 C13.98295118 4.22291567 11.58480774 3.83524453 9.1875 3.4375 C8.48173828 3.32301514 7.77597656 3.20853027 7.04882812 3.09057617 C2.23775994 2.23775994 2.23775994 2.23775994 0 0 Z " fill="#8C929A" transform="translate(426,670)"/>
<path d="M0 0 C1.43088528 2.86177057 0.59991697 4.93375773 0 8 C1.32 8.33 2.64 8.66 4 9 C2.576875 9.8971875 2.576875 9.8971875 1.125 10.8125 C-1.91044395 12.93731076 -3.66138958 14.32930897 -4.4140625 18.04296875 C-4.48367187 18.75066406 -4.55328125 19.45835937 -4.625 20.1875 C-4.74875 21.445625 -4.8725 22.70375 -5 24 C-5.433125 23.34 -5.86625 22.68 -6.3125 22 C-7.1478125 21.01 -7.1478125 21.01 -8 20 C-8.99 20 -9.98 20 -11 20 C-9.317574 12.09259781 -4.80482689 6.3538457 0 0 Z " fill="#DDE6E6" transform="translate(220,331)"/>
<path d="M0 0 C2.79031606 3.25536873 4.42852964 6.05117705 6 10 C7.5757861 12.88428697 9.21119587 15.72850995 10.85546875 18.57421875 C11.23316406 19.37472656 11.61085937 20.17523438 12 21 C11.67 21.66 11.34 22.32 11 23 C6.38 18.05 1.76 13.1 -3 8 C-2.34 7.34 -1.68 6.68 -1 6 C-0.60235737 4.01178687 -0.26224651 2.01055661 0 0 Z " fill="#242A38" transform="translate(156,461)"/>
<path d="M0 0 C0.33 0.99 0.66 1.98 1 3 C-1.11905463 5.17277714 -3.24472878 7.33826908 -5.375 9.5 C-5.97828125 10.12003906 -6.5815625 10.74007812 -7.203125 11.37890625 C-7.78320312 11.96542969 -8.36328125 12.55195313 -8.9609375 13.15625 C-9.49509277 13.70087891 -10.02924805 14.24550781 -10.57958984 14.80664062 C-12 16 -12 16 -14 16 C-14.39832031 16.87398437 -14.39832031 16.87398437 -14.8046875 17.765625 C-16.03302996 20.06174228 -17.40314939 21.80356018 -19.125 23.75 C-19.93324219 24.67039063 -19.93324219 24.67039063 -20.7578125 25.609375 C-21.16773438 26.06828125 -21.57765625 26.5271875 -22 27 C-22.99 26.67 -23.98 26.34 -25 26 C-16.90196051 17.08486103 -8.57832717 8.45380307 0 0 Z " fill="#C4D2D8" transform="translate(207,160)"/>
<path d="M0 0 C0.33 0 0.66 0 1 0 C1.33 6.27 1.66 12.54 2 19 C2.66 19 3.32 19 4 19 C4.495 14.545 4.495 14.545 5 10 C5.66 10 6.32 10 7 10 C6.41747805 13.15024665 5.80541077 16.29401941 5.1875 19.4375 C5.02185547 20.33533203 4.85621094 21.23316406 4.68554688 22.15820312 C4.51474609 23.01220703 4.34394531 23.86621094 4.16796875 24.74609375 C4.01610107 25.53685303 3.8642334 26.3276123 3.70776367 27.14233398 C3.47420166 27.75536377 3.24063965 28.36839355 3 29 C2.01 29.33 1.02 29.66 0 30 C-1.2207022 23.62522182 -0.91131144 17.52152558 -0.5625 11.0625 C-0.51029297 9.99708984 -0.45808594 8.93167969 -0.40429688 7.83398438 C-0.27546928 5.22229771 -0.14054502 2.6110779 0 0 Z " fill="#F6F3F1" transform="translate(512,156)"/>
<path d="M0 0 C0 0.66 0 1.32 0 2 C-0.66 2 -1.32 2 -2 2 C-2.33 2.99 -2.66 3.98 -3 5 C-4.7421875 5.703125 -4.7421875 5.703125 -6.875 6.25 C-9.07450419 6.91517428 -9.07450419 6.91517428 -11 8 C-12.79271391 11.48797488 -12.79271391 11.48797488 -14 15 C-16.1875 16.4375 -16.1875 16.4375 -18 17 C-18.66 15.35 -19.32 13.7 -20 12 C-3.12391931 0 -3.12391931 0 0 0 Z " fill="#CDCFD5" transform="translate(493,479)"/>
<path d="M0 0 C1.22965988 -0.00143509 1.22965988 -0.00143509 2.48416138 -0.00289917 C4.21388832 -0.00357787 5.94361784 -0.00174522 7.67333984 0.00244141 C10.30442103 0.00778025 12.93533044 0.002493 15.56640625 -0.00390625 C17.25260454 -0.00324515 18.93880272 -0.00196331 20.625 0 C21.40438934 -0.00202423 22.18377869 -0.00404846 22.98678589 -0.00613403 C27.57383825 0.01329711 31.91930179 0.37810265 36.4453125 1.1328125 C36.4453125 1.4628125 36.4453125 1.7928125 36.4453125 2.1328125 C32.8153125 2.4628125 29.1853125 2.7928125 25.4453125 3.1328125 C25.4453125 2.4728125 25.4453125 1.8128125 25.4453125 1.1328125 C12.5753125 1.4628125 -0.2946875 1.7928125 -13.5546875 2.1328125 C-13.5546875 1.8028125 -13.5546875 1.4728125 -13.5546875 1.1328125 C-9.04525274 0.00461354 -4.61745964 -0.0119305 0 0 Z " fill="#CFD4D4" transform="translate(314.5546875,100.8671875)"/>
<path d="M0 0 C0 0.99 0 1.98 0 3 C-1.62053812 4.38903267 -3.29705213 5.71332828 -5 7 C-6.68997323 8.64302953 -8.35216394 10.31471312 -10 12 C-11.60281465 13.60551754 -13.20707763 15.20959002 -14.8125 16.8125 C-15.60269531 17.60269531 -16.39289063 18.39289063 -17.20703125 19.20703125 C-17.79871094 19.79871094 -18.39039063 20.39039062 -19 21 C-19.66 20.67 -20.32 20.34 -21 20 C-19.71937515 18.2925002 -18.38232443 16.62626404 -17 15 C-16.34 15 -15.68 15 -15 15 C-14.7834375 14.45859375 -14.566875 13.9171875 -14.34375 13.359375 C-12.53500003 10.18354656 -10.08276201 7.79271919 -7.5 5.25 C-7.00113281 4.74339844 -6.50226563 4.23679687 -5.98828125 3.71484375 C-2.25341139 0 -2.25341139 0 0 0 Z " fill="#D0D6DA" transform="translate(420,62)"/>
<path d="M0 0 C0.33 0.66 0.66 1.32 1 2 C0.29296875 3.69921875 0.29296875 3.69921875 -0.8125 5.6875 C-2.78090086 9.41315838 -3.97972401 12.91889605 -5 17 C-5.33 17 -5.66 17 -6 17 C-6.33 15.35 -6.66 13.7 -7 12 C-8.32 12.33 -9.64 12.66 -11 13 C-8.36517737 7.73035473 -4.20056089 4.02096446 0 0 Z " fill="#B6C1C8" transform="translate(134,355)"/>
<path d="M0 0 C-2.26999825 0.50377768 -4.54103003 1.00290019 -6.8125 1.5 C-8.70935547 1.91765625 -8.70935547 1.91765625 -10.64453125 2.34375 C-14 3 -14 3 -17 3 C-17.33 3.99 -17.66 4.98 -18 6 C-18.99 6 -19.98 6 -21 6 C-21.33 6.66 -21.66 7.32 -22 8 C-26.75 7.25 -26.75 7.25 -29 5 C-26.33557431 4.179478 -23.66882724 3.36847695 -21 2.5625 C-20.25621094 2.33240234 -19.51242187 2.10230469 -18.74609375 1.86523438 C-5.56828704 -2.08810764 -5.56828704 -2.08810764 0 0 Z " fill="#B6BFC1" transform="translate(459,368)"/>
<path d="M0 0 C0.33 0 0.66 0 1 0 C1.32360003 8.73720084 0.15647427 16.22920028 -4 24 C-4.69907414 26.73572585 -4.69907414 26.73572585 -5 29 C-5.66 29 -6.32 29 -7 29 C-6.08344267 24.43877938 -5.06281747 20.01199522 -3.5 15.625 C-1.72212726 10.52602488 -0.84548266 5.32156736 0 0 Z " fill="#CED7DC" transform="translate(601,359)"/>
<path d="M0 0 C1.60031344 3.20062687 0.03173691 5.72271806 -1 9 C-1.99 9 -2.98 9 -4 9 C-4.28875 9.598125 -4.5775 10.19625 -4.875 10.8125 C-6 13 -6 13 -8 16 C-8.66 16 -9.32 16 -10 16 C-8.55797524 11.84848662 -6.4989562 8.70021555 -3.875 5.1875 C-3.15054688 4.21167969 -2.42609375 3.23585938 -1.6796875 2.23046875 C-0.84824219 1.12638672 -0.84824219 1.12638672 0 0 Z " fill="#D1DDE1" transform="translate(220,331)"/>
<path d="M0 0 C0.66 0.33 1.32 0.66 2 1 C-3 6 -3 6 -5.1875 8.0625 C-7.06381649 9.8684579 -7.06381649 9.8684579 -7.9375 12 C-9.43777262 14.82404257 -11.35330942 16.25705742 -14 18 C-14.99 17.67 -15.98 17.34 -17 17 C-14.54976242 14.49195282 -12.08852402 11.9949924 -9.625 9.5 C-8.57699219 8.42685547 -8.57699219 8.42685547 -7.5078125 7.33203125 C-6.8375 6.65527344 -6.1671875 5.97851562 -5.4765625 5.28125 C-4.85861816 4.65283203 -4.24067383 4.02441406 -3.60400391 3.37695312 C-2 2 -2 2 0 2 C0 1.34 0 0.68 0 0 Z " fill="#B7C0C4" transform="translate(100,197)"/>
<path d="M0 0 C0.33 0.99 0.66 1.98 1 3 C-4.42973523 7.67209776 -4.42973523 7.67209776 -7.5 9.4375 C-10.86033048 11.53770655 -13.26393053 14.13667149 -16 17 C-16.66 16.67 -17.32 16.34 -18 16 C-14.52440721 12.48009182 -10.96999527 9.08316076 -7.3125 5.75 C-6.35988281 4.87859375 -5.40726562 4.0071875 -4.42578125 3.109375 C-2 1 -2 1 0 0 Z " fill="#C0CAD0" transform="translate(438,45)"/>
<path d="M0 0 C0.33 1.32 0.66 2.64 1 4 C0.01 4.495 0.01 4.495 -1 5 C-1.37125 6.051875 -1.7425 7.10375 -2.125 8.1875 C-4.01759814 12.98340313 -7.79876303 15.27568244 -12 18 C-12 14.12134874 -10.87031722 13.45604684 -8.25 10.6875 C-5.10409734 7.27386095 -2.42927653 3.94757436 0 0 Z " fill="#BDC9CF" transform="translate(234,313)"/>
<path d="M0 0 C2.09715785 3.14573677 2.52004559 5.01456251 3.125 8.6875 C3.29257813 9.68136719 3.46015625 10.67523438 3.6328125 11.69921875 C3.75398437 12.45847656 3.87515625 13.21773438 4 14 C3.01 13.67 2.02 13.34 1 13 C1.33 11.68 1.66 10.36 2 9 C1.01 9.33 0.02 9.66 -1 10 C-2.38125018 7.23749964 -2.19079306 5.05268901 -2 2 C-1.34 1.34 -0.68 0.68 0 0 Z " fill="#D7E0E1" transform="translate(149,384)"/>
<path d="M0 0 C1.57554035 2.88628401 2.46276373 5.53342384 3.125 8.75 C3.29257812 9.54921875 3.46015625 10.3484375 3.6328125 11.171875 C3.81457031 12.07679688 3.81457031 12.07679688 4 13 C-1.78461538 9.55384615 -1.78461538 9.55384615 -2.875 6.75 C-2.91625 6.1725 -2.9575 5.595 -3 5 C-2.34 4.67 -1.68 4.34 -1 4 C-0.34786708 1.97536745 -0.34786708 1.97536745 0 0 Z " fill="#B8C3C8" transform="translate(383,569)"/>
<path d="M0 0 C1.32 0.33 2.64 0.66 4 1 C2.625 3 2.625 3 1 5 C0.34 5 -0.32 5 -1 5 C-1.33 5.99 -1.66 6.98 -2 8 C-5.0625 9.1875 -5.0625 9.1875 -8 10 C-7.59007813 9.52949219 -7.18015625 9.05898437 -6.7578125 8.57421875 C-6.21898438 7.95160156 -5.68015625 7.32898438 -5.125 6.6875 C-4.59132813 6.07261719 -4.05765625 5.45773438 -3.5078125 4.82421875 C-1.8359553 2.86501788 -1.8359553 2.86501788 0 0 Z " fill="#DEE4E7" transform="translate(82,215)"/>
<path d="M0 0 C0.66 0 1.32 0 2 0 C0.68 6.27 -0.64 12.54 -2 19 C-3.88343932 15.23312136 -4.22057835 13.97041037 -4 10 C-3.01 9.67 -2.02 9.34 -1 9 C-0.67 6.03 -0.34 3.06 0 0 Z " fill="#D6DBDD" transform="translate(517,166)"/>
<path d="M0 0 C0.33 0.66 0.66 1.32 1 2 C-0.11799986 3.33920838 -1.24461897 4.67122556 -2.375 6 C-3.31472656 7.11375 -3.31472656 7.11375 -4.2734375 8.25 C-4.84320313 8.8275 -5.41296875 9.405 -6 10 C-6.66 10 -7.32 10 -8 10 C-8.66 11.65 -9.32 13.3 -10 15 C-10.66 15 -11.32 15 -12 15 C-10.58397787 11.85093585 -8.86264918 9.50476328 -6.5625 6.9375 C-5.96566406 6.26589844 -5.36882812 5.59429687 -4.75390625 4.90234375 C-3.20703058 3.2245521 -1.62828434 1.59840757 0 0 Z " fill="#BCC3C8" transform="translate(374,410)"/>
<path d="M0 0 C6.6 0.33 13.2 0.66 20 1 C20 1.66 20 2.32 20 3 C20.66 3.33 21.32 3.66 22 4 C19.45813394 3.68905914 16.91651402 3.37629464 14.375 3.0625 C13.66214844 2.97548828 12.94929688 2.88847656 12.21484375 2.79882812 C8.12408039 2.29217395 4.06157365 1.7110957 0 1 C0 0.67 0 0.34 0 0 Z " fill="#2C373B" transform="translate(361,699)"/>
<path d="M0 0 C0.33 0 0.66 0 1 0 C1.375 2.1875 1.375 2.1875 1 5 C-1.8125 7.5625 -1.8125 7.5625 -3.46484375 8.796875 C-5.36521078 10.28622117 -6.6660009 11.99900135 -8 14 C-8.66 13.67 -9.32 13.34 -10 13 C-8.35790421 10.83040701 -6.71157832 8.66427468 -5.0625 6.5 C-4.59392578 5.87996094 -4.12535156 5.25992188 -3.64257812 4.62109375 C-2.45209536 3.06233214 -1.22858708 1.52890836 0 0 Z " fill="#2E3A41" transform="translate(563,608)"/>
<path d="M0 0 C0.33 0.99 0.66 1.98 1 3 C-3.12324647 7.25209792 -7.51282966 11.13635705 -12 15 C-12.66 14.67 -13.32 14.34 -14 14 C-13.32453125 13.40832031 -12.6490625 12.81664062 -11.953125 12.20703125 C-11.06109375 11.41683594 -10.1690625 10.62664062 -9.25 9.8125 C-8.36828125 9.03519531 -7.4865625 8.25789063 -6.578125 7.45703125 C-4.12113732 5.11544754 -2.05137234 2.69841735 0 0 Z " fill="#29383A" transform="translate(516,389)"/>
<path d="M0 0 C0.33 0 0.66 0 1 0 C1.28125 2.26171875 1.28125 2.26171875 1 5 C-0.96875 7.01953125 -0.96875 7.01953125 -3.5 8.8125 C-4.3353125 9.41707031 -5.170625 10.02164063 -6.03125 10.64453125 C-6.6809375 11.09183594 -7.330625 11.53914062 -8 12 C-8 8.0557333 -6.68625863 7.17603973 -4.0625 4.3125 C-3.33160156 3.50425781 -2.60070312 2.69601563 -1.84765625 1.86328125 C-1.23792969 1.24839844 -0.62820312 0.63351563 0 0 Z " fill="#C3CBCF" transform="translate(73,225)"/>
<path d="M0 0 C0.33 0 0.66 0 1 0 C1.91657981 5.38490641 2.11138159 10.54230189 2 16 C0 15 0 15 -1.25 11.375 C-2.28257959 6.97462236 -1.56934986 4.18493297 0 0 Z " fill="#EFF5F5" transform="translate(152,171)"/>
<path d="M0 0 C0.66 0.33 1.32 0.66 2 1 C1.67 1.66 1.34 2.32 1 3 C2.32 3.33 3.64 3.66 5 4 C-1.5705166 4.24794402 -7.56971459 3.32388229 -14 2 C-14 1.67 -14 1.34 -14 1 C-13.07316406 1.01160156 -12.14632813 1.02320313 -11.19140625 1.03515625 C-9.39509766 1.04869141 -9.39509766 1.04869141 -7.5625 1.0625 C-5.77005859 1.07990234 -5.77005859 1.07990234 -3.94140625 1.09765625 C-1.11126659 1.33901792 -1.11126659 1.33901792 0 0 Z " fill="#CBD1D5" transform="translate(292,717)"/>
<path d="M0 0 C0 0.66 0 1.32 0 2 C-0.66 2 -1.32 2 -2 2 C-2.33 2.99 -2.66 3.98 -3 5 C-4.77734375 5.984375 -4.77734375 5.984375 -6.9375 6.75 C-8.00291016 7.14445312 -8.00291016 7.14445312 -9.08984375 7.546875 C-11 8 -11 8 -13 7 C-11.21190303 5.82786955 -9.41940875 4.66244474 -7.625 3.5 C-6.62726563 2.8503125 -5.62953125 2.200625 -4.6015625 1.53125 C-2 0 -2 0 0 0 Z " fill="#AEB4BB" transform="translate(493,479)"/>
<path d="M0 0 C0.66 0.33 1.32 0.66 2 1 C2.625 4.0625 2.625 4.0625 3 7 C1.27073126 6.68806536 -0.45841044 6.37542638 -2.1875 6.0625 C-3.15042969 5.88847656 -4.11335938 5.71445312 -5.10546875 5.53515625 C-7.74239972 5.0476265 -10.3719905 4.53328895 -13 4 C-13 3.67 -13 3.34 -13 3 C-7.78020872 2.8200072 -3.92737019 3.02905192 1 5 C0.67 3.35 0.34 1.7 0 0 Z " fill="#7B838C" transform="translate(486,633)"/>
<path d="M0 0 C0.33 0 0.66 0 1 0 C1.36923077 6.52307692 1.36923077 6.52307692 -0.5 8.9375 C-0.995 9.288125 -1.49 9.63875 -2 10 C-2.66 7.69 -3.32 5.38 -4 3 C-3.34 2.34 -2.68 1.68 -2 1 C-1.67 1.33 -1.34 1.66 -1 2 C-0.67 1.34 -0.34 0.68 0 0 Z " fill="#F5F3F2" transform="translate(456,579)"/>
<path d="M0 0 C5.75 1.875 5.75 1.875 8 3 C8 3.66 8 4.32 8 5 C5.69 5.66 3.38 6.32 1 7 C0.67 4.69 0.34 2.38 0 0 Z " fill="#1F282E" transform="translate(398,221)"/>
<path d="M0 0 C0.66 0.33 1.32 0.66 2 1 C-2.70614174 5.58547143 -6.5347752 7.03739986 -13 8 C-10.61664713 5.32561064 -8.12963852 3.84841988 -4.9375 2.25 C-4.05964844 1.80140625 -3.18179687 1.3528125 -2.27734375 0.890625 C-1.52582031 0.59671875 -0.77429688 0.3028125 0 0 Z " fill="#BCC6CD" transform="translate(495,9)"/>
<path d="M0 0 C2.34917898 2.15341406 3.82443004 4.21667937 5.25 7.0625 C5.60578125 7.75472656 5.9615625 8.44695312 6.328125 9.16015625 C6.54984375 9.76730469 6.7715625 10.37445313 7 11 C6.67 11.66 6.34 12.32 6 13 C0.11816193 7.08315098 0.11816193 7.08315098 -0.375 2.5625 C-0.25125 1.716875 -0.1275 0.87125 0 0 Z " fill="#56585B" transform="translate(161,471)"/>
<path d="M0 0 C0.84119973 2.39957614 1.11193544 3.64922558 0.328125 6.10546875 C-0.02765625 6.79253906 -0.3834375 7.47960937 -0.75 8.1875 C-1.26820312 9.22970703 -1.26820312 9.22970703 -1.796875 10.29296875 C-3 12 -3 12 -6 13 C-4.58707905 8.1725201 -2.57025846 4.2837641 0 0 Z " fill="#D9DFE2" transform="translate(41,269)"/>
<path d="M0 0 C1 3 1 3 0.0625 5.1875 C-0.4634375 6.0846875 -0.4634375 6.0846875 -1 7 C-1.66 7 -2.32 7 -3 7 C-3.33 7.99 -3.66 8.98 -4 10 C-4.99 10.33 -5.98 10.66 -7 11 C-5.5140084 6.40693504 -3.14985318 3.56430755 0 0 Z " fill="#C4CFD6" transform="translate(136,242)"/>
<path d="M0 0 C1 2 1 2 0.36328125 4.3125 C0.01652344 5.199375 -0.33023438 6.08625 -0.6875 7 C-1.02136719 7.886875 -1.35523438 8.77375 -1.69921875 9.6875 C-3.17189511 12.3055913 -4.22805571 12.97292169 -7 14 C-5.23570801 9.02790438 -2.6060834 4.56561939 0 0 Z " fill="#B1BDC4" transform="translate(587,400)"/>
<path d="M0 0 C3.96925151 3.96925151 4.125 8.49740805 4.125 13.875 C4.09310718 15.58354375 4.05470352 17.29203442 4 19 C3.67 19 3.34 19 3 19 C3 16.36 3 13.72 3 11 C2.34 11 1.68 11 1 11 C0.67 7.37 0.34 3.74 0 0 Z " fill="#96A1A4" transform="translate(489,69)"/>
<path d="M0 0 C6.27 0 12.54 0 19 0 C15 3 15 3 11.328125 2.85546875 C9.96597312 2.65048473 8.60646402 2.42725309 7.25 2.1875 C6.55261719 2.07857422 5.85523438 1.96964844 5.13671875 1.85742188 C3.42193705 1.58728503 1.71055369 1.29573005 0 1 C0 0.67 0 0.34 0 0 Z " fill="#D6DCE4" transform="translate(525,663)"/>
<path d="M0 0 C0.33 0.99 0.66 1.98 1 3 C-1.64 5.64 -4.28 8.28 -7 11 C-7.33 10.01 -7.66 9.02 -8 8 C-5.36 5.36 -2.72 2.72 0 0 Z " fill="#D6E0E5" transform="translate(207,160)"/>
<path d="M0 0 C-0.66 1.65 -1.32 3.3 -2 5 C-2.99 4.67 -3.98 4.34 -5 4 C-5.33 4.33 -5.66 4.66 -6 5 C-7.66617115 5.04063832 -9.33388095 5.042721 -11 5 C-9.04754573 1.09509146 -4.11653518 0 0 0 Z " fill="#2B333A" transform="translate(539,530)"/>
<path d="M0 0 C1.79275866 3.11910856 2.34290718 5.67682428 2.625 9.25 C2.69976563 10.14203125 2.77453125 11.0340625 2.8515625 11.953125 C2.90054687 12.62859375 2.94953125 13.3040625 3 14 C0.64046906 11.64046906 0.50858587 10.22104383 0 7 C-0.99 7.495 -0.99 7.495 -2 8 C-2.20086443 4.28400809 -2.1519437 3.22791555 0 0 Z " fill="#2E3B44" transform="translate(4,447)"/>
<path d="M0 0 C-0.1875 1.875 -0.1875 1.875 -1 4 C-3.5625 5.25 -3.5625 5.25 -6 6 C-6 5.01 -6 4.02 -6 3 C-6.66 2.67 -7.32 2.34 -8 2 C-5.09399739 0.74335022 -3.20395416 0 0 0 Z " fill="#EBECF0" transform="translate(306,387)"/>
<path d="M0 0 C0.33 0 0.66 0 1 0 C1.3227506 4.62609198 0.84450614 7.28026121 -2 11 C-2.66 11 -3.32 11 -4 11 C-4.33 11.99 -4.66 12.98 -5 14 C-5 12.68 -5 11.36 -5 10 C-4.34 10 -3.68 10 -3 10 C-2.87625 9.0925 -2.7525 8.185 -2.625 7.25 C-2.07890323 4.41029677 -1.42736197 2.47409409 0 0 Z " fill="#B8C1C7" transform="translate(113,383)"/>
<path d="M0 0 C1.04973814 4.19895255 0.72795155 6.79405774 0 11 C0.66 11.33 1.32 11.66 2 12 C0.625 13.5 0.625 13.5 -1 15 C-1.66 15 -2.32 15 -3 15 C-2.01 10.05 -1.02 5.1 0 0 Z " fill="#5F6365" transform="translate(318,265)"/>
<path d="M0 0 C0.33 1.32 0.66 2.64 1 4 C-1.97 6.475 -1.97 6.475 -5 9 C-5.66 8.67 -6.32 8.34 -7 8 C-4.69 5.36 -2.38 2.72 0 0 Z " fill="#BFCBD1" transform="translate(164,207)"/>
<path d="M0 0 C0.66 1.32 1.32 2.64 2 4 C2.99 5.485 2.99 5.485 4 7 C2.625 9 2.625 9 1 11 C0.34 11 -0.32 11 -1 11 C-0.67 7.37 -0.34 3.74 0 0 Z " fill="#17262E" transform="translate(636,431)"/>
<path d="M0 0 C-0.33 0.99 -0.66 1.98 -1 3 C-1.66 3 -2.32 3 -3 3 C-3 3.66 -3 4.32 -3 5 C-7.455 5.495 -7.455 5.495 -12 6 C-10.66144904 3.32289809 -9.27941912 3.04870906 -6.5625 1.875 C-5.75941406 1.52179688 -4.95632813 1.16859375 -4.12890625 0.8046875 C-2 0 -2 0 0 0 Z " fill="#ABB1B5" transform="translate(422,377)"/>
<path d="M0 0 C0 3.58912412 -0.66436554 4.10857029 -3 6.6875 C-3.556875 7.31011719 -4.11375 7.93273437 -4.6875 8.57421875 C-5.120625 9.04472656 -5.55375 9.51523437 -6 10 C-6.99 9.67 -7.98 9.34 -9 9 C-6.03 6.03 -3.06 3.06 0 0 Z " fill="#29333A" transform="translate(345,356)"/>
<path d="M0 0 C1.57159226 3.14318453 0.04018399 5.92933389 -0.9375 9.125 C-1.13279297 9.78371094 -1.32808594 10.44242187 -1.52929688 11.12109375 C-2.01304986 12.74933552 -2.50569075 14.37493182 -3 16 C-3.33 16 -3.66 16 -4 16 C-3.40546697 4.29384966 -3.40546697 4.29384966 0 0 Z " fill="#485159" transform="translate(16,325)"/>
<path d="M0 0 C0.66 0 1.32 0 2 0 C0.25 7.625 0.25 7.625 -2 11 C-2.05399736 9.54207116 -2.09279177 8.08357288 -2.125 6.625 C-2.15980469 5.40683594 -2.15980469 5.40683594 -2.1953125 4.1640625 C-2 2 -2 2 0 0 Z " fill="#D3DCE1" transform="translate(55,301)"/>
<path d="M0 0 C0.33 0.66 0.66 1.32 1 2 C-0.8130666 6.63339243 -2.94775971 9.1524798 -7 12 C-7.33 11.01 -7.66 10.02 -8 9 C-6.8553125 7.88625 -6.8553125 7.88625 -5.6875 6.75 C-3.5606298 4.5736677 -1.7440044 2.47832204 0 0 Z " fill="#C1CAD3" transform="translate(179,189)"/>
<path d="M0 0 C0 3 0 3 -1.53125 4.60546875 C-2.1809375 5.12753906 -2.830625 5.64960937 -3.5 6.1875 C-4.1496875 6.71730469 -4.799375 7.24710937 -5.46875 7.79296875 C-5.9740625 8.19128906 -6.479375 8.58960937 -7 9 C-7.66 8.67 -8.32 8.34 -9 8 C-7.87811441 6.85111717 -6.75238316 5.70598863 -5.625 4.5625 C-4.99851562 3.92441406 -4.37203125 3.28632812 -3.7265625 2.62890625 C-2 1 -2 1 0 0 Z " fill="#404A4D" transform="translate(456,71)"/>
<path d="M0 0 C0.33 0.99 0.66 1.98 1 3 C1.99 2.67 2.98 2.34 4 2 C4.33 3.32 4.66 4.64 5 6 C3.53932801 5.54917531 2.08151968 5.08906463 0.625 4.625 C-0.18710938 4.36976563 -0.99921875 4.11453125 -1.8359375 3.8515625 C-4 3 -4 3 -6 1 C-4.7934375 1.0309375 -4.7934375 1.0309375 -3.5625 1.0625 C-1.06645115 1.29633621 -1.06645115 1.29633621 0 0 Z " fill="#41474D" transform="translate(237,657)"/>
<path d="M0 0 C-2.61514317 2.12038635 -5.19637616 4.13091744 -8 6 C-8.33 5.01 -8.66 4.02 -9 3 C-7.14340032 -0.71319936 -3.69365381 -0.09982848 0 0 Z " fill="#E5EEF0" transform="translate(224,339)"/>
<path d="M0 0 C0 3.59734407 -0.68031389 4.34893016 -3 7 C-4.30144802 8.04115841 -5.62797869 9.05377841 -7 10 C-7.66 9.67 -8.32 9.34 -9 9 C-6.03 6.03 -3.06 3.06 0 0 Z " fill="#323C45" transform="translate(122,197)"/>
<path d="M0 0 C0.80050781 0.12761719 1.60101563 0.25523437 2.42578125 0.38671875 C3.23402344 0.50660156 4.04226563 0.62648438 4.875 0.75 C5.48988281 0.85699219 6.10476563 0.96398437 6.73828125 1.07421875 C3.53448108 3.21008553 2.71888158 3.3055405 -0.94921875 3.19921875 C-2.16158203 3.17214844 -2.16158203 3.17214844 -3.3984375 3.14453125 C-4.32076172 3.10972656 -4.32076172 3.10972656 -5.26171875 3.07421875 C-3.53640014 0.90221572 -2.83921072 0.09316926 0 0 Z " fill="#DEDEE0" transform="translate(444.26171875,669.92578125)"/>
<path d="M0 0 C1.11074104 3.33222313 0.88927847 5.62074182 0 9 C-0.33 9.66 -0.66 10.32 -1 11 C-1.66 11 -2.32 11 -3 11 C-2.69078116 9.54096742 -2.37751201 8.08279278 -2.0625 6.625 C-1.88847656 5.81289063 -1.71445312 5.00078125 -1.53515625 4.1640625 C-1 2 -1 2 0 0 Z " fill="#BDC4C9" transform="translate(349,445)"/>
<path d="M0 0 C-1.65 1.65 -3.3 3.3 -5 5 C-6.32 4.34 -7.64 3.68 -9 3 C-8 1 -8 1 -5.0625 -0.1875 C-2 -1 -2 -1 0 0 Z " fill="#E3EAEA" transform="translate(450,370)"/>
<path d="M0 0 C0.75 1.625 0.75 1.625 1 4 C-0.8125 7.25 -0.8125 7.25 -3 10 C-3.66 10 -4.32 10 -5 10 C-3.84414715 6.08788267 -2.64465038 3.1254959 0 0 Z " fill="#B8C3C9" transform="translate(47,259)"/>
<path d="M0 0 C0.33 0 0.66 0 1 0 C1.3125 2.8125 1.3125 2.8125 1 6 C-1.5 7.875 -1.5 7.875 -4 9 C-2.94124926 5.59687262 -1.99097846 2.98646769 0 0 Z " fill="#2C383E" transform="translate(325,251)"/>
<path d="M0 0 C0.33 0.99 0.66 1.98 1 3 C-1.97 5.475 -1.97 5.475 -5 8 C-5.66 7.67 -6.32 7.34 -7 7 C-2.25 1.125 -2.25 1.125 0 0 Z " fill="#D9E0E2" transform="translate(438,45)"/>
<path d="M0 0 C0.66 0 1.32 0 2 0 C1.54857225 1.77260631 1.08859477 3.5430368 0.625 5.3125 C0.36976563 6.29863281 0.11453125 7.28476562 -0.1484375 8.30078125 C-1 11 -1 11 -3 14 C-3.625 12.1875 -3.625 12.1875 -4 10 C-3.34 9.01 -2.68 8.02 -2 7 C-1.29187186 4.67891331 -0.61975848 2.34622853 0 0 Z " fill="#243039" transform="translate(152,19)"/>
<path d="M0 0 C0.33 1.32 0.66 2.64 1 4 C-0.65 5.32 -2.3 6.64 -4 8 C-4.66 7.67 -5.32 7.34 -6 7 C-4.02 4.69 -2.04 2.38 0 0 Z " fill="#333C44" transform="translate(549,625)"/>
<path d="M0 0 C2 4 2 4 1.3125 6.1875 C0 8 0 8 -3 9 C-2.01 6.03 -1.02 3.06 0 0 Z " fill="#333E45" transform="translate(392,497)"/>
<path d="M0 0 C0.33 0.66 0.66 1.32 1 2 C0.67 2.66 0.34 3.32 0 4 C0.66 4.33 1.32 4.66 2 5 C1.01 5 0.02 5 -1 5 C-1 5.66 -1 6.32 -1 7 C-1.66 7 -2.32 7 -3 7 C-3 7.99 -3 8.98 -3 10 C-3.66 10 -4.32 10 -5 10 C-3.84414715 6.08788267 -2.64465038 3.1254959 0 0 Z " fill="#A2A9AE" transform="translate(358,429)"/>
<path d="M0 0 C6.93 0.495 6.93 0.495 14 1 C14 1.33 14 1.66 14 2 C10.37 2.33 6.74 2.66 3 3 C3 2.34 3 1.68 3 1 C2.01 0.67 1.02 0.34 0 0 Z " fill="#CBCACF" transform="translate(337,101)"/>
<path d="M0 0 C0 0.66 0 1.32 0 2 C-3.1999003 5.01704885 -5.61537866 6.49890042 -10 7 C-3.18421053 0 -3.18421053 0 0 0 Z " fill="#C4C9CC" transform="translate(449,38)"/>
<path d="M0 0 C3.91211733 1.15585285 6.8745041 2.35534962 10 5 C8.02 5 6.04 5 4 5 C4 4.34 4 3.68 4 3 C2.68 2.67 1.36 2.34 0 2 C0 1.34 0 0.68 0 0 Z " fill="#D9E3E5" transform="translate(202,644)"/>
<path d="M0 0 C0.33 0 0.66 0 1 0 C1.390625 5.95703125 1.390625 5.95703125 1 8 C-0.32 8.99 -1.64 9.98 -3 11 C-2.01 7.37 -1.02 3.74 0 0 Z " fill="#383D46" transform="translate(388,506)"/>
<path d="M0 0 C-1.4638611 4.39158329 -3.97831338 4.87947433 -8 7 C-8 6.01 -8 5.02 -8 4 C-2.74285714 0 -2.74285714 0 0 0 Z " fill="#D5DCE2" transform="translate(314,383)"/>
<path d="M0 0 C0.66 0.99 1.32 1.98 2 3 C-0.17424117 5.50037734 -1.73045798 6.43628586 -5 7 C-3.70700306 4.11562221 -2.34058637 2.12780579 0 0 Z " fill="#17202D" transform="translate(333,368)"/>
<path d="M0 0 C0.33 1.32 0.66 2.64 1 4 C-0.65 5.32 -2.3 6.64 -4 8 C-4 4.09161134 -2.49432124 2.88405893 0 0 Z " fill="#B2BCC4" transform="translate(147,227)"/>
<path d="M0 0 C0.33 0.99 0.66 1.98 1 3 C-0.9375 5.6875 -0.9375 5.6875 -3 8 C-3.99 7.67 -4.98 7.34 -6 7 C-4.02 4.69 -2.04 2.38 0 0 Z " fill="#BAC8CA" transform="translate(188,179)"/>
<path d="M0 0 C0.66 0 1.32 0 2 0 C1.01 3.3 0.02 6.6 -1 10 C-1.33 8.68 -1.66 7.36 -2 6 C-2.66 5.67 -3.32 5.34 -4 5 C-3.34 4.67 -2.68 4.34 -2 4 C-0.86649466 1.98330173 -0.86649466 1.98330173 0 0 Z " fill="#23303B" transform="translate(111,383)"/>
<path d="M0 0 C0 0.66 0 1.32 0 2 C-1.53125 3.2890625 -1.53125 3.2890625 -3.5 4.625 C-4.1496875 5.07101562 -4.799375 5.51703125 -5.46875 5.9765625 C-5.9740625 6.31429688 -6.479375 6.65203125 -7 7 C-7 6.01 -7 5.02 -7 4 C-2.65714286 0 -2.65714286 0 0 0 Z " fill="#2E3B42" transform="translate(224,340)"/>
<path d="M0 0 C0.33 0 0.66 0 1 0 C1.08096803 1.45742463 1.13917774 2.91612807 1.1875 4.375 C1.22230469 5.18710937 1.25710937 5.99921875 1.29296875 6.8359375 C1.19628906 7.55007813 1.09960938 8.26421875 1 9 C0.01 9.66 -0.98 10.32 -2 11 C-1 3.57142857 -1 3.57142857 0 0 Z " fill="#CBD4D8" transform="translate(252,273)"/>
<path d="M0 0 C0.66 0.99 1.32 1.98 2 3 C1.195625 3.61875 0.39125 4.2375 -0.4375 4.875 C-3.03874519 6.74164041 -3.03874519 6.74164041 -4 9 C-4.66 8.67 -5.32 8.34 -6 8 C-4.02 5.36 -2.04 2.72 0 0 Z " fill="#233138" transform="translate(101,220)"/>
<path d="M0 0 C1.32 0.66 2.64 1.32 4 2 C3.67 2.66 3.34 3.32 3 4 C2.34 4 1.68 4 1 4 C0.34 4.66 -0.32 5.32 -1 6 C-1.66 5.67 -2.32 5.34 -3 5 C-1.125 1.125 -1.125 1.125 0 0 Z " fill="#2B313B" transform="translate(112,207)"/>
<path d="M0 0 C2.24606427 1.77444972 2.95081002 2.58352485 3.29296875 5.48046875 C3.25816406 6.37378906 3.22335938 7.26710937 3.1875 8.1875 C3.16042969 9.08855469 3.13335937 9.98960937 3.10546875 10.91796875 C3.07066406 11.60503906 3.03585938 12.29210937 3 13 C2.67 13 2.34 13 2 13 C1.66127487 11.58461283 1.32925376 10.16762037 1 8.75 C0.814375 7.96109375 0.62875 7.1721875 0.4375 6.359375 C0 4 0 4 0 0 Z " fill="#A1ACB1" transform="translate(143,153)"/>
<path d="M0 0 C0.33 0 0.66 0 1 0 C1.33 3.96 1.66 7.92 2 12 C1.01 12.66 0.02 13.32 -1 14 C-0.67 9.38 -0.34 4.76 0 0 Z " fill="#9DA1A6" transform="translate(492,137)"/>
<path d="M0 0 C0.66 1.32 1.32 2.64 2 4 C0.625 5.5 0.625 5.5 -1 7 C-1.66 7 -2.32 7 -3 7 C-1.125 1.125 -1.125 1.125 0 0 Z " fill="#333845" transform="translate(493,568)"/>
<path d="M0 0 C2.92879371 0.62759865 5.36095629 1.58622659 8 3 C7.01 4.485 7.01 4.485 6 6 C3.97945196 4.35830472 1.97956942 2.69088222 0 1 C0 0.67 0 0.34 0 0 Z " fill="#354045" transform="translate(314,542)"/>
<path d="M0 0 C0.33 1.32 0.66 2.64 1 4 C-0.65 5.32 -2.3 6.64 -4 8 C-4.66 7.67 -5.32 7.34 -6 7 C-4.02 4.69 -2.04 2.38 0 0 Z " fill="#2D383F" transform="translate(414,466)"/>
<path d="M0 0 C2.5654594 2.5654594 2.54046087 4.47686668 3 8 C2.01 8 1.02 8 0 8 C-0.98120464 4.94736336 -0.98120464 3.05263664 0 0 Z " fill="#1D212F" transform="translate(156,461)"/>
<path d="M0 0 C2 3 2 3 1.625 5.1875 C1.41875 5.785625 1.2125 6.38375 1 7 C0.01 6.67 -0.98 6.34 -2 6 C-1.125 1.125 -1.125 1.125 0 0 Z " fill="#B4C2C5" transform="translate(149,384)"/>
<path d="M0 0 C-0.33 3.3 -0.66 6.6 -1 10 C-1.33 10 -1.66 10 -2 10 C-2.33 7.03 -2.66 4.06 -3 1 C-1 0 -1 0 0 0 Z " fill="#303D48" transform="translate(10,348)"/>
<path d="M0 0 C0.66 0.99 1.32 1.98 2 3 C0.71937515 4.7074998 -0.61767557 6.37373596 -2 8 C-2.66 8 -3.32 8 -4 8 C-2.87548273 5.0280615 -1.77706209 2.66559313 0 0 Z " fill="#C5D2D5" transform="translate(214,339)"/>
<path d="M0 0 C-6.4 3.07692308 -6.4 3.07692308 -9.4375 2.6875 C-9.953125 2.460625 -10.46875 2.23375 -11 2 C-3.57142857 -1.57142857 -3.57142857 -1.57142857 0 0 Z " fill="#B7BEC4" transform="translate(350,261)"/>
<path d="M0 0 C0.33 0.66 0.66 1.32 1 2 C-0.91522803 6.03205902 -1.85351878 6.92675939 -6 9 C-4.02 6.03 -2.04 3.06 0 0 Z " fill="#C4D0D2" transform="translate(60,241)"/>
<path d="M0 0 C0 4.38968456 -2.12805101 5.76905739 -5 9 C-5.66 8.67 -6.32 8.34 -7 8 C-4.69 5.36 -2.38 2.72 0 0 Z " fill="#C0CBD2" transform="translate(388,236)"/>
<path d="M0 0 C0.8125 1.6875 0.8125 1.6875 1 4 C-1.4375 6.75 -1.4375 6.75 -4 9 C-4 5.00095031 -2.27413033 3.19799578 0 0 Z " fill="#3B454F" transform="translate(89,236)"/>
<path d="M0 0 C-0.66 1.65 -1.32 3.3 -2 5 C-3.65 4.67 -5.3 4.34 -7 4 C-3.17391304 0 -3.17391304 0 0 0 Z " fill="#2D3437" transform="translate(356,222)"/>
<path d="M0 0 C0.66 0.33 1.32 0.66 2 1 C2 1.66 2 2.32 2 3 C-1.46153846 6 -1.46153846 6 -4 6 C-4 6.66 -4 7.32 -4 8 C-4.66 7.67 -5.32 7.34 -6 7 C-4.02 4.69 -2.04 2.38 0 0 Z " fill="#23303C" transform="translate(168,178)"/>
<path d="M0 0 C0.66 0.33 1.32 0.66 2 1 C0.35 2.65 -1.3 4.3 -3 6 C-3.33 5.01 -3.66 4.02 -4 3 C-3 1 -3 1 0 0 Z " fill="#D5D3D6" transform="translate(174,169)"/>
<path d="M0 0 C0.33 0.99 0.66 1.98 1 3 C-1.97 5.475 -1.97 5.475 -5 8 C-5 5 -5 5 -2.5 2.3125 C-1.675 1.549375 -0.85 0.78625 0 0 Z " fill="#C3CBCE" transform="translate(396,86)"/>
<path d="M0 0 C3 3.75 3 3.75 3 6 C1.0625 5.1875 1.0625 5.1875 -1 4 C-1.33 3.01 -1.66 2.02 -2 1 C-1.34 0.67 -0.68 0.34 0 0 Z " fill="#29333E" transform="translate(350,537)"/>
<path d="M0 0 C-0.33 1.65 -0.66 3.3 -1 5 C-3.97 4.505 -3.97 4.505 -7 4 C-3.17391304 0 -3.17391304 0 0 0 Z " fill="#B0B8BB" transform="translate(410,383)"/>
<path d="M0 0 C1.32 0 2.64 0 4 0 C4 0.99 4 1.98 4 3 C3.34 3 2.68 3 2 3 C1.67 3.99 1.34 4.98 1 6 C0.67 6 0.34 6 0 6 C0 4.02 0 2.04 0 0 Z " fill="#CCD5DB" transform="translate(523,375)"/>
<path d="M0 0 C-3.20380017 2.13586678 -4.01939967 2.23132175 -7.6875 2.125 C-8.89986328 2.09792969 -8.89986328 2.09792969 -10.13671875 2.0703125 C-11.05904297 2.03550781 -11.05904297 2.03550781 -12 2 C-7.89783794 -0.73477471 -4.73617773 -1.57872591 0 0 Z " fill="#3F464C" transform="translate(409,321)"/>
<path d="M0 0 C0.66 0 1.32 0 2 0 C2.625 2.3125 2.625 2.3125 3 5 C2.34 5.99 1.68 6.98 1 8 C-0.35439668 5.29120665 -0.06501451 2.99066732 0 0 Z " fill="#0F1C23" transform="translate(247,279)"/>
<path d="M0 0 C0.33 0.99 0.66 1.98 1 3 C-0.32 4.32 -1.64 5.64 -3 7 C-3.66 6.67 -4.32 6.34 -5 6 C-3.35 4.02 -1.7 2.04 0 0 Z " fill="#C6D6DC" transform="translate(153,220)"/>
<path d="M0 0 C0.66 0.33 1.32 0.66 2 1 C-0.35380297 4.92300495 -2.64464931 5.83857315 -7 7 C-4.66666667 4.66666667 -2.33333333 2.33333333 0 0 Z " fill="#B8C4CA" transform="translate(115,185)"/>
<path d="M0 0 C0.99 0.33 1.98 0.66 3 1 C0.03 3.475 0.03 3.475 -3 6 C-3.66 5.34 -4.32 4.68 -5 4 C-2.6875 1.9375 -2.6875 1.9375 0 0 Z " fill="#1C2B34" transform="translate(200,164)"/>
<path d="M0 0 C0.99 0.33 1.98 0.66 3 1 C1.35 2.65 -0.3 4.3 -2 6 C-2.66 5.67 -3.32 5.34 -4 5 C-2.68 3.35 -1.36 1.7 0 0 Z " fill="#1A2229" transform="translate(443,84)"/>
</svg>
