<?xml version="1.0" encoding="UTF-8"?>
<svg version="1.1" xmlns="http://www.w3.org/2000/svg" width="661" height="377">
<path d="M0 0 C8.63648394 7.77283555 9.7239581 23.63472416 10.875 34.6875 C11.52833792 47.2443362 8.81920131 59.13452021 5 71 C3.35 70.67 1.7 70.34 0 70 C-0.33 69.01 -0.66 68.02 -1 67 C-2.32467746 66.3162955 -3.65863633 65.65035814 -5 65 C-7 62 -7 62 -6.8125 59.8125 C-6.14149512 57.4897908 -5.37167078 55.31252704 -4.5 53.0625 C-0.1738611 41.7512295 -2.25566526 31.48373408 -5 20 C-8.29211733 20 -10.54352224 21.9881336 -13 24 C-17.52440624 28.61325201 -17.52440624 28.61325201 -21 34 C-21.66 34 -22.32 34 -23 34 C-23.20496094 34.61488281 -23.40992188 35.22976562 -23.62109375 35.86328125 C-24.74739583 39.2421875 -25.87369792 42.62109375 -27 46 C-26.34 46 -25.68 46 -25 46 C-21.24263989 49.43530067 -17.96504706 53.27594075 -14.6484375 57.1328125 C-12.33495165 59.75330121 -9.87232006 62.11877203 -7.3125 64.5 C-5 67 -5 67 -5 70 C-4.38125 70.2475 -3.7625 70.495 -3.125 70.75 C-0.55750184 72.26029304 -0.28184271 73.36091208 1 76 C1.804375 76.804375 2.60875 77.60875 3.4375 78.4375 C5.91546558 80.91546558 7.33271314 82.94330743 9 86 C9.391875 86.68320313 9.78375 87.36640625 10.1875 88.0703125 C17.53573627 100.97346548 20.65767387 113.11708398 20 128 C16.52829079 127.7106909 15.30648876 127.3571727 12.9921875 124.66015625 C12.33476562 123.78230469 11.67734375 122.90445313 11 122 C1.12369046 113.9482968 -11.01416369 110.11918175 -23.7109375 110.62890625 C-37.59097484 112.19494372 -46.01086603 117.7845957 -55.5625 127.625 C-62.67734227 134.87504118 -69.68513657 139.4691934 -80 140 C-87.52830878 139.97024384 -92.40217695 139.08384833 -98.1875 134.125 C-101.04612849 130.77350453 -101.86353342 128.03324695 -102.4375 123.6875 C-101.87835411 118.97469895 -100.10436281 115.58532043 -97 112 C-96.01 111.67 -95.02 111.34 -94 111 C-93.67 109.35 -93.34 107.7 -93 106 C-92.34 106 -91.68 106 -91 106 C-88.00414161 97.77922191 -86.43497532 89.95591148 -89.125 81.4375 C-91.51544662 78.3299194 -93.18957869 77.76208426 -97 77 C-99.75065232 76.83142517 -99.75065232 76.83142517 -102 77 C-102.22771904 79.19876339 -102.22771904 79.19876339 -100.1875 80.9375 C-99.465625 81.618125 -98.74375 82.29875 -98 83 C-97.46375 83.556875 -96.9275 84.11375 -96.375 84.6875 C-95.01378527 86.11564313 -95.01378527 86.11564313 -93 87 C-93 87.66 -93 88.32 -93 89 C-92.01 89.33 -91.02 89.66 -90 90 C-92.68522484 102.57173448 -92.68522484 102.57173448 -97 108 C-97.66 108.99 -98.32 109.98 -99 111 C-102.125 111.40625 -102.125 111.40625 -106 111.5 C-115.7250299 111.93261016 -122.86315846 113.44007813 -130.40625 119.79296875 C-132 121 -132 121 -134 121 C-134 121.66 -134 122.32 -134 123 C-134.66 123 -135.32 123 -136 123 C-136.66 124.32 -137.32 125.64 -138 127 C-139.32 127 -140.64 127 -142 127 C-141.82578585 114.06064017 -140.70463816 100.95953877 -133 90 C-132.34 90 -131.68 90 -131 90 C-130.9175 89.2575 -130.835 88.515 -130.75 87.75 C-129.84305017 84.4245173 -128.48140301 83.33543813 -126 81 C-125.484375 80.113125 -124.96875 79.22625 -124.4375 78.3125 C-123 76 -123 76 -120 75 C-119.29788106 73.34795544 -118.63028587 71.68076231 -118 70 C-117.01 69.505 -117.01 69.505 -116 69 C-115.731875 68.4225 -115.46375 67.845 -115.1875 67.25 C-113.60966099 64.26041029 -111.41645843 62.3612251 -109 60 C-108.18660156 59.175 -107.37320313 58.35 -106.53515625 57.5 C-102.1824414 53.09915086 -97.86021256 48.83700991 -93 45 C-93.92527213 38.66119542 -95.08554512 35.39714384 -100 31 C-100 30.01 -100 29.02 -100 28 C-100.61875 27.7525 -101.2375 27.505 -101.875 27.25 C-104 26 -104 26 -104.875 24 C-106.5402902 21.0394841 -108.85379992 20.93966509 -112 20 C-112.04987075 23.98352168 -112.08593964 27.9669195 -112.10986328 31.95068359 C-112.12472879 33.96328119 -112.150157 35.97579188 -112.17578125 37.98828125 C-112.30361565 45.8999939 -112.30361565 45.8999939 -110.75 53.59375 C-110 57 -110 57 -111.5546875 59.96875 C-112.32039063 60.8040625 -113.08609375 61.639375 -113.875 62.5 C-114.63554687 63.3559375 -115.39609375 64.211875 -116.1796875 65.09375 C-116.78039062 65.7228125 -117.38109375 66.351875 -118 67 C-120.42699646 66.04138493 -121.73138796 65.47840453 -123.03039551 63.1648407 C-124.78206018 57.56930975 -125.46728837 52.49678648 -125.46875 46.64453125 C-125.47636353 45.78043137 -125.48397705 44.91633148 -125.49182129 44.02604675 C-125.50255609 42.20839299 -125.50550258 40.39067788 -125.50097656 38.57299805 C-125.50000831 35.83599217 -125.5416201 33.10183407 -125.5859375 30.36523438 C-125.65652959 19.5606007 -124.56130003 10.87902254 -120 1 C-113.42388788 2.01840223 -113.42388788 2.01840223 -110.4375 3.875 C-109.55578125 4.41447266 -109.55578125 4.41447266 -108.65625 4.96484375 C-108.1096875 5.30644531 -107.563125 5.64804688 -107 6 C-105.7315625 6.7115625 -105.7315625 6.7115625 -104.4375 7.4375 C-101.40211103 9.38326216 -98.71873222 11.64628275 -96 14 C-94.948125 14.87785156 -94.948125 14.87785156 -93.875 15.7734375 C-93.153125 16.38445312 -92.43125 16.99546875 -91.6875 17.625 C-91.01074219 18.19476563 -90.33398438 18.76453125 -89.63671875 19.3515625 C-88 21 -88 21 -87 24 C-86.38640625 24.30679688 -85.7728125 24.61359375 -85.140625 24.9296875 C-82.51115599 26.244422 -81.440993 27.74223713 -79.75 30.125 C-78.96882813 31.21167969 -78.96882813 31.21167969 -78.171875 32.3203125 C-77.78515625 32.87460938 -77.3984375 33.42890625 -77 34 C-75.86433594 33.83757812 -74.72867188 33.67515625 -73.55859375 33.5078125 C-69.04619219 32.94587206 -64.60518113 32.84883974 -60.0625 32.875 C-59.27415771 32.8754834 -58.48581543 32.8759668 -57.67358398 32.87646484 C-53.58775948 32.90096881 -49.61671686 33.06487793 -45.5625 33.625 C-41.89913593 34.39408061 -41.89913593 34.39408061 -39 32 C-37.98648336 30.34151823 -36.98879205 28.67334039 -36 27 C-31.36949833 20.6330602 -24.5453848 13.51512827 -17 11 C-17 10.34 -17 9.68 -17 9 C-16.278125 8.7525 -15.55625 8.505 -14.8125 8.25 C-11.93066279 7.11678413 -11.93066279 7.11678413 -9.625 5.0625 C-6.52517535 2.62692349 -3.65837095 1.43465528 0 0 Z M-54.5625 80.1875 C-57.32606821 83.37623255 -59.74880514 86.42457286 -62 90 C-61.67 90.99 -61.34 91.98 -61 93 C-60.236875 92.5875 -59.47375 92.175 -58.6875 91.75 C-55.74849722 90.24228463 -52.77381512 89.2978733 -49.625 88.3125 C-43.63927119 86.22445507 -40.04513425 82.77534473 -36 78 C-36.33 77.34 -36.66 76.68 -37 76 C-43.72265116 75.73109395 -49.19237496 75.60324692 -54.5625 80.1875 Z M-98 120 C-98.75191978 122.36891496 -98.75191978 122.36891496 -98 125 C-95.8500341 126.97303603 -93.49827461 128.50230986 -91 130 C-89.2984375 129.0409375 -89.2984375 129.0409375 -87.5625 128.0625 C-86.92441406 127.70285156 -86.28632813 127.34320313 -85.62890625 126.97265625 C-84.02121854 126.1027487 -84.02121854 126.1027487 -83 125 C-82.7499227 122.54190002 -82.7499227 122.54190002 -83 120 C-84.83111848 117.74924955 -84.83111848 117.74924955 -87.53125 117.734375 C-88.5109375 117.73953125 -89.490625 117.7446875 -90.5 117.75 C-91.4796875 117.74484375 -92.459375 117.7396875 -93.46875 117.734375 C-96.16888152 117.74924955 -96.16888152 117.74924955 -98 120 Z " fill="#F6F7F6" transform="translate(390,59)"/>
<path d="M0 0 C0.66 0 1.32 0 2 0 C1.125 5.75 1.125 5.75 0 8 C-0.55059471 16.06833023 -0.29544166 22.61821067 3 30 C3.39080797 31.98956785 3.74850872 33.98806977 4 36 C4.66 36 5.32 36 6 36 C5.7834375 35.39414063 5.566875 34.78828125 5.34375 34.1640625 C2.58919336 25.87488743 1.52132556 18.26185179 5 10 C5.99 10.33 6.98 10.66 8 11 C9.0625 13.6171875 9.0625 13.6171875 10 16.875 C11.14974253 20.85119292 11.95213615 23.22199909 15 26 C15.31066406 26.64839844 15.62132812 27.29679687 15.94140625 27.96484375 C17.23540706 30.45257225 18.78878757 31.77390697 20.9375 33.5625 C24.86687482 36.86023699 24.86687482 36.86023699 26.41015625 38.48046875 C28.58341021 40.55760828 30.98949868 42.09835439 33.5 43.75 C35.10101563 44.80574219 35.10101563 44.80574219 36.734375 45.8828125 C39.72482357 47.82159614 42.73258296 49.72857868 45.75 51.625 C52.59936212 55.96849793 58.80612777 60.74752416 64.85546875 66.140625 C67.24386775 68.21144089 69.70488415 70.16833092 72.1875 72.125 C75.69405396 74.90347558 78.87733038 77.79058955 82 81 C83.98260426 82.68732277 85.9832342 84.35366057 88 86 C88.928125 86.804375 89.85625 87.60875 90.8125 88.4375 C99.34756155 95.53885042 108.73891717 99.98337962 119 104 C119.76650879 104.33684814 120.53301758 104.67369629 121.32275391 105.02075195 C124.07610283 106.0278359 126.3862913 106.39419929 129.30078125 106.6328125 C130.76547852 106.75849609 130.76547852 106.75849609 132.25976562 106.88671875 C133.26716797 106.96535156 134.27457031 107.04398437 135.3125 107.125 C136.85260742 107.25455078 136.85260742 107.25455078 138.42382812 107.38671875 C140.94872866 107.59810577 143.47399758 107.80229351 146 108 C146 108.66 146 109.32 146 110 C139.9651418 113.06736291 134.7659675 114.74235554 128 115 C126.77023437 115.05994141 126.77023437 115.05994141 125.515625 115.12109375 C109.16823436 115.53219677 93.17828279 111.58828132 78.00268555 105.76098633 C74.56904514 104.45626157 71.09365229 103.27028116 67.625 102.0625 C62.09405211 100.12819579 56.64017889 98.08886182 51.2265625 95.84375 C48.98259627 94.9934049 46.76187598 94.40331129 44.4375 93.8125 C32.5266342 90.38247219 18.6982973 82.83456305 10 74 C8.22114704 72.51432102 6.42517897 71.05256368 4.62109375 69.59765625 C2.85392901 67.85604088 2.04513856 66.23114362 1 64 C0.1028125 63.13375 0.1028125 63.13375 -0.8125 62.25 C-8.88456704 53.94730248 -12.05752656 42.33500551 -12.5 30.9375 C-12.0181287 19.38813293 -8.29354176 8.29354176 0 0 Z " fill="#F3F4F3" transform="translate(262,180)"/>
<path d="M0 0 C0.3125 3.1875 0.3125 3.1875 0 7 C-1.61647759 8.71538793 -3.29164198 10.3760947 -5 12 C-12.62893179 21.44289364 -18.18331124 30.89212592 -23 42 C-23.34546875 42.7940625 -23.6909375 43.588125 -24.046875 44.40625 C-30.5927053 62.21949312 -31.00994103 87.2960666 -23.79296875 104.953125 C-22.60353258 107.35355811 -21.32074371 109.67029471 -20 112 C-19.4594398 113.22061981 -18.9365814 114.44934177 -18.4375 115.6875 C-17.33872053 118.21947009 -16.20326602 120.44917033 -14.8125 122.8125 C-13 126 -13 126 -13 128 C-12.01 128.33 -11.02 128.66 -10 129 C-10 129.99 -10 130.98 -10 132 C-9.34 132 -8.68 132 -8 132 C-6.79972216 133.41386111 -5.66571652 134.88416686 -4.5625 136.375 C0.80432276 143.25704594 6.99508102 149.40196122 14.3359375 154.1640625 C15.65464844 155.07285156 15.65464844 155.07285156 17 156 C17 156.66 17 157.32 17 158 C17.66 158.061875 18.32 158.12375 19 158.1875 C21.7794803 158.94027591 23.26712616 159.70234207 25.625 161.25 C30.48999756 164.43202109 35.67332856 166.70338227 41 169 C42.68609375 169.74056641 42.68609375 169.74056641 44.40625 170.49609375 C60.69040335 177.31065792 77.49532931 181.19441508 95 183 C96.83343645 183.20742389 98.66679135 183.41557241 100.5 183.625 C102.2325 183.810625 102.2325 183.810625 104 184 C103.875 185.875 103.875 185.875 103 188 C93.05523745 192.51372824 80.03570583 191.09158198 69.3125 191.125 C68.28020264 191.12967285 67.24790527 191.1343457 66.18432617 191.13916016 C46.5758162 191.0986306 46.5758162 191.0986306 37.4609375 187.015625 C34.99158725 185.99652807 32.66973224 185.43655771 30.0625 184.875 C24.37831936 183.4112625 19.41570512 180.84587893 14.25 178.125 C13.44570557 177.70202637 12.64141113 177.27905273 11.81274414 176.84326172 C6.93615553 174.21247713 2.35528039 171.43531474 -2 168 C-2 167.34 -2 166.68 -2 166 C-2.680625 165.79375 -3.36125 165.5875 -4.0625 165.375 C-12.17554455 161.57740468 -17.81362228 154.08953349 -23 147 C-23.33 146.01 -23.66 145.02 -24 144 C-24.66 144 -25.32 144 -26 144 C-26.61875 142.6696875 -26.61875 142.6696875 -27.25 141.3125 C-28.84940981 138.01805732 -28.84940981 138.01805732 -31 135.5625 C-34.98242109 130.46002298 -36.82572399 124.04655805 -39 118 C-39.33257812 117.1028125 -39.66515625 116.205625 -40.0078125 115.28125 C-48.84629643 90.4025545 -46.7365739 61.5522643 -35.44921875 37.7265625 C-31.76569477 30.7616859 -31.76569477 30.7616859 -29.5078125 28.515625 C-27.56707955 26.56483644 -26.40604247 24.36312584 -25 22 C-20.2160854 15.63071835 -15.25961127 9.92362709 -9 5 C-8.17822266 4.27296875 -8.17822266 4.27296875 -7.33984375 3.53125 C-3.34756944 0 -3.34756944 0 0 0 Z " fill="#EFF1F0" transform="translate(261,119)"/>
<path d="M0 0 C2.6714945 0.368482 3.7442377 0.68919175 5.48828125 2.80859375 C20.75271618 24.93610795 22.0438076 53.02984701 17.5234375 78.70703125 C16.52226656 83.68743245 14.86969484 88.28873923 13 93 C12.47867623 94.45815808 11.95783387 95.91648838 11.4375 97.375 C10 101 10 101 8 103 C6.96514123 105.31808364 5.9644586 107.65175298 5 110 C4.67 110.66 4.34 111.32 4 112 C3.34 112 2.68 112 2 112 C1.773125 112.86625 1.54625 113.7325 1.3125 114.625 C-0.17996652 118.46277104 -2.28938728 120.99845765 -5 124 C-5.57492187 124.69996094 -6.14984375 125.39992188 -6.7421875 126.12109375 C-7.34289062 126.84425781 -7.94359375 127.56742187 -8.5625 128.3125 C-9.12066406 128.98925781 -9.67882812 129.66601562 -10.25390625 130.36328125 C-12.19582541 132.18355894 -13.37041961 132.72234244 -16 133 C-18.96154035 130.94970284 -19.94735764 128.36580182 -21 125 C-21.28920402 121.85039895 -21.27919916 118.72330884 -21.25 115.5625 C-21.26160156 114.31243164 -21.26160156 114.31243164 -21.2734375 113.03710938 C-21.25844184 108.29473344 -20.82557802 104.4552797 -19 100 C-22.7465041 101.09988106 -22.7465041 101.09988106 -25.125 104 C-25.558125 104.99 -25.558125 104.99 -26 106 C-27.485 106.99 -27.485 106.99 -29 108 C-32.54039986 114.48242227 -34.90749909 120.61036452 -34 128 C-33.07254351 130.73774618 -33.07254351 130.73774618 -32 133 C-32 133.99 -32 134.98 -32 136 C-41.96625701 134.03904665 -49.39770919 132.17513571 -56 124 C-59.36657319 118.58420835 -58.58106934 111.06726721 -57.375 105 C-54.54156224 95.35466736 -48.10363 87.77435941 -40 82 C-39.01 82 -38.02 82 -37 82 C-37 81.34 -37 80.68 -37 80 C-36.20335937 79.61328125 -35.40671875 79.2265625 -34.5859375 78.828125 C-29.14432378 76.15365792 -23.94919864 73.5006527 -19 70 C-18.195625 69.54625 -17.39125 69.0925 -16.5625 68.625 C-12.00246931 65.73327322 -8.00325477 62.50488216 -5 58 C-4.34 58 -3.68 58 -3 58 C-1.13571974 54.41484566 0.47189936 50.73785401 2 47 C2.42539062 46.08154297 2.42539062 46.08154297 2.859375 45.14453125 C6.93717247 35.2000912 6.14763424 22.10556256 3 12 C2.46375 10.948125 1.9275 9.89625 1.375 8.8125 C-0.17970095 5.63242987 -0.24957094 3.4939931 0 0 Z " fill="#F4F6F5" transform="translate(420,146)"/>
<path d="M0 0 C0.66 0 1.32 0 2 0 C1.125 5.75 1.125 5.75 0 8 C-0.55059471 16.06833023 -0.29544166 22.61821067 3 30 C3.39080797 31.98956785 3.74850872 33.98806977 4 36 C5.65 36.33 7.3 36.66 9 37 C9 37.66 9 38.32 9 39 C8.67 39.33 8.34 39.66 8 40 C8.33 40.99 8.66 41.98 9 43 C9.61875 43.28875 10.2375 43.5775 10.875 43.875 C13.7059488 45.3737376 14.40106777 47.24983656 16 50 C17.62339805 51.70884005 19.29319053 53.37446717 21 55 C22.11955078 56.15628906 22.11955078 56.15628906 23.26171875 57.3359375 C26.17745364 60.17264391 29.211457 62.65736009 32.4375 65.125 C32.98470703 65.55425781 33.53191406 65.98351562 34.09570312 66.42578125 C37.56609501 69.09531347 41.05800816 71.11591855 45 73 C47.78712907 75.0903468 50.37763576 77.33043129 53 79.625 C55.68859649 81.75347222 57.7706579 82.95521285 61 84 C61 84.66 61 85.32 61 86 C63.31 86.66 65.62 87.32 68 88 C68 88.66 68 89.32 68 90 C68.99 90 69.98 90 71 90 C71 90.66 71 91.32 71 92 C71.556875 92.0825 72.11375 92.165 72.6875 92.25 C75.68542629 93.22230042 77.55170629 95.04136503 80 97 C82.18214568 97.77833534 82.18214568 97.77833534 84 98 C84 98.66 84 99.32 84 100 C84.86625 100.2475 85.7325 100.495 86.625 100.75 C90.18302254 102.06778613 92.9226155 103.80186822 96 106 C95.505 107.98 95.505 107.98 95 110 C89.06441997 109.61705935 84.44622243 108.57845495 79 106.23828125 C75.21515276 104.67604613 71.36776796 103.34077008 67.5 102 C62.00893834 100.08861119 56.59860243 98.0716194 51.2265625 95.84375 C48.98259627 94.9934049 46.76187598 94.40331129 44.4375 93.8125 C32.5266342 90.38247219 18.6982973 82.83456305 10 74 C8.22114704 72.51432102 6.42517897 71.05256368 4.62109375 69.59765625 C2.85392901 67.85604088 2.04513856 66.23114362 1 64 C0.1028125 63.13375 0.1028125 63.13375 -0.8125 62.25 C-8.88456704 53.94730248 -12.05752656 42.33500551 -12.5 30.9375 C-12.0181287 19.38813293 -8.29354176 8.29354176 0 0 Z " fill="#E1E0E0" transform="translate(262,180)"/>
<path d="M0 0 C-0.43465136 4.92604873 -2.59626975 7.51891224 -6 11 C-7.64797236 11.71162443 -9.31165408 12.39031953 -11 13 C-11.33 13.99 -11.66 14.98 -12 16 C-13.96875 17.39453125 -13.96875 17.39453125 -16.5 18.8125 C-20.77609348 21.26559512 -24.8529724 23.88237473 -28.89453125 26.703125 C-31 28 -31 28 -33.6953125 29.046875 C-36.5681834 30.23497754 -36.72205732 31.27372228 -38 34 C-39.0209375 34.495 -39.0209375 34.495 -40.0625 35 C-40.701875 35.33 -41.34125 35.66 -42 36 C-42.59070014 37.94603274 -42.59070014 37.94603274 -43 40 C-43.45890625 40.39960938 -43.9178125 40.79921875 -44.390625 41.2109375 C-48.64831544 45.94400114 -50.23617594 55.02848551 -50.3125 61.3125 C-49.95310827 65.55332238 -49.54714977 69.77913038 -49 74 C-52 74 -52 74 -53.6484375 72.75 C-62.64035264 63.63602266 -67.00822758 54.60649438 -67.5 41.6875 C-67.17577955 28.80946362 -62.04307412 19.01418251 -53 10 C-49.84599985 7.2699802 -46.6107584 5.08105087 -43 3 C-42.20078125 2.49339844 -41.4015625 1.98679688 -40.578125 1.46484375 C-29.76531669 -4.27746126 -11.20735508 -4.86172721 0 0 Z " fill="#F4F5F4" transform="translate(401,187)"/>
<path d="M0 0 C0.66 0.33 1.32 0.66 2 1 C0.36513823 5.65306811 0.36513823 5.65306811 -1.41015625 7.33984375 C-8.62356682 14.87227494 -8.85306999 26.2224756 -9 36 C-8.34 36 -7.68 36 -7 36 C-7.05929687 35.27425781 -7.11859375 34.54851562 -7.1796875 33.80078125 C-6.96467096 30.44932782 -6.02408776 28.9270931 -4.125 26.1875 C-3.59132813 25.39730469 -3.05765625 24.60710937 -2.5078125 23.79296875 C-2.01023437 23.20128906 -1.51265625 22.60960937 -1 22 C-0.34 22 0.32 22 1 22 C1.23203125 21.42507812 1.4640625 20.85015625 1.703125 20.2578125 C3.32081168 17.44147846 5.2137721 15.89629678 7.75 13.875 C8.59046875 13.19179687 9.4309375 12.50859375 10.296875 11.8046875 C13.13577108 9.90935515 15.72892558 8.92776087 19 8 C19 7.34 19 6.68 19 6 C20.58199631 5.35089846 22.16565724 4.70585306 23.75 4.0625 C24.63171875 3.70285156 25.5134375 3.34320313 26.421875 2.97265625 C28.61186104 2.14643424 30.71898271 1.50630057 33 1 C32.1875 2.9375 32.1875 2.9375 31 5 C30.01 5.33 29.02 5.66 28 6 C27.27544365 7.64232772 26.62225605 9.31624835 26 11 C24.72766263 13.37273725 23.36553597 15.67858886 22 18 C21.34 18 20.68 18 20 18 C19.67 18.66 19.34 19.32 19 20 C18.030625 20.28875 17.06125 20.5775 16.0625 20.875 C12.91372665 21.66611301 12.91372665 21.66611301 11.8125 24 C11.544375 24.66 11.27625 25.32 11 26 C10.01 26.66 9.02 27.32 8 28 C4.45960014 34.48242227 2.09250091 40.61036452 3 48 C3.92745649 50.73774618 3.92745649 50.73774618 5 53 C5 53.99 5 54.98 5 56 C-4.96625701 54.03904665 -12.39770919 52.17513571 -19 44 C-22.36657319 38.58420835 -21.58106934 31.06726721 -20.375 25 C-17.54156224 15.35466736 -11.10363 7.77435941 -3 2 C-2.01 2 -1.02 2 0 2 C0 1.34 0 0.68 0 0 Z " fill="#E0E0E0" transform="translate(383,226)"/>
<path d="M0 0 C0.59272705 0.41878418 1.1854541 0.83756836 1.79614258 1.26904297 C5.24458529 3.88160709 6.82842036 5.99237667 8.1875 10.0625 C10.22855639 10.94943303 10.22855639 10.94943303 12.1875 11.0625 C12.8475 9.7425 13.5075 8.4225 14.1875 7.0625 C14.1875 11.3525 14.1875 15.6425 14.1875 20.0625 C8.52220987 18.92944197 8.41534227 18.37261879 5.1875 14.0625 C-4.68880954 6.0107968 -16.82666369 2.18168175 -29.5234375 2.69140625 C-43.40347484 4.25744372 -51.82336603 9.8470957 -61.375 19.6875 C-67.11598174 25.5799225 -73.32595341 30.87800986 -81.8125 31.0625 C-81.8125 30.0725 -81.8125 29.0825 -81.8125 28.0625 C-85.1125 27.4025 -88.4125 26.7425 -91.8125 26.0625 C-91.8125 25.7325 -91.8125 25.4025 -91.8125 25.0625 C-89.894375 24.7221875 -89.894375 24.7221875 -87.9375 24.375 C-76.54287096 21.82289066 -70.18012446 15.79842661 -62.6875 7.1875 C-46.01237196 -11.27151845 -20.5582498 -14.53472818 0 0 Z " fill="#E0E0E0" transform="translate(395.8125,166.9375)"/>
<path d="M0 0 C-0.7734375 0.37125 -0.7734375 0.37125 -1.5625 0.75 C-6.79527196 3.4334728 -10.91544124 5.76956414 -15 10 C-15.99 10.33 -16.98 10.66 -18 11 C-18.69937532 12.31647119 -19.36729133 13.65022151 -20 15 C-20.99 15.495 -20.99 15.495 -22 16 C-23.06675823 17.83783891 -24.05534328 19.7215167 -25 21.625 C-25.515625 22.64851563 -26.03125 23.67203125 -26.5625 24.7265625 C-29.8179003 32.13967515 -30.25991034 38.46222318 -30.125 46.4375 C-30.11597656 47.45521484 -30.10695313 48.47292969 -30.09765625 49.52148438 C-30.07424698 52.01457156 -30.041457 54.50715859 -30 57 C-29.01 57.33 -28.02 57.66 -27 58 C-26.67 57.01 -26.34 56.02 -26 55 C-26.01160156 55.76183594 -26.02320313 56.52367187 -26.03515625 57.30859375 C-26.09047294 63.63840322 -25.8365926 69.72555549 -25 76 C-28 76 -28 76 -29.6484375 74.75 C-38.64035264 65.63602266 -43.00822758 56.60649438 -43.5 43.6875 C-43.17577955 30.80946362 -38.04307412 21.01418251 -29 12 C-21.20607161 5.25378002 -10.63736505 -1.20879148 0 0 Z " fill="#DBDADB" transform="translate(377,185)"/>
<path d="M0 0 C1.19625 -0.01417969 2.3925 -0.02835938 3.625 -0.04296875 C6.87695208 0.17909742 9.08270531 0.78962963 12 2.1875 C10.74890252 5.65207764 9.62462332 8.56836752 7 11.1875 C3.77734375 11.69140625 3.77734375 11.69140625 -0.0625 11.75 C-9.78109391 12.11988765 -16.87107559 13.63424604 -24.40625 19.98046875 C-26 21.1875 -26 21.1875 -28 21.1875 C-28.33 21.8475 -28.66 22.5075 -29 23.1875 C-30.09765625 21.43359375 -30.09765625 21.43359375 -31 19.1875 C-29.66334588 13.97558508 -26.13591095 9.49622876 -22 6.1875 C-20.68 6.1875 -19.36 6.1875 -18 6.1875 C-18 5.5275 -18 4.8675 -18 4.1875 C-11.80410563 0.87341697 -7.00080682 0.03771986 0 0 Z " fill="#DEDFDF" transform="translate(284,158.8125)"/>
<path d="M0 0 C2.58658524 1.29329262 3.19286602 2.88353514 4.2734375 5.4921875 C5.61266277 10.11467471 6.02879795 14.9027469 6.5703125 19.671875 C6.89062228 22.9921174 6.89062228 22.9921174 8 26 C7.54451823 28.73812607 6.74685247 31.3201176 6 34 C4.35 33.67 2.7 33.34 1 33 C0.505 31.515 0.505 31.515 0 30 C-1.32467746 29.3162955 -2.65863633 28.65035814 -4 28 C-6 25 -6 25 -5.8125 22.8125 C-5 20 -5 20 -3.5625 16.4375 C-1.48861906 11.14097073 -0.79414568 5.60573418 0 0 Z " fill="#E5E3E1" transform="translate(389,96)"/>
<path d="M0 0 C0.66 0 1.32 0 2 0 C1.125 5.75 1.125 5.75 0 8 C-0.59439347 16.50439895 -0.0854731 24.0291945 3 32 C0.525 31.01 0.525 31.01 -2 30 C-1.34 29.67 -0.68 29.34 0 29 C-0.33 27.35 -0.66 25.7 -1 24 C-3.47266765 24.34444881 -3.47266765 24.34444881 -6 25 C-6.33 25.66 -6.66 26.32 -7 27 C-8.32 26.34 -9.64 25.68 -11 25 C-9.94806443 15.11180563 -7.10507214 7.24203739 0 0 Z " fill="#D6D9DB" transform="translate(262,180)"/>
<path d="M0 0 C0.33 0 0.66 0 1 0 C1 5.28 1 10.56 1 16 C1.66 16 2.32 16 3 16 C3.33 15.01 3.66 14.02 4 13 C6.11398964 17.75647668 6.11398964 17.75647668 6 21 C3.7637165 24.74127051 1.00363912 27.85455818 -2 31 C-3.32 30.34 -4.64 29.68 -6 29 C-6 28.01 -6 27.02 -6 26 C-5.34 25.67 -4.68 25.34 -4 25 C-4.02320313 24.24976562 -4.04640625 23.49953125 -4.0703125 22.7265625 C-4.35582822 6.53374233 -4.35582822 6.53374233 0 0 Z " fill="#E3E2E2" transform="translate(274,95)"/>
<path d="M0 0 C0.66 0.99 1.32 1.98 2 3 C1.67 3.66 1.34 4.32 1 5 C1.60578253 7.01927511 2.26919734 9.02253397 3 11 C6.24849977 9.27773504 6.24849977 9.27773504 7 6 C8.32 6.33 9.64 6.66 11 7 C10.85892253 8.45880109 10.71197585 9.91703551 10.5625 11.375 C10.48128906 12.18710938 10.40007812 12.99921875 10.31640625 13.8359375 C10 16 10 16 9 18 C7.35 17.67 5.7 17.34 4 17 C3.67 16.01 3.34 15.02 3 14 C1.67532254 13.3162955 0.34136367 12.65035814 -1 12 C-3 9 -3 9 -2.75 6.5625 C-2.05282249 4.18047686 -1.20252143 2.16453858 0 0 Z " fill="#D5D8D8" transform="translate(386,112)"/>
<path d="M0 0 C0.66 0.33 1.32 0.66 2 1 C-1.65649977 9.25009245 -9.11607386 14.20403556 -17 18 C-17 17.01 -17 16.02 -17 15 C-15.68 14.34 -14.36 13.68 -13 13 C-13 12.01 -13 11.02 -13 10 C-11.42520738 7.9527696 -10.46657481 7.11310904 -7.9375 6.5 C-5.60312807 6.12732749 -5.60312807 6.12732749 -4 3 C-3.34 3.33 -2.68 3.66 -2 4 C-2 3.34 -2 2.68 -2 2 C-1.34 2 -0.68 2 0 2 C0 1.34 0 0.68 0 0 Z " fill="#CED1D6" transform="translate(339,177)"/>
<path d="M0 0 C0.66 0 1.32 0 2 0 C1.125 5.75 1.125 5.75 0 8 C-0.22950319 10.204364 -0.41075933 12.41392173 -0.5625 14.625 C-0.64628906 15.81351563 -0.73007812 17.00203125 -0.81640625 18.2265625 C-0.87699219 19.14179688 -0.93757813 20.05703125 -1 21 C-1.33 21 -1.66 21 -2 21 C-2.33 18.03 -2.66 15.06 -3 12 C-4.65 12.66 -6.3 13.32 -8 14 C-7.45994624 9.83492783 -6.16934899 7.45554561 -3.5625 4.1875 C-2.94503906 3.39730469 -2.32757813 2.60710937 -1.69140625 1.79296875 C-0.85416016 0.90544922 -0.85416016 0.90544922 0 0 Z " fill="#C6CCD0" transform="translate(262,180)"/>
<path d="M0 0 C2.60606665 0.35945747 3.77647209 0.76787487 5.625 2.6875 C7.21807255 5.36675837 8.11883937 8.01761016 9 11 C8.01 11.33 7.02 11.66 6 12 C6 14.64 6 17.28 6 20 C5.67 20 5.34 20 5 20 C4.80664062 19.32453125 4.61328125 18.6490625 4.4140625 17.953125 C4.15367187 17.06109375 3.89328125 16.1690625 3.625 15.25 C3.36976563 14.36828125 3.11453125 13.4865625 2.8515625 12.578125 C2.08216295 10.02412356 2.08216295 10.02412356 0.90625 7.875 C-0.37173355 5.2308961 -0.13139934 2.89078554 0 0 Z " fill="#CBD0D4" transform="translate(420,146)"/>
<path d="M0 0 C0.99 0.33 1.98 0.66 3 1 C5.06145107 1.068991 7.12501401 1.08467727 9.1875 1.0625 C10.27417969 1.05347656 11.36085938 1.04445312 12.48046875 1.03515625 C13.31191406 1.02355469 14.14335937 1.01195312 15 1 C15 1.33 15 1.66 15 2 C14.21753906 2.06058594 13.43507813 2.12117187 12.62890625 2.18359375 C11.11103516 2.30927734 11.11103516 2.30927734 9.5625 2.4375 C8.55316406 2.51871094 7.54382813 2.59992188 6.50390625 2.68359375 C4.06359221 2.73211468 4.06359221 2.73211468 3 4 C2.66625723 6.41583753 2.66625723 6.41583753 3 9 C4.39585785 10.81476003 4.39585785 10.81476003 6 12 C5.38125 12.103125 4.7625 12.20625 4.125 12.3125 C1.63473516 12.87525373 1.63473516 12.87525373 0 16 C-2.00215699 11.8705512 -2.33217754 8.56744115 -2 4 C-1 1.5625 -1 1.5625 0 0 Z " fill="#C3C9CD" transform="translate(290,175)"/>
<path d="M0 0 C0.33 0 0.66 0 1 0 C1.66 5.61 2.32 11.22 3 17 C0 17 0 17 -1.75390625 15.609375 C-2.35074219 14.99578125 -2.94757813 14.3821875 -3.5625 13.75 C-4.16191406 13.14671875 -4.76132812 12.5434375 -5.37890625 11.921875 C-6.97572113 10.02878362 -7.99738545 8.25463571 -9 6 C-8.401875 6.33 -7.80375 6.66 -7.1875 7 C-4.94613529 8.20787988 -4.94613529 8.20787988 -2 8 C-1.34 5.36 -0.68 2.72 0 0 Z " fill="#BCC2C5" transform="translate(349,244)"/>
<path d="M0 0 C0.66 0.33 1.32 0.66 2 1 C1.67 1.99 1.34 2.98 1 4 C2.65 4 4.3 4 6 4 C5.67 5.32 5.34 6.64 5 8 C2.69 8.33 0.38 8.66 -2 9 C-2 8.01 -2 7.02 -2 6 C-5.3 5.34 -8.6 4.68 -12 4 C-12 3.67 -12 3.34 -12 3 C-11.38511719 2.86722656 -10.77023437 2.73445312 -10.13671875 2.59765625 C-9.32847656 2.42105469 -8.52023437 2.24445313 -7.6875 2.0625 C-6.88699219 1.88847656 -6.08648437 1.71445313 -5.26171875 1.53515625 C-2.854599 1.00113841 -2.854599 1.00113841 0 0 Z " fill="#D7D7D9" transform="translate(316,189)"/>
<path d="M0 0 C-0.7734375 0.37125 -0.7734375 0.37125 -1.5625 0.75 C-6.2798643 3.16916118 -10.84833055 5.67866444 -15 9 C-15.66 8.67 -16.32 8.34 -17 8 C-17.99 8 -18.98 8 -20 8 C-20.66 7.67 -21.32 7.34 -22 7 C-20.06374902 6.01836578 -18.12595461 5.03977546 -16.1875 4.0625 C-15.10855469 3.51722656 -14.02960938 2.97195312 -12.91796875 2.41015625 C-8.35280044 0.2039638 -5.04240652 -0.09513975 0 0 Z " fill="#C7CACF" transform="translate(377,185)"/>
<path d="M0 0 C3.63 0.33 7.26 0.66 11 1 C10.67 2.32 10.34 3.64 10 5 C6.98572397 6.40666215 4.94022947 7.14845728 1.625 6.625 C1.08875 6.41875 0.5525 6.2125 0 6 C0 5.34 0 4.68 0 4 C-0.33 3.34 -0.66 2.68 -1 2 C-0.67 1.34 -0.34 0.68 0 0 Z " fill="#CCD4D7" transform="translate(354,302)"/>
<path d="M0 0 C4.45143264 0.64268404 8.58881647 1.70666643 12.875 3.0625 C14.02742188 3.42472656 15.17984375 3.78695313 16.3671875 4.16015625 C17.23601562 4.43730469 18.10484375 4.71445312 19 5 C19 5.33 19 5.66 19 6 C11.12309743 6.41136629 4.49701701 5.436168 -3 3 C-2.01 2.67 -1.02 2.34 0 2 C0 1.34 0 0.68 0 0 Z " fill="#D2D5D8" transform="translate(360,288)"/>
<path d="M0 0 C4.62 0 9.24 0 14 0 C14 0.66 14 1.32 14 2 C7.71546794 5.32797915 3.11341265 6.45164525 -4 6 C-4 5.67 -4 5.34 -4 5 C-2.02 5 -0.04 5 2 5 C2 4.01 2 3.02 2 2 C1.34 1.34 0.68 0.68 0 0 Z " fill="#D1D6DA" transform="translate(394,288)"/>
<path d="M0 0 C0.66 0.33 1.32 0.66 2 1 C0.63600763 5.46397502 -1.09902189 7.45588384 -5 10 C-7.63778288 11.14515992 -10.27148336 12.0750791 -13 13 C-11.87656717 9.6297015 -10.82104006 8.67140784 -8.1875 6.375 C-7.15689453 5.45847656 -7.15689453 5.45847656 -6.10546875 4.5234375 C-4.00479562 3.00346993 -2.53228128 2.42109846 0 2 C0 1.34 0 0.68 0 0 Z " fill="#C6CBCF" transform="translate(383,226)"/>
<path d="M0 0 C0.66 0.99 1.32 1.98 2 3 C1.67 3.66 1.34 4.32 1 5 C1.495 6.175625 1.495 6.175625 2 7.375 C3.07720707 10.20266855 3.0264725 11.22852426 2 14 C-0.5625 11.8125 -0.5625 11.8125 -3 9 C-2.91617963 5.56336468 -1.65477998 2.97860396 0 0 Z " fill="#CACED3" transform="translate(386,112)"/>
<path d="M0 0 C-1.61010527 4.07376031 -4.53822271 6.76507069 -7.625 9.75 C-8.140625 10.25660156 -8.65625 10.76320313 -9.1875 11.28515625 C-10.45383339 12.52803902 -11.7263144 13.76465276 -13 15 C-13.33 14.34 -13.66 13.68 -14 13 C-2.80645161 0 -2.80645161 0 0 0 Z " fill="#C2CBCF" transform="translate(293,109)"/>
<path d="M0 0 C0.33 2.31 0.66 4.62 1 7 C0.01 7 -0.98 7 -2 7 C-2.33 7.66 -2.66 8.32 -3 9 C-3.66 8.67 -4.32 8.34 -5 8 C-5 5.69 -5 3.38 -5 1 C-2 0 -2 0 0 0 Z " fill="#E7E6E5" transform="translate(261,204)"/>
<path d="M0 0 C0.66 0.33 1.32 0.66 2 1 C1.67 1.66 1.34 2.32 1 3 C1.66 3 2.32 3 3 3 C2.47731534 5.76276177 1.89130413 8.3260876 1 11 C1.66 11.33 2.32 11.66 3 12 C2.67 12.99 2.34 13.98 2 15 C-0.02055843 10.60748167 -1.40895235 6.84659077 -2 2 C-1.34 2 -0.68 2 0 2 C0 1.34 0 0.68 0 0 Z " fill="#C8CDCD" transform="translate(337,234)"/>
<path d="M0 0 C0.66 0.33 1.32 0.66 2 1 C0.515 2.485 0.515 2.485 -1 4 C-0.01 5.98 0.98 7.96 2 10 C1.21625 9.835 0.4325 9.67 -0.375 9.5 C-3.81917573 8.82086554 -3.81917573 8.82086554 -7 10 C-6.34 8.35 -5.68 6.7 -5 5 C-4.34 5 -3.68 5 -3 5 C-2.690625 4.360625 -2.38125 3.72125 -2.0625 3.0625 C-1 1 -1 1 0 0 Z " fill="#E5E4E2" transform="translate(387,243)"/>
<path d="M0 0 C0.66 0.33 1.32 0.66 2 1 C0.61811547 4.21043882 -0.92421903 6.04936365 -3.625 8.25 C-4.25664062 8.77078125 -4.88828125 9.2915625 -5.5390625 9.828125 C-6.02117187 10.21484375 -6.50328125 10.6015625 -7 11 C-6.25 5.25 -6.25 5.25 -4 3 C-3.34 3.33 -2.68 3.66 -2 4 C-2 3.34 -2 2.68 -2 2 C-1.34 2 -0.68 2 0 2 C0 1.34 0 0.68 0 0 Z " fill="#B3BCBE" transform="translate(339,177)"/>
<path d="M0 0 C0.66 1.32 1.32 2.64 2 4 C0.625 5.5 0.625 5.5 -1 7 C-1.66 7 -2.32 7 -3 7 C-3.33 7.66 -3.66 8.32 -4 9 C-4.66 7.68 -5.32 6.36 -6 5 C-2.25 1.125 -2.25 1.125 0 0 Z " fill="#C8CBCF" transform="translate(259,173)"/>
<path d="M0 0 C2.97 0.495 2.97 0.495 6 1 C6.33 2.32 6.66 3.64 7 5 C4.08517222 5.80967438 2.53886783 6.21845993 -0.3125 5.0625 C-0.869375 4.711875 -1.42625 4.36125 -2 4 C0.31 4.33 2.62 4.66 5 5 C5 4.34 5 3.68 5 3 C3.02 3 1.04 3 -1 3 C-0.67 2.01 -0.34 1.02 0 0 Z " fill="#C3C5C7" transform="translate(351,284)"/>
<path d="M0 0 C0.33 0 0.66 0 1 0 C1.03738281 0.67546875 1.07476562 1.3509375 1.11328125 2.046875 C1.17902344 2.93890625 1.24476563 3.8309375 1.3125 4.75 C1.37050781 5.63171875 1.42851562 6.5134375 1.48828125 7.421875 C2.0641181 10.32303774 3.07596148 11.79225607 5 14 C4.01 14.99 3.02 15.98 2 17 C1.01 16.67 0.02 16.34 -1 16 C-0.67 10.72 -0.34 5.44 0 0 Z " fill="#A4ACB3" transform="translate(249,170)"/>
<path d="M0 0 C0.33 0 0.66 0 1 0 C1 4.29 1 8.58 1 13 C0.01 13 -0.98 13 -2 13 C-1.95875 12.278125 -1.9175 11.55625 -1.875 10.8125 C-2.00921305 7.79270631 -2.75170619 5.73064271 -4 3 C-3.01 3.33 -2.02 3.66 -1 4 C-0.67 2.68 -0.34 1.36 0 0 Z " fill="#D1D5D9" transform="translate(409,174)"/>
<path d="M0 0 C0.99 0.99 1.98 1.98 3 3 C0.33440687 4.77706209 -2.0280615 5.87548273 -5 7 C-5 5.68 -5 4.36 -5 3 C-2.5 1.25 -2.5 1.25 0 0 Z " fill="#DFE3E5" transform="translate(359,191)"/>
<path d="M0 0 C1.98 0.66 3.96 1.32 6 2 C4.68 3.32 3.36 4.64 2 6 C3.98 6 5.96 6 8 6 C8 6.66 8 7.32 8 8 C5.69 7.67 3.38 7.34 1 7 C0.67 4.69 0.34 2.38 0 0 Z " fill="#E7E6E6" transform="translate(348,281)"/>
<path d="M0 0 C-0.5775 0.268125 -1.155 0.53625 -1.75 0.8125 C-4.05747896 1.95053246 -4.05747896 1.95053246 -6.125 3.625 C-8 5 -8 5 -10 5 C-10 4.34 -10 3.68 -10 3 C-10.66 2.67 -11.32 2.34 -12 2 C-7.8794254 0.00214565 -4.54805635 -0.17835515 0 0 Z " fill="#9EA6AA" transform="translate(377,185)"/>
<path d="M0 0 C0 2.31 0 4.62 0 7 C-0.598125 6.505 -1.19625 6.01 -1.8125 5.5 C-3.97029994 3.71723582 -3.97029994 3.71723582 -7 4 C-3.375 0 -3.375 0 0 0 Z " fill="#D1D8DA" transform="translate(261,119)"/>
<path d="M0 0 C0.99 0.33 1.98 0.66 3 1 C3.70211894 2.65204456 4.36971413 4.31923769 5 6 C5.66 6.33 6.32 6.66 7 7 C6.34 8.32 5.68 9.64 5 11 C4.15841464 9.73461631 3.32700252 8.46246221 2.5 7.1875 C1.80390625 6.12595703 1.80390625 6.12595703 1.09375 5.04296875 C0 3 0 3 0 0 Z " fill="#A7ABB1" transform="translate(254,229)"/>
<path d="M0 0 C0.33 0 0.66 0 1 0 C1.33 5.28 1.66 10.56 2 16 C1.01 16.33 0.02 16.66 -1 17 C-0.67 11.39 -0.34 5.78 0 0 Z " fill="#E7ECF0" transform="translate(275,95)"/>
<path d="M0 0 C0.66 0 1.32 0 2 0 C2.33 0.99 2.66 1.98 3 3 C-3.625 7 -3.625 7 -7 7 C-5.37660195 5.29115995 -3.70680947 3.62553283 -2 2 C-1.34 2 -0.68 2 0 2 C0 1.34 0 0.68 0 0 Z " fill="#BAC1C4" transform="translate(349,170)"/>
<path d="M0 0 C5.445 1.485 5.445 1.485 11 3 C11 3.33 11 3.66 11 4 C7.37 4 3.74 4 0 4 C0 2.68 0 1.36 0 0 Z " fill="#BFC5C9" transform="translate(368,290)"/>
<path d="M0 0 C4.62 0 9.24 0 14 0 C14 0.66 14 1.32 14 2 C12.35 2.33 10.7 2.66 9 3 C9 2.34 9 1.68 9 1 C6.03 1 3.06 1 0 1 C0 0.67 0 0.34 0 0 Z " fill="#A7ADB2" transform="translate(394,288)"/>
<path d="M0 0 C1.9451 2.91765 2.45276317 4.62537285 3 8 C1.125 7.75 1.125 7.75 -1 7 C-2.25 4.9375 -2.25 4.9375 -3 3 C-2.01 3 -1.02 3 0 3 C0 2.01 0 1.02 0 0 Z " fill="#B6BBC1" transform="translate(385,274)"/>
<path d="M0 0 C0.99 0 1.98 0 3 0 C3 2.31 3 4.62 3 7 C0.53199953 5.84826645 -1.04783565 4.95216435 -3 3 C-2.34 3 -1.68 3 -1 3 C-0.67 2.01 -0.34 1.02 0 0 Z " fill="#CED1D5" transform="translate(398,173)"/>
<path d="M0 0 C2.475 0.99 2.475 0.99 5 2 C3.38405168 4.04119788 1.7143618 6.04072937 0 8 C-0.66 8 -1.32 8 -2 8 C-2 7.34 -2 6.68 -2 6 C-1.34 5.67 -0.68 5.34 0 5 C0 3.35 0 1.7 0 0 Z " fill="#C3C8CF" transform="translate(273,116)"/>
<path d="M0 0 C0.598125 0.20625 1.19625 0.4125 1.8125 0.625 C1.8125 2.275 1.8125 3.925 1.8125 5.625 C-1.10267292 4.55098892 -2.96560176 3.84689824 -5.1875 1.625 C-2.1875 -0.375 -2.1875 -0.375 0 0 Z " fill="#BDBFC4" transform="translate(301.1875,266.375)"/>
<path d="M0 0 C0.66 0.33 1.32 0.66 2 1 C1.34 2.65 0.68 4.3 0 6 C-1.98 6 -3.96 6 -6 6 C-4.6875 4 -4.6875 4 -3 2 C-2.01 2 -1.02 2 0 2 C0 1.34 0 0.68 0 0 Z " fill="#AFB3B8" transform="translate(383,226)"/>
<path d="M0 0 C-1.24976756 3.65316671 -1.67098753 4.78065836 -5 7 C-5.6875 5.1875 -5.6875 5.1875 -6 3 C-4.04862098 0.26806937 -3.44686768 0 0 0 Z " fill="#B4B9C3" transform="translate(296,161)"/>
<path d="M0 0 C6.75 -0.125 6.75 -0.125 9 1 C9 1.66 9 2.32 9 3 C9.66 3.33 10.32 3.66 11 4 C7.0507432 3.44894091 3.65079826 2.61064629 0 1 C0 0.67 0 0.34 0 0 Z " fill="#ACB5BA" transform="translate(327,280)"/>
<path d="M0 0 C1.42944945 2.35438733 2.08661261 3.48032433 1.625 6.25 C1.41875 6.8275 1.2125 7.405 1 8 C1.66 8.33 2.32 8.66 3 9 C2.01 9 1.02 9 0 9 C-1.125 6.75 -1.125 6.75 -2 4 C-1.125 1.6875 -1.125 1.6875 0 0 Z " fill="#CCCFD4" transform="translate(364,261)"/>
<path d="M0 0 C1.41377341 2.63904371 2.37240135 5.07120629 3 8 C2.01 8 1.02 8 0 8 C-0.66 6.35 -1.32 4.7 -2 3 C-1.34 3 -0.68 3 0 3 C0 2.01 0 1.02 0 0 Z " fill="#C7D0D3" transform="translate(277,108)"/>
<path d="M0 0 C2 1 2 1 4 3 C4 3.99 4 4.98 4 6 C2.125 5.75 2.125 5.75 0 5 C-1.25 2.9375 -1.25 2.9375 -2 1 C-1.34 0.67 -0.68 0.34 0 0 Z " fill="#E5E9EC" transform="translate(373,273)"/>
<path d="M0 0 C0.99 1.32 1.98 2.64 3 4 C2.67 4.66 2.34 5.32 2 6 C1.34 6 0.68 6 0 6 C0 8.31 0 10.62 0 13 C-0.33 13 -0.66 13 -1 13 C-1.07654536 8.48382401 -1.10228696 4.40914783 0 0 Z " fill="#BEC3C9" transform="translate(363,250)"/>
<path d="M0 0 C0.33 0.99 0.66 1.98 1 3 C-2.93670488 4.31223496 -5.12488144 3.24296256 -9 2 C-9 1.67 -9 1.34 -9 1 C-2.25 0 -2.25 0 0 0 Z " fill="#E5E1DD" transform="translate(313,191)"/>
<path d="M0 0 C0 0.99 0 1.98 0 3 C0.3062434 4.33981486 0.63451555 5.67511887 1 7 C-0.32 7 -1.64 7 -3 7 C-2.25 2.25 -2.25 2.25 0 0 Z " fill="#E4E7E7" transform="translate(254,175)"/>
<path d="M0 0 C0.99 0.33 1.98 0.66 3 1 C3.99 1 4.98 1 6 1 C5.38125 1.433125 4.7625 1.86625 4.125 2.3125 C1.7802755 3.99740483 1.7802755 3.99740483 0 7 C-0.38133299 5.0085944 -0.71325582 3.00720923 -1 1 C-0.67 0.67 -0.34 0.34 0 0 Z " fill="#B3B8BB" transform="translate(389,250)"/>
</svg>
